IntelOneMono-Italic.ufo
<glyph name="dollar" format="2">
  <advance width="614"/>
  <unicode hex="0024"/>
  <outline>
    <contour>
      <point x="254" y="1" type="qcurve"/>
      <point x="207" y="-142" type="line"/>
      <point x="143" y="-142" type="line"/>
      <point x="192" y="10" type="line"/>
      <point x="156" y="16"/>
      <point x="81" y="43"/>
      <point x="33" y="65" type="qcurve"/>
      <point x="64" y="136" type="line"/>
      <point x="109" y="114"/>
      <point x="187" y="86"/>
      <point x="221" y="79" type="qcurve"/>
      <point x="300" y="314" type="line"/>
      <point x="231" y="350"/>
      <point x="169" y="429"/>
      <point x="169" y="484" type="qcurve"/>
      <point x="169" y="559"/>
      <point x="294" y="655"/>
      <point x="397" y="655" type="qcurve"/>
      <point x="411" y="655"/>
      <point x="425" y="655"/>
      <point x="431" y="654" type="qcurve"/>
      <point x="478" y="797" type="line"/>
      <point x="542" y="797" type="line"/>
      <point x="494" y="647" type="line"/>
      <point x="517" y="643"/>
      <point x="570" y="630"/>
      <point x="617" y="614" type="qcurve"/>
      <point x="593" y="542" type="line"/>
      <point x="558" y="556"/>
      <point x="494" y="574"/>
      <point x="463" y="579" type="qcurve"/>
      <point x="389" y="361" type="line"/>
      <point x="465" y="321"/>
      <point x="528" y="245"/>
      <point x="528" y="185" type="qcurve"/>
      <point x="528" y="99"/>
      <point x="403" y="0"/>
      <point x="293" y="0" type="qcurve"/>
      <point x="277" y="0"/>
      <point x="261" y="0"/>
    </contour>
    <contour>
      <point x="396" y="585" type="qcurve"/>
      <point x="329" y="585"/>
      <point x="256" y="534"/>
      <point x="256" y="489" type="qcurve"/>
      <point x="256" y="457"/>
      <point x="298" y="406"/>
      <point x="344" y="381" type="qcurve"/>
      <point x="413" y="585" type="line"/>
      <point x="409" y="585"/>
      <point x="400" y="585"/>
    </contour>
    <contour>
      <point x="293" y="71" type="qcurve"/>
      <point x="363" y="71"/>
      <point x="440" y="128"/>
      <point x="440" y="179" type="qcurve"/>
      <point x="440" y="215"/>
      <point x="395" y="268"/>
      <point x="345" y="294" type="qcurve"/>
      <point x="271" y="72" type="line"/>
      <point x="275" y="71"/>
      <point x="284" y="71"/>
    </contour>
  </outline>
</glyph>
<glyph name="quotesingle" format="2">
  <advance width="614"/>
  <unicode hex="0027"/>
  <outline>
    <contour>
      <point x="305" y="405" type="line"/>
      <point x="391" y="405" type="line"/>
      <point x="498" y="710" type="line"/>
      <point x="373" y="710" type="line"/>
    </contour>
  </outline>
</glyph>
<glyph name="asterisk" format="2">
  <advance width="614"/>
  <unicode hex="002A"/>
  <outline>
    <contour>
      <point x="166" y="160" type="qcurve"/>
      <point x="104" y="230" type="line"/>
      <point x="119" y="243"/>
      <point x="161" y="272"/>
      <point x="208" y="301" type="qcurve"/>
      <point x="256" y="330"/>
      <point x="301" y="361"/>
      <point x="319" y="376" type="qcurve"/>
      <point x="302" y="382"/>
      <point x="258" y="391"/>
      <point x="212" y="396" type="qcurve"/>
      <point x="166" y="402"/>
      <point x="126" y="410"/>
      <point x="111" y="416" type="qcurve"/>
      <point x="172" y="513" type="line"/>
      <point x="186" y="507"/>
      <point x="220" y="487"/>
      <point x="252" y="461" type="qcurve"/>
      <point x="287" y="435"/>
      <point x="323" y="412"/>
      <point x="339" y="405" type="qcurve"/>
      <point x="344" y="425"/>
      <point x="350" y="472"/>
      <point x="353" y="520" type="qcurve"/>
      <point x="357" y="568"/>
      <point x="363" y="612"/>
      <point x="368" y="630" type="qcurve"/>
      <point x="472" y="630" type="line"/>
      <point x="467" y="613"/>
      <point x="448" y="569"/>
      <point x="425" y="522" type="qcurve"/>
      <point x="401" y="473"/>
      <point x="380" y="425"/>
      <point x="374" y="405" type="qcurve"/>
      <point x="394" y="412"/>
      <point x="441" y="435"/>
      <point x="488" y="460" type="qcurve"/>
      <point x="533" y="485"/>
      <point x="576" y="505"/>
      <point x="593" y="511" type="qcurve"/>
      <point x="607" y="413" type="line"/>
      <point x="589" y="407"/>
      <point x="542" y="398"/>
      <point x="492" y="391" type="qcurve"/>
      <point x="443" y="385"/>
      <point x="395" y="376"/>
      <point x="375" y="370" type="qcurve"/>
      <point x="384" y="356"/>
      <point x="411" y="326"/>
      <point x="440" y="297" type="qcurve"/>
      <point x="470" y="266"/>
      <point x="495" y="236"/>
      <point x="503" y="223" type="qcurve"/>
      <point x="407" y="160" type="line"/>
      <point x="399" y="174"/>
      <point x="385" y="212"/>
      <point x="374" y="257" type="qcurve"/>
      <point x="363" y="298"/>
      <point x="350" y="337"/>
      <point x="343" y="352" type="qcurve"/>
      <point x="325" y="336"/>
      <point x="286" y="294"/>
      <point x="249" y="250" type="qcurve"/>
      <point x="215" y="209"/>
      <point x="181" y="173"/>
    </contour>
  </outline>
</glyph>
<glyph name="plus" format="2">
  <advance width="614"/>
  <unicode hex="002B"/>
  <outline>
    <contour>
      <point x="283" y="292" type="line"/>
      <point x="87" y="292" type="line"/>
      <point x="107" y="363" type="line"/>
      <point x="303" y="363" type="line"/>
      <point x="362" y="567" type="line"/>
      <point x="443" y="567" type="line"/>
      <point x="384" y="363" type="line"/>
      <point x="582" y="363" type="line"/>
      <point x="561" y="292" type="line"/>
      <point x="364" y="292" type="line"/>
      <point x="305" y="87" type="line"/>
      <point x="224" y="87" type="line"/>
    </contour>
  </outline>
</glyph>
<glyph name="slash" format="2">
  <advance width="614"/>
  <unicode hex="002F"/>
  <outline>
    <contour>
      <point x="633" y="755" type="line"/>
      <point x="725" y="755" type="line"/>
      <point x="37" y="-100" type="line"/>
      <point x="-57" y="-100" type="line"/>
    </contour>
  </outline>
</glyph>
<glyph name="zero" format="2">
  <advance width="614"/>
  <unicode hex="0030"/>
  <outline>
    <contour>
      <point x="227" y="593" type="qcurve"/>
      <point x="265" y="631"/>
      <point x="359" y="670"/>
      <point x="413" y="670" type="qcurve"/>
      <point x="503" y="670"/>
      <point x="598" y="571"/>
      <point x="598" y="477" type="qcurve"/>
      <point x="598" y="366"/>
      <point x="507" y="132"/>
      <point x="437" y="62" type="qcurve"/>
      <point x="399" y="24"/>
      <point x="306" y="-15"/>
      <point x="252" y="-15" type="qcurve"/>
      <point x="162" y="-15"/>
      <point x="67" y="84"/>
      <point x="67" y="178" type="qcurve"/>
      <point x="67" y="290"/>
      <point x="157" y="523"/>
    </contour>
    <contour>
      <point x="408" y="596" type="qcurve"/>
      <point x="374" y="596"/>
      <point x="312" y="568"/>
      <point x="286" y="541" type="qcurve"/>
      <point x="242" y="498"/>
      <point x="175" y="350"/>
      <point x="161" y="268" type="qcurve"/>
      <point x="512" y="459" type="line"/>
      <point x="512" y="472" type="line"/>
      <point x="512" y="533"/>
      <point x="459" y="596"/>
    </contour>
    <contour>
      <point x="153" y="183" type="line"/>
      <point x="153" y="121"/>
      <point x="205" y="59"/>
      <point x="256" y="59" type="qcurve"/>
      <point x="291" y="59"/>
      <point x="352" y="87"/>
      <point x="379" y="114" type="qcurve"/>
      <point x="422" y="157"/>
      <point x="489" y="305"/>
      <point x="504" y="388" type="qcurve"/>
      <point x="153" y="196" type="line"/>
    </contour>
  </outline>
</glyph>
<glyph name="two" format="2">
  <advance width="614"/>
  <unicode hex="0032"/>
  <outline>
    <contour>
      <point x="478" y="0" type="line"/>
      <point x="14" y="0" type="line"/>
      <point x="14" y="47" type="line"/>
      <point x="347" y="315" type="line"/>
      <point x="439" y="389"/>
      <point x="511" y="478"/>
      <point x="511" y="520" type="qcurve"/>
      <point x="511" y="555"/>
      <point x="466" y="596"/>
      <point x="426" y="596" type="qcurve"/>
      <point x="380" y="596"/>
      <point x="280" y="546"/>
      <point x="191" y="481" type="qcurve"/>
      <point x="150" y="542" type="line"/>
      <point x="247" y="615"/>
      <point x="369" y="670"/>
      <point x="435" y="670" type="qcurve"/>
      <point x="508" y="670"/>
      <point x="603" y="589"/>
      <point x="603" y="526" type="qcurve"/>
      <point x="603" y="467"/>
      <point x="518" y="357"/>
      <point x="420" y="281" type="qcurve"/>
      <point x="156" y="75" type="line"/>
      <point x="156" y="72" type="line"/>
      <point x="499" y="72" type="line"/>
    </contour>
  </outline>
</glyph>
<glyph name="five" format="2">
  <advance width="614"/>
  <unicode hex="0035"/>
  <outline>
    <contour>
      <point x="377" y="421" type="qcurve"/>
      <point x="453" y="421"/>
      <point x="541" y="344"/>
      <point x="541" y="275" type="qcurve"/>
      <point x="541" y="156"/>
      <point x="350" y="17"/>
      <point x="163" y="1" type="qcurve"/>
      <point x="24" y="-10" type="line"/>
      <point x="38" y="65" type="line"/>
      <point x="160" y="76" type="line"/>
      <point x="301" y="88"/>
      <point x="450" y="188"/>
      <point x="450" y="267" type="qcurve"/>
      <point x="450" y="306"/>
      <point x="396" y="351"/>
      <point x="350" y="351" type="qcurve"/>
      <point x="315" y="351"/>
      <point x="234" y="326"/>
      <point x="182" y="298" type="qcurve"/>
      <point x="125" y="307" type="line"/>
      <point x="124" y="312" type="line"/>
      <point x="247" y="655" type="line"/>
      <point x="616" y="655" type="line"/>
      <point x="595" y="583" type="line"/>
      <point x="300" y="583" type="line"/>
      <point x="225" y="382" type="line"/>
      <point x="264" y="402"/>
      <point x="339" y="421"/>
    </contour>
  </outline>
</glyph>
<glyph name="eight" format="2">
  <advance width="614"/>
  <unicode hex="0038"/>
  <outline>
    <contour>
      <point x="526" y="192" type="qcurve"/>
      <point x="526" y="103"/>
      <point x="376" y="-15"/>
      <point x="266" y="-15" type="qcurve"/>
      <point x="168" y="-15"/>
      <point x="54" y="74"/>
      <point x="54" y="150" type="qcurve"/>
      <point x="54" y="224"/>
      <point x="165" y="331"/>
      <point x="257" y="344" type="qcurve"/>
      <point x="257" y="349" type="line"/>
      <point x="214" y="368"/>
      <point x="168" y="434"/>
      <point x="168" y="476" type="qcurve"/>
      <point x="168" y="556"/>
      <point x="301" y="670"/>
      <point x="400" y="670" type="qcurve"/>
      <point x="491" y="670"/>
      <point x="597" y="586"/>
      <point x="597" y="514" type="qcurve"/>
      <point x="597" y="447"/>
      <point x="503" y="347"/>
      <point x="425" y="333" type="qcurve"/>
      <point x="425" y="328" type="line"/>
      <point x="473" y="308"/>
      <point x="526" y="237"/>
    </contour>
    <contour>
      <point x="400" y="601" type="qcurve"/>
      <point x="337" y="601"/>
      <point x="250" y="520"/>
      <point x="250" y="461" type="qcurve"/>
      <point x="250" y="419"/>
      <point x="307" y="368"/>
      <point x="354" y="368" type="qcurve"/>
      <point x="416" y="368"/>
      <point x="511" y="454"/>
      <point x="511" y="510" type="qcurve"/>
      <point x="511" y="552"/>
      <point x="451" y="601"/>
    </contour>
    <contour>
      <point x="316" y="305" type="qcurve"/>
      <point x="243" y="305"/>
      <point x="142" y="217"/>
      <point x="142" y="155" type="qcurve"/>
      <point x="142" y="107"/>
      <point x="208" y="54"/>
      <point x="267" y="54" type="qcurve"/>
      <point x="341" y="54"/>
      <point x="441" y="141"/>
      <point x="441" y="205" type="qcurve"/>
      <point x="441" y="250"/>
      <point x="372" y="305"/>
    </contour>
  </outline>
</glyph>
<glyph name="nine" format="2">
  <advance width="614"/>
  <unicode hex="0039"/>
  <outline>
    <contour>
      <point x="96" y="1" type="line"/>
      <point x="266" y="126" type="line"/>
      <point x="298" y="149"/>
      <point x="354" y="196"/>
      <point x="380" y="220" type="qcurve"/>
      <point x="253" y="234"/>
      <point x="133" y="324"/>
      <point x="133" y="406" type="qcurve"/>
      <point x="133" y="510"/>
      <point x="301" y="669"/>
      <point x="415" y="669" type="qcurve"/>
      <point x="505" y="669"/>
      <point x="607" y="573"/>
      <point x="607" y="486" type="qcurve"/>
      <point x="607" y="389"/>
      <point x="479" y="201"/>
      <point x="342" y="97" type="qcurve"/>
      <point x="211" y="-1" type="line"/>
      <point x="96" y="-1" type="line"/>
    </contour>
    <contour>
      <point x="411" y="598" type="qcurve"/>
      <point x="335" y="598"/>
      <point x="220" y="481"/>
      <point x="220" y="410" type="qcurve"/>
      <point x="220" y="347"/>
      <point x="316" y="284"/>
      <point x="430" y="272" type="qcurve"/>
      <point x="476" y="325"/>
      <point x="520" y="427"/>
      <point x="520" y="482" type="qcurve"/>
      <point x="520" y="537"/>
      <point x="462" y="598"/>
    </contour>
  </outline>
</glyph>
<glyph name="colon" format="2">
  <advance width="614"/>
  <unicode hex="003A"/>
  <outline>
    <contour>
      <point x="447" y="420" type="qcurve"/>
      <point x="447" y="377"/>
      <point x="389" y="322"/>
      <point x="342" y="322" type="qcurve"/>
      <point x="304" y="322"/>
      <point x="263" y="352"/>
      <point x="263" y="381" type="qcurve"/>
      <point x="263" y="422"/>
      <point x="321" y="478"/>
      <point x="368" y="478" type="qcurve"/>
      <point x="407" y="478"/>
      <point x="447" y="448"/>
    </contour>
    <contour>
      <point x="351" y="83" type="qcurve"/>
      <point x="351" y="41"/>
      <point x="293" y="-15"/>
      <point x="246" y="-15" type="qcurve"/>
      <point x="208" y="-15"/>
      <point x="167" y="15"/>
      <point x="167" y="44" type="qcurve"/>
      <point x="167" y="85"/>
      <point x="226" y="141"/>
      <point x="272" y="141" type="qcurve"/>
      <point x="311" y="141"/>
      <point x="351" y="112"/>
    </contour>
  </outline>
</glyph>
<glyph name="equal" format="2">
  <advance width="614"/>
  <unicode hex="003D"/>
  <outline>
    <contour>
      <point x="573" y="390" type="line"/>
      <point x="131" y="390" type="line"/>
      <point x="151" y="461" type="line"/>
      <point x="593" y="461" type="line"/>
    </contour>
    <contour>
      <point x="517" y="194" type="line"/>
      <point x="75" y="194" type="line"/>
      <point x="95" y="266" type="line"/>
      <point x="537" y="266" type="line"/>
    </contour>
  </outline>
</glyph>
<glyph name="greater" format="2">
  <advance width="614"/>
  <unicode hex="003E"/>
  <outline>
    <contour>
      <point x="582" y="360" type="line"/>
      <point x="560" y="282" type="line"/>
      <point x="32" y="79" type="line"/>
      <point x="56" y="164" type="line"/>
      <point x="496" y="327" type="line"/>
      <point x="149" y="489" type="line"/>
      <point x="171" y="563" type="line"/>
    </contour>
  </outline>
</glyph>
<glyph name="at" format="2">
  <advance width="614"/>
  <unicode hex="0040"/>
  <outline>
    <contour>
      <point x="402" y="-14" type="qcurve"/>
      <point x="411" y="-61" type="line"/>
      <point x="360" y="-71"/>
      <point x="290" y="-79"/>
      <point x="257" y="-79" type="qcurve"/>
      <point x="150" y="-79"/>
      <point x="49" y="16"/>
      <point x="49" y="117" type="qcurve"/>
      <point x="49" y="240"/>
      <point x="166" y="564"/>
      <point x="242" y="640" type="qcurve"/>
      <point x="284" y="683"/>
      <point x="389" y="725"/>
      <point x="455" y="725" type="qcurve"/>
      <point x="554" y="725"/>
      <point x="635" y="655"/>
      <point x="635" y="574" type="qcurve"/>
      <point x="635" y="485"/>
      <point x="561" y="228"/>
      <point x="515" y="181" type="qcurve"/>
      <point x="487" y="154"/>
      <point x="422" y="129"/>
      <point x="378" y="129" type="qcurve"/>
      <point x="303" y="129"/>
      <point x="231" y="186"/>
      <point x="231" y="246" type="qcurve"/>
      <point x="231" y="301"/>
      <point x="275" y="422"/>
      <point x="309" y="456" type="qcurve"/>
      <point x="339" y="486"/>
      <point x="423" y="515"/>
      <point x="479" y="515" type="qcurve"/>
      <point x="579" y="515" type="line"/>
      <point x="582" y="544"/>
      <point x="583" y="561"/>
      <point x="583" y="567" type="qcurve"/>
      <point x="583" y="626"/>
      <point x="525" y="677"/>
      <point x="454" y="677" type="qcurve"/>
      <point x="397" y="677"/>
      <point x="311" y="641"/>
      <point x="271" y="601" type="qcurve"/>
      <point x="208" y="538"/>
      <point x="101" y="233"/>
      <point x="101" y="130" type="qcurve"/>
      <point x="101" y="47"/>
      <point x="183" y="-31"/>
      <point x="271" y="-31" type="qcurve"/>
      <point x="299" y="-31"/>
      <point x="365" y="-23"/>
    </contour>
    <contour>
      <point x="360" y="419" type="qcurve"/>
      <point x="335" y="394"/>
      <point x="299" y="296"/>
      <point x="299" y="254" type="qcurve"/>
      <point x="299" y="219"/>
      <point x="336" y="187"/>
      <point x="378" y="187" type="qcurve"/>
      <point x="411" y="187"/>
      <point x="459" y="205"/>
      <point x="478" y="225" type="qcurve"/>
      <point x="502" y="249"/>
      <point x="551" y="376"/>
      <point x="568" y="457" type="qcurve"/>
      <point x="458" y="457" type="line"/>
      <point x="428" y="457"/>
      <point x="379" y="438"/>
    </contour>
  </outline>
</glyph>
<glyph name="B" format="2">
  <advance width="614"/>
  <unicode hex="0042"/>
  <outline>
    <contour>
      <point x="28" y="0" type="line"/>
      <point x="216" y="655" type="line"/>
      <point x="451" y="655" type="line"/>
      <point x="534" y="655"/>
      <point x="624" y="588"/>
      <point x="624" y="527" type="qcurve"/>
      <point x="624" y="455"/>
      <point x="521" y="357"/>
      <point x="422" y="336" type="qcurve"/>
      <point x="422" y="332" type="line"/>
      <point x="485" y="319"/>
      <point x="552" y="248"/>
      <point x="552" y="195" type="qcurve"/>
      <point x="552" y="104"/>
      <point x="407" y="0"/>
      <point x="275" y="0" type="qcurve"/>
    </contour>
    <contour>
      <point x="530" y="510" type="qcurve"/>
      <point x="530" y="548"/>
      <point x="478" y="587"/>
      <point x="428" y="587" type="qcurve"/>
      <point x="281" y="587" type="line"/>
      <point x="218" y="366" type="line"/>
      <point x="325" y="372" type="line"/>
      <point x="420" y="376"/>
      <point x="530" y="452"/>
    </contour>
    <contour>
      <point x="464" y="200" type="qcurve"/>
      <point x="464" y="246"/>
      <point x="389" y="297"/>
      <point x="318" y="300" type="qcurve"/>
      <point x="201" y="305" type="line"/>
      <point x="133" y="68" type="line"/>
      <point x="293" y="68" type="line"/>
      <point x="371" y="68"/>
      <point x="464" y="142"/>
    </contour>
  </outline>
</glyph>
<glyph name="D" format="2">
  <advance width="614"/>
  <unicode hex="0044"/>
  <outline>
    <contour>
      <point x="26" y="0" type="line"/>
      <point x="214" y="655" type="line"/>
      <point x="305" y="655" type="line"/>
      <point x="390" y="655"/>
      <point x="513" y="618"/>
      <point x="549" y="582" type="qcurve"/>
      <point x="578" y="553"/>
      <point x="607" y="473"/>
      <point x="607" y="422" type="qcurve"/>
      <point x="607" y="337"/>
      <point x="548" y="189"/>
      <point x="491" y="131" type="qcurve"/>
      <point x="425" y="66"/>
      <point x="231" y="0"/>
      <point x="105" y="0" type="qcurve"/>
    </contour>
    <contour>
      <point x="517" y="424" type="qcurve"/>
      <point x="517" y="509"/>
      <point x="410" y="583"/>
      <point x="292" y="583" type="qcurve"/>
      <point x="280" y="583" type="line"/>
      <point x="133" y="72" type="line"/>
      <point x="304" y="74"/>
      <point x="517" y="272"/>
    </contour>
  </outline>
</glyph>
<glyph name="G" format="2">
  <advance width="614"/>
  <unicode hex="0047"/>
  <outline>
    <contour>
      <point x="629" y="654" type="qcurve"/>
      <point x="613" y="581" type="line"/>
      <point x="584" y="586"/>
      <point x="537" y="591"/>
      <point x="506" y="591" type="qcurve"/>
      <point x="425" y="591"/>
      <point x="292" y="537"/>
      <point x="246" y="488" type="qcurve"/>
      <point x="200" y="440"/>
      <point x="149" y="304"/>
      <point x="149" y="224" type="qcurve"/>
      <point x="149" y="139"/>
      <point x="234" y="57"/>
      <point x="323" y="57" type="qcurve"/>
      <point x="344" y="57"/>
      <point x="391" y="62"/>
      <point x="413" y="67" type="qcurve"/>
      <point x="481" y="283" type="line"/>
      <point x="326" y="283" type="line"/>
      <point x="345" y="353" type="line"/>
      <point x="585" y="353" type="line"/>
      <point x="478" y="8" type="line"/>
      <point x="436" y="-4"/>
      <point x="358" y="-15"/>
      <point x="313" y="-15" type="qcurve"/>
      <point x="187" y="-15"/>
      <point x="59" y="105"/>
      <point x="59" y="223" type="qcurve"/>
      <point x="59" y="316"/>
      <point x="125" y="482"/>
      <point x="187" y="543" type="qcurve"/>
      <point x="248" y="602"/>
      <point x="412" y="664"/>
      <point x="510" y="664" type="qcurve"/>
      <point x="541" y="664"/>
      <point x="596" y="659"/>
    </contour>
  </outline>
</glyph>
<glyph name="I" format="2">
  <advance width="614"/>
  <unicode hex="0049"/>
  <outline>
    <contour>
      <point x="65" y="0" type="line"/>
      <point x="78" y="43" type="line"/>
      <point x="211" y="68" type="line"/>
      <point x="372" y="590" type="line"/>
      <point x="239" y="612" type="line"/>
      <point x="251" y="655" type="line"/>
      <point x="604" y="655" type="line"/>
      <point x="591" y="612" type="line"/>
      <point x="458" y="587" type="line"/>
      <point x="297" y="65" type="line"/>
      <point x="429" y="43" type="line"/>
      <point x="417" y="0" type="line"/>
    </contour>
  </outline>
</glyph>
<glyph name="J" format="2">
  <advance width="614"/>
  <unicode hex="004A"/>
  <outline>
    <contour>
      <point x="271" y="-12" type="qcurve"/>
      <point x="202" y="-12"/>
      <point x="95" y="56"/>
      <point x="29" y="138" type="qcurve"/>
      <point x="90" y="192" type="line"/>
      <point x="146" y="122"/>
      <point x="225" y="64"/>
      <point x="272" y="64" type="qcurve"/>
      <point x="327" y="64"/>
      <point x="399" y="129"/>
      <point x="418" y="195" type="qcurve"/>
      <point x="550" y="655" type="line"/>
      <point x="637" y="655" type="line"/>
      <point x="503" y="188" type="line"/>
      <point x="474" y="85"/>
      <point x="360" y="-12"/>
    </contour>
  </outline>
</glyph>
<glyph name="K" format="2">
  <advance width="614"/>
  <unicode hex="004B"/>
  <outline>
    <contour>
      <point x="216" y="655" type="line"/>
      <point x="303" y="655" type="line"/>
      <point x="213" y="339" type="line"/>
      <point x="585" y="655" type="line"/>
      <point x="701" y="655" type="line"/>
      <point x="701" y="653" type="line"/>
      <point x="309" y="326" type="line"/>
      <point x="524" y="2" type="line"/>
      <point x="524" y="0" type="line"/>
      <point x="420" y="0" type="line"/>
      <point x="208" y="321" type="line"/>
      <point x="116" y="0" type="line"/>
      <point x="29" y="0" type="line"/>
    </contour>
  </outline>
</glyph>
<glyph name="L" format="2">
  <advance width="614"/>
  <unicode hex="004C"/>
  <outline>
    <contour>
      <point x="31" y="0" type="line"/>
      <point x="219" y="655" type="line"/>
      <point x="306" y="655" type="line"/>
      <point x="138" y="71" type="line"/>
      <point x="497" y="71" type="line"/>
      <point x="477" y="0" type="line"/>
    </contour>
  </outline>
</glyph>
<glyph name="M" format="2">
  <advance width="614"/>
  <unicode hex="004D"/>
  <outline>
    <contour>
      <point x="545" y="655" type="line"/>
      <point x="647" y="655" type="line"/>
      <point x="485" y="0" type="line"/>
      <point x="403" y="0" type="line"/>
      <point x="546" y="555" type="line"/>
      <point x="302" y="179" type="line"/>
      <point x="281" y="179" type="line"/>
      <point x="251" y="545" type="line"/>
      <point x="77" y="0" type="line"/>
      <point x="-4" y="0" type="line"/>
      <point x="211" y="655" type="line"/>
      <point x="304" y="655" type="line"/>
      <point x="331" y="328" type="line"/>
    </contour>
  </outline>
</glyph>
<glyph name="O" format="2">
  <advance width="614"/>
  <unicode hex="004F"/>
  <outline>
    <contour>
      <point x="82" y="365" type="qcurve"/>
      <point x="123" y="505"/>
      <point x="297" y="670"/>
      <point x="407" y="670" type="qcurve"/>
      <point x="506" y="670"/>
      <point x="611" y="558"/>
      <point x="611" y="453" type="qcurve"/>
      <point x="611" y="411"/>
      <point x="600" y="332"/>
      <point x="588" y="290" type="qcurve"/>
      <point x="547" y="150"/>
      <point x="373" y="-15"/>
      <point x="263" y="-15" type="qcurve"/>
      <point x="164" y="-15"/>
      <point x="59" y="97"/>
      <point x="59" y="202" type="qcurve"/>
      <point x="59" y="244"/>
      <point x="70" y="323"/>
    </contour>
    <contour>
      <point x="148" y="201" type="qcurve"/>
      <point x="148" y="131"/>
      <point x="210" y="57"/>
      <point x="268" y="57" type="qcurve"/>
      <point x="344" y="57"/>
      <point x="466" y="184"/>
      <point x="498" y="296" type="qcurve"/>
      <point x="510" y="337"/>
      <point x="522" y="418"/>
      <point x="522" y="454" type="qcurve"/>
      <point x="522" y="524"/>
      <point x="460" y="598"/>
      <point x="402" y="598" type="qcurve"/>
      <point x="326" y="598"/>
      <point x="204" y="471"/>
      <point x="172" y="359" type="qcurve"/>
      <point x="160" y="318"/>
      <point x="148" y="237"/>
    </contour>
  </outline>
</glyph>
<glyph name="P" format="2">
  <advance width="614"/>
  <unicode hex="0050"/>
  <outline>
    <contour>
      <point x="29" y="0" type="line"/>
      <point x="217" y="655" type="line"/>
      <point x="439" y="655" type="line"/>
      <point x="531" y="655"/>
      <point x="635" y="565"/>
      <point x="635" y="485" type="qcurve"/>
      <point x="635" y="434"/>
      <point x="599" y="344"/>
      <point x="565" y="309" type="qcurve"/>
      <point x="523" y="267"/>
      <point x="401" y="229"/>
      <point x="310" y="229" type="qcurve"/>
      <point x="182" y="229" type="line"/>
      <point x="116" y="0" type="line"/>
    </contour>
    <contour>
      <point x="541" y="486" type="qcurve"/>
      <point x="541" y="535"/>
      <point x="481" y="583"/>
      <point x="420" y="583" type="qcurve"/>
      <point x="283" y="583" type="line"/>
      <point x="202" y="300" type="line"/>
      <point x="318" y="300" type="line"/>
      <point x="424" y="300"/>
      <point x="541" y="398"/>
    </contour>
  </outline>
</glyph>
<glyph name="R" format="2">
  <advance width="614"/>
  <unicode hex="0052"/>
  <outline>
    <contour>
      <point x="423" y="164" type="qcurve"/>
      <point x="515" y="4" type="line"/>
      <point x="514" y="0" type="line"/>
      <point x="416" y="0" type="line"/>
      <point x="323" y="171" type="line"/>
      <point x="291" y="228"/>
      <point x="241" y="263"/>
      <point x="191" y="265" type="qcurve"/>
      <point x="115" y="0" type="line"/>
      <point x="29" y="0" type="line"/>
      <point x="216" y="655" type="line"/>
      <point x="438" y="655" type="line"/>
      <point x="524" y="655"/>
      <point x="619" y="579"/>
      <point x="619" y="511" type="qcurve"/>
      <point x="619" y="405"/>
      <point x="475" y="291"/>
      <point x="328" y="281" type="qcurve"/>
      <point x="328" y="276" type="line"/>
      <point x="358" y="256"/>
      <point x="398" y="209"/>
    </contour>
    <contour>
      <point x="527" y="505" type="qcurve"/>
      <point x="527" y="544"/>
      <point x="474" y="585"/>
      <point x="422" y="585" type="qcurve"/>
      <point x="283" y="585" type="line"/>
      <point x="210" y="331" type="line"/>
      <point x="290" y="335" type="line"/>
      <point x="409" y="341"/>
      <point x="527" y="425"/>
    </contour>
  </outline>
</glyph>
<glyph name="V" format="2">
  <advance width="614"/>
  <unicode hex="0056"/>
  <outline>
    <contour>
      <point x="188" y="0" type="line"/>
      <point x="162" y="655" type="line"/>
      <point x="246" y="655" type="line"/>
      <point x="265" y="98" type="line"/>
      <point x="603" y="655" type="line"/>
      <point x="695" y="655" type="line"/>
      <point x="293" y="0" type="line"/>
    </contour>
  </outline>
</glyph>
<glyph name="Z" format="2">
  <advance width="614"/>
  <unicode hex="005A"/>
  <outline>
    <contour>
      <point x="486" y="0" type="line"/>
      <point x="14" y="0" type="line"/>
      <point x="14" y="42" type="line"/>
      <point x="505" y="580" type="line"/>
      <point x="505" y="583" type="line"/>
      <point x="167" y="583" type="line"/>
      <point x="188" y="655" type="line"/>
      <point x="640" y="655" type="line"/>
      <point x="640" y="613" type="line"/>
      <point x="146" y="74" type="line"/>
      <point x="146" y="71" type="line"/>
      <point x="506" y="71" type="line"/>
    </contour>
  </outline>
</glyph>
<glyph name="bracketleft" format="2">
  <advance width="614"/>
  <unicode hex="005B"/>
  <outline>
    <contour>
      <point x="418" y="-135" type="line"/>
      <point x="84" y="-135" type="line"/>
      <point x="349" y="787" type="line"/>
      <point x="683" y="787" type="line"/>
      <point x="662" y="715" type="line"/>
      <point x="415" y="715" type="line"/>
      <point x="192" y="-63" type="line"/>
      <point x="439" y="-63" type="line"/>
    </contour>
  </outline>
</glyph>
<glyph name="g" format="2">
  <advance width="614"/>
  <unicode hex="0067"/>
  <outline>
    <contour>
      <point x="381" y="36" type="qcurve"/>
      <point x="401" y="105" type="line"/>
      <point x="350" y="58"/>
      <point x="260" y="16"/>
      <point x="211" y="16" type="qcurve"/>
      <point x="139" y="16"/>
      <point x="48" y="111"/>
      <point x="48" y="188" type="qcurve"/>
      <point x="48" y="312"/>
      <point x="239" y="475"/>
      <point x="389" y="475" type="qcurve"/>
      <point x="437" y="475"/>
      <point x="531" y="452"/>
      <point x="579" y="429" type="qcurve"/>
      <point x="466" y="31" type="line"/>
      <point x="442" y="-53"/>
      <point x="391" y="-147"/>
      <point x="356" y="-174" type="qcurve"/>
      <point x="321" y="-200"/>
      <point x="216" y="-227"/>
      <point x="128" y="-232" type="qcurve"/>
      <point x="10" y="-239" type="line"/>
      <point x="10" y="-166" type="line"/>
      <point x="126" y="-160" type="line"/>
      <point x="248" y="-154"/>
      <point x="348" y="-77"/>
    </contour>
    <contour>
      <point x="390" y="403" type="qcurve"/>
      <point x="277" y="403"/>
      <point x="138" y="283"/>
      <point x="138" y="196" type="qcurve"/>
      <point x="138" y="146"/>
      <point x="192" y="87"/>
      <point x="236" y="87" type="qcurve"/>
      <point x="280" y="87"/>
      <point x="363" y="133"/>
      <point x="425" y="189" type="qcurve"/>
      <point x="481" y="386" type="line"/>
      <point x="460" y="395"/>
      <point x="415" y="403"/>
    </contour>
  </outline>
</glyph>
<glyph name="h" format="2">
  <advance width="614"/>
  <unicode hex="0068"/>
  <outline>
    <contour>
      <point x="233" y="710" type="line"/>
      <point x="318" y="710" type="line"/>
      <point x="209" y="332" type="line"/>
      <point x="295" y="413"/>
      <point x="393" y="472"/>
      <point x="448" y="472" type="qcurve"/>
      <point x="498" y="472"/>
      <point x="556" y="420"/>
      <point x="556" y="376" type="qcurve"/>
      <point x="556" y="363"/>
      <point x="549" y="325"/>
      <point x="541" y="297" type="qcurve"/>
      <point x="455" y="0" type="line"/>
      <point x="369" y="0" type="line"/>
      <point x="454" y="294" type="line"/>
      <point x="459" y="311"/>
      <point x="464" y="337"/>
      <point x="464" y="349" type="qcurve"/>
      <point x="464" y="371"/>
      <point x="437" y="394"/>
      <point x="413" y="394" type="qcurve"/>
      <point x="374" y="394"/>
      <point x="279" y="325"/>
      <point x="180" y="230" type="qcurve"/>
      <point x="114" y="0" type="line"/>
      <point x="29" y="0" type="line"/>
    </contour>
  </outline>
</glyph>
<glyph name="m" format="2">
  <advance width="614"/>
  <unicode hex="006D"/>
  <outline>
    <contour>
      <point x="120" y="465" type="line"/>
      <point x="184" y="465" type="line"/>
      <point x="155" y="332" type="line"/>
      <point x="157" y="332" type="line"/>
      <point x="214" y="406"/>
      <point x="296" y="473"/>
      <point x="331" y="473" type="qcurve"/>
      <point x="360" y="473"/>
      <point x="393" y="443"/>
      <point x="393" y="416" type="qcurve"/>
      <point x="393" y="408"/>
      <point x="390" y="388"/>
      <point x="387" y="378" type="qcurve"/>
      <point x="373" y="330" type="line"/>
      <point x="375" y="330" type="line"/>
      <point x="432" y="406"/>
      <point x="511" y="473"/>
      <point x="547" y="473" type="qcurve"/>
      <point x="577" y="473"/>
      <point x="610" y="443"/>
      <point x="610" y="415" type="qcurve"/>
      <point x="610" y="406"/>
      <point x="607" y="386"/>
      <point x="604" y="374" type="qcurve"/>
      <point x="496" y="0" type="line"/>
      <point x="418" y="0" type="line"/>
      <point x="513" y="332" type="line"/>
      <point x="516" y="344"/>
      <point x="519" y="359"/>
      <point x="519" y="365" type="qcurve"/>
      <point x="519" y="377"/>
      <point x="507" y="389"/>
      <point x="494" y="389" type="qcurve"/>
      <point x="473" y="389"/>
      <point x="410" y="334"/>
      <point x="356" y="270" type="qcurve"/>
      <point x="279" y="0" type="line"/>
      <point x="204" y="0" type="line"/>
      <point x="298" y="332" type="line"/>
      <point x="302" y="343"/>
      <point x="305" y="359"/>
      <point x="305" y="365" type="qcurve"/>
      <point x="305" y="377"/>
      <point x="293" y="389"/>
      <point x="280" y="389" type="qcurve"/>
      <point x="259" y="389"/>
      <point x="196" y="334"/>
      <point x="141" y="270" type="qcurve"/>
      <point x="64" y="0" type="line"/>
      <point x="-14" y="0" type="line"/>
    </contour>
  </outline>
</glyph>
<glyph name="n" format="2">
  <advance width="614"/>
  <unicode hex="006E"/>
  <outline>
    <contour>
      <point x="162" y="465" type="line"/>
      <point x="242" y="465" type="line"/>
      <point x="205" y="328" type="line"/>
      <point x="293" y="412"/>
      <point x="392" y="472"/>
      <point x="448" y="472" type="qcurve"/>
      <point x="498" y="472"/>
      <point x="556" y="420"/>
      <point x="556" y="376" type="qcurve"/>
      <point x="556" y="363"/>
      <point x="549" y="325"/>
      <point x="541" y="297" type="qcurve"/>
      <point x="455" y="0" type="line"/>
      <point x="369" y="0" type="line"/>
      <point x="454" y="294" type="line"/>
      <point x="459" y="311"/>
      <point x="464" y="337"/>
      <point x="464" y="349" type="qcurve"/>
      <point x="464" y="371"/>
      <point x="437" y="394"/>
      <point x="413" y="394" type="qcurve"/>
      <point x="374" y="394"/>
      <point x="279" y="325"/>
      <point x="180" y="230" type="qcurve"/>
      <point x="114" y="0" type="line"/>
      <point x="29" y="0" type="line"/>
    </contour>
  </outline>
</glyph>
<glyph name="r" format="2">
  <advance width="614"/>
  <unicode hex="0072"/>
  <outline>
    <contour>
      <point x="-13" y="0" type="line"/>
      <point x="8" y="72" type="line"/>
      <point x="129" y="72" type="line"/>
      <point x="221" y="393" type="line"/>
      <point x="120" y="393" type="line"/>
      <point x="141" y="465" type="line"/>
      <point x="318" y="465" type="line"/>
      <point x="278" y="305" type="line"/>
      <point x="375" y="406"/>
      <point x="463" y="463"/>
      <point x="532" y="466" type="qcurve"/>
      <point x="600" y="469" type="line"/>
      <point x="595" y="381" type="line"/>
      <point x="515" y="377" type="line"/>
      <point x="462" y="373"/>
      <point x="409" y="353"/>
      <point x="375" y="326" type="qcurve"/>
      <point x="356" y="312"/>
      <point x="305" y="267"/>
      <point x="259" y="226" type="qcurve"/>
      <point x="215" y="72" type="line"/>
      <point x="364" y="72" type="line"/>
      <point x="343" y="0" type="line"/>
    </contour>
  </outline>
</glyph>
<glyph name="s" format="2">
  <advance width="614"/>
  <unicode hex="0073"/>
  <outline>
    <contour>
      <point x="493" y="127" type="qcurve"/>
      <point x="493" y="62"/>
      <point x="379" y="-11"/>
      <point x="274" y="-11" type="qcurve"/>
      <point x="215" y="-11"/>
      <point x="107" y="3"/>
      <point x="34" y="20" type="qcurve"/>
      <point x="54" y="93" type="line"/>
      <point x="115" y="77"/>
      <point x="227" y="60"/>
      <point x="277" y="60" type="qcurve"/>
      <point x="341" y="60"/>
      <point x="406" y="90"/>
      <point x="406" y="120" type="qcurve"/>
      <point x="406" y="143"/>
      <point x="377" y="170"/>
      <point x="335" y="188" type="qcurve"/>
      <point x="269" y="216" type="line"/>
      <point x="194" y="247"/>
      <point x="136" y="303"/>
      <point x="136" y="348" type="qcurve"/>
      <point x="136" y="410"/>
      <point x="243" y="475"/>
      <point x="348" y="475" type="qcurve"/>
      <point x="393" y="475"/>
      <point x="508" y="460"/>
      <point x="560" y="447" type="qcurve"/>
      <point x="539" y="376" type="line"/>
      <point x="486" y="390"/>
      <point x="388" y="405"/>
      <point x="346" y="405" type="qcurve"/>
      <point x="283" y="405"/>
      <point x="224" y="381"/>
      <point x="224" y="354" type="qcurve"/>
      <point x="224" y="333"/>
      <point x="249" y="309"/>
      <point x="294" y="289" type="qcurve"/>
      <point x="359" y="261" type="line"/>
      <point x="441" y="225"/>
      <point x="493" y="174"/>
    </contour>
  </outline>
</glyph>
<glyph name="t" format="2">
  <advance width="614"/>
  <unicode hex="0074"/>
  <outline>
    <contour>
      <point x="355" y="393" type="line"/>
      <point x="294" y="229" type="line"/>
      <point x="283" y="199"/>
      <point x="272" y="155"/>
      <point x="272" y="138" type="qcurve"/>
      <point x="272" y="107"/>
      <point x="311" y="76"/>
      <point x="352" y="74" type="qcurve"/>
      <point x="474" y="67" type="line"/>
      <point x="454" y="-7" type="line"/>
      <point x="348" y="-3" type="line"/>
      <point x="265" y="0"/>
      <point x="183" y="63"/>
      <point x="183" y="123" type="qcurve"/>
      <point x="183" y="144"/>
      <point x="197" y="200"/>
      <point x="211" y="239" type="qcurve"/>
      <point x="269" y="393" type="line"/>
      <point x="104" y="393" type="line"/>
      <point x="125" y="465" type="line"/>
      <point x="297" y="465" type="line"/>
      <point x="363" y="638" type="line"/>
      <point x="446" y="638" type="line"/>
      <point x="382" y="465" type="line"/>
      <point x="572" y="465" type="line"/>
      <point x="552" y="393" type="line"/>
    </contour>
  </outline>
</glyph>
<glyph name="v" format="2">
  <advance width="614"/>
  <unicode hex="0076"/>
  <outline>
    <contour>
      <point x="190" y="0" type="line"/>
      <point x="122" y="465" type="line"/>
      <point x="210" y="465" type="line"/>
      <point x="257" y="77" type="line"/>
      <point x="527" y="465" type="line"/>
      <point x="625" y="465" type="line"/>
      <point x="291" y="0" type="line"/>
    </contour>
  </outline>
</glyph>
<glyph name="w" format="2">
  <advance width="614"/>
  <unicode hex="0077"/>
  <outline>
    <contour>
      <point x="638" y="465" type="line"/>
      <point x="406" y="0" type="line"/>
      <point x="321" y="0" type="line"/>
      <point x="310" y="246" type="line"/>
      <point x="157" y="0" type="line"/>
      <point x="73" y="0" type="line"/>
      <point x="110" y="465" type="line"/>
      <point x="188" y="465" type="line"/>
      <point x="150" y="91" type="line"/>
      <point x="343" y="401" type="line"/>
      <point x="360" y="401" type="line"/>
      <point x="377" y="95" type="line"/>
      <point x="552" y="465" type="line"/>
    </contour>
  </outline>
</glyph>
<glyph name="x" format="2">
  <advance width="614"/>
  <unicode hex="0078"/>
  <outline>
    <contour>
      <point x="110" y="0" type="line"/>
      <point x="5" y="0" type="line"/>
      <point x="257" y="247" type="line"/>
      <point x="136" y="465" type="line"/>
      <point x="232" y="465" type="line"/>
      <point x="318" y="295" type="line"/>
      <point x="485" y="465" type="line"/>
      <point x="594" y="465" type="line"/>
      <point x="356" y="235" type="line"/>
      <point x="493" y="0" type="line"/>
      <point x="393" y="0" type="line"/>
      <point x="296" y="189" type="line"/>
    </contour>
  </outline>
</glyph>
<glyph name="braceleft" format="2">
  <advance width="614"/>
  <unicode hex="007B"/>
  <outline>
    <contour>
      <point x="124" y="-34" type="qcurve"/>
      <point x="124" y="-7"/>
      <point x="158" y="40"/>
      <point x="203" y="79" type="qcurve"/>
      <point x="265" y="134" type="line"/>
      <point x="299" y="164"/>
      <point x="316" y="184"/>
      <point x="316" y="196" type="qcurve"/>
      <point x="316" y="215"/>
      <point x="210" y="259"/>
      <point x="91" y="292" type="qcurve"/>
      <point x="114" y="370" type="line"/>
      <point x="163" y="382"/>
      <point x="239" y="403"/>
      <point x="269" y="411" type="qcurve"/>
      <point x="342" y="433"/>
      <point x="400" y="463"/>
      <point x="400" y="485" type="qcurve"/>
      <point x="400" y="492"/>
      <point x="391" y="514"/>
      <point x="381" y="532" type="qcurve"/>
      <point x="348" y="587" type="line"/>
      <point x="333" y="614"/>
      <point x="320" y="648"/>
      <point x="320" y="663" type="qcurve"/>
      <point x="320" y="707"/>
      <point x="385" y="758"/>
      <point x="450" y="767" type="qcurve"/>
      <point x="710" y="801" type="line"/>
      <point x="690" y="729" type="line"/>
      <point x="460" y="698" type="line"/>
      <point x="434" y="694"/>
      <point x="409" y="677"/>
      <point x="409" y="662" type="qcurve"/>
      <point x="409" y="653"/>
      <point x="417" y="632"/>
      <point x="426" y="618" type="qcurve"/>
      <point x="459" y="562" type="line"/>
      <point x="479" y="530"/>
      <point x="493" y="496"/>
      <point x="493" y="480" type="qcurve"/>
      <point x="493" y="444"/>
      <point x="427" y="399"/>
      <point x="352" y="375" type="qcurve"/>
      <point x="317" y="364"/>
      <point x="226" y="340"/>
      <point x="169" y="327" type="qcurve"/>
      <point x="169" y="324" type="line"/>
      <point x="214" y="312"/>
      <point x="281" y="292"/>
      <point x="306" y="283" type="qcurve"/>
      <point x="363" y="263"/>
      <point x="409" y="229"/>
      <point x="409" y="201" type="qcurve"/>
      <point x="409" y="179"/>
      <point x="373" y="135"/>
      <point x="326" y="95" type="qcurve"/>
      <point x="264" y="42" type="line"/>
      <point x="236" y="18"/>
      <point x="218" y="-4"/>
      <point x="218" y="-14" type="qcurve"/>
      <point x="218" y="-23"/>
      <point x="234" y="-35"/>
      <point x="249" y="-37" type="qcurve"/>
      <point x="461" y="-68" type="line"/>
      <point x="441" y="-139" type="line"/>
      <point x="221" y="-108" type="line"/>
      <point x="171" y="-101"/>
      <point x="124" y="-65"/>
    </contour>
  </outline>
</glyph>
<glyph name="bar" format="2">
  <advance width="614"/>
  <unicode hex="007C"/>
  <outline>
    <contour>
      <point x="417" y="755" type="line"/>
      <point x="497" y="755" type="line"/>
      <point x="252" y="-100" type="line"/>
      <point x="172" y="-100" type="line"/>
    </contour>
  </outline>
</glyph>
<glyph name="braceright" format="2">
  <advance width="614"/>
  <unicode hex="007D"/>
  <outline>
    <contour>
      <point x="355" y="-1" type="qcurve"/>
      <point x="355" y="-45"/>
      <point x="290" y="-96"/>
      <point x="225" y="-105" type="qcurve"/>
      <point x="-35" y="-139" type="line"/>
      <point x="-15" y="-67" type="line"/>
      <point x="215" y="-36" type="line"/>
      <point x="241" y="-32"/>
      <point x="266" y="-15"/>
      <point x="266" y="0" type="qcurve"/>
      <point x="266" y="9"/>
      <point x="258" y="30"/>
      <point x="249" y="44" type="qcurve"/>
      <point x="216" y="100" type="line"/>
      <point x="196" y="132"/>
      <point x="182" y="166"/>
      <point x="182" y="182" type="qcurve"/>
      <point x="182" y="218"/>
      <point x="248" y="263"/>
      <point x="323" y="287" type="qcurve"/>
      <point x="358" y="298"/>
      <point x="449" y="322"/>
      <point x="506" y="335" type="qcurve"/>
      <point x="506" y="338" type="line"/>
      <point x="461" y="350"/>
      <point x="394" y="370"/>
      <point x="369" y="379" type="qcurve"/>
      <point x="312" y="399"/>
      <point x="266" y="433"/>
      <point x="266" y="461" type="qcurve"/>
      <point x="266" y="483"/>
      <point x="302" y="527"/>
      <point x="349" y="567" type="qcurve"/>
      <point x="411" y="620" type="line"/>
      <point x="439" y="644"/>
      <point x="457" y="666"/>
      <point x="457" y="676" type="qcurve"/>
      <point x="457" y="686"/>
      <point x="442" y="697"/>
      <point x="426" y="699" type="qcurve"/>
      <point x="214" y="730" type="line"/>
      <point x="234" y="801" type="line"/>
      <point x="454" y="770" type="line"/>
      <point x="504" y="763"/>
      <point x="551" y="727"/>
      <point x="551" y="696" type="qcurve"/>
      <point x="551" y="669"/>
      <point x="518" y="622"/>
      <point x="473" y="583" type="qcurve"/>
      <point x="410" y="529" type="line"/>
      <point x="377" y="500"/>
      <point x="360" y="478"/>
      <point x="360" y="466" type="qcurve"/>
      <point x="360" y="447"/>
      <point x="465" y="404"/>
      <point x="584" y="370" type="qcurve"/>
      <point x="562" y="292" type="line"/>
      <point x="513" y="280"/>
      <point x="436" y="259"/>
      <point x="407" y="251" type="qcurve"/>
      <point x="333" y="229"/>
      <point x="275" y="199"/>
      <point x="275" y="177" type="qcurve"/>
      <point x="275" y="170"/>
      <point x="284" y="148"/>
      <point x="294" y="130" type="qcurve"/>
      <point x="327" y="75" type="line"/>
      <point x="342" y="48"/>
      <point x="355" y="14"/>
    </contour>
  </outline>
</glyph>
<glyph name="asciitilde" format="2">
  <advance width="614"/>
  <unicode hex="007E"/>
  <outline>
    <contour>
      <point x="226" y="441" type="qcurve"/>
      <point x="249" y="441"/>
      <point x="293" y="415"/>
      <point x="343" y="373" type="qcurve"/>
      <point x="388" y="335"/>
      <point x="423" y="310"/>
      <point x="435" y="310" type="qcurve"/>
      <point x="450" y="310"/>
      <point x="484" y="352"/>
      <point x="546" y="452" type="qcurve"/>
      <point x="610" y="413" type="line"/>
      <point x="546" y="304"/>
      <point x="475" y="226"/>
      <point x="433" y="226" type="qcurve"/>
      <point x="410" y="226"/>
      <point x="364" y="253"/>
      <point x="316" y="294" type="qcurve"/>
      <point x="269" y="334"/>
      <point x="236" y="357"/>
      <point x="224" y="357" type="qcurve"/>
      <point x="209" y="357"/>
      <point x="175" y="316"/>
      <point x="112" y="215" type="qcurve"/>
      <point x="48" y="254" type="line"/>
      <point x="113" y="363"/>
      <point x="184" y="441"/>
    </contour>
  </outline>
</glyph>
<glyph name="exclamdown" format="2">
  <advance width="614"/>
  <unicode hex="00A1"/>
  <outline>
    <contour>
      <point x="516" y="675" type="qcurve"/>
      <point x="516" y="639"/>
      <point x="465" y="596"/>
      <point x="421" y="596" type="qcurve"/>
      <point x="386" y="596"/>
      <point x="349" y="622"/>
      <point x="349" y="646" type="qcurve"/>
      <point x="349" y="682"/>
      <point x="399" y="725"/>
      <point x="443" y="725" type="qcurve"/>
      <point x="478" y="725"/>
      <point x="516" y="699"/>
    </contour>
    <contour>
      <point x="348" y="468" type="line"/>
      <point x="402" y="468" type="line"/>
      <point x="322" y="0" type="line"/>
      <point x="158" y="0" type="line"/>
    </contour>
  </outline>
</glyph>
<glyph name="sterling" format="2">
  <advance width="614"/>
  <unicode hex="00A3"/>
  <outline>
    <contour>
      <point x="488" y="0" type="line"/>
      <point x="9" y="0" type="line"/>
      <point x="9" y="47" type="line"/>
      <point x="111" y="124"/>
      <point x="219" y="220"/>
      <point x="237" y="249" type="qcurve"/>
      <point x="87" y="249" type="line"/>
      <point x="104" y="305" type="line"/>
      <point x="248" y="305" type="line"/>
      <point x="245" y="314"/>
      <point x="235" y="335"/>
      <point x="220" y="356" type="qcurve"/>
      <point x="193" y="396"/>
      <point x="175" y="450"/>
      <point x="175" y="481" type="qcurve"/>
      <point x="175" y="561"/>
      <point x="309" y="670"/>
      <point x="416" y="670" type="qcurve"/>
      <point x="491" y="670"/>
      <point x="594" y="615"/>
      <point x="642" y="547" type="qcurve"/>
      <point x="579" y="496" type="line"/>
      <point x="542" y="552"/>
      <point x="466" y="598"/>
      <point x="412" y="598" type="qcurve"/>
      <point x="347" y="598"/>
      <point x="264" y="530"/>
      <point x="264" y="481" type="qcurve"/>
      <point x="264" y="462"/>
      <point x="277" y="425"/>
      <point x="297" y="390" type="qcurve"/>
      <point x="315" y="359"/>
      <point x="328" y="325"/>
      <point x="329" y="309" type="qcurve"/>
      <point x="532" y="309" type="line"/>
      <point x="517" y="252" type="line"/>
      <point x="321" y="252" type="line"/>
      <point x="309" y="221"/>
      <point x="225" y="139"/>
      <point x="137" y="72" type="qcurve"/>
      <point x="509" y="72" type="line"/>
    </contour>
  </outline>
</glyph>
<glyph name="yen" format="2">
  <advance width="614"/>
  <unicode hex="00A5"/>
  <outline>
    <contour>
      <point x="239" y="135" type="line"/>
      <point x="55" y="135" type="line"/>
      <point x="70" y="192" type="line"/>
      <point x="255" y="192" type="line"/>
      <point x="279" y="277" type="line"/>
      <point x="95" y="277" type="line"/>
      <point x="111" y="333" type="line"/>
      <point x="278" y="333" type="line"/>
      <point x="162" y="655" type="line"/>
      <point x="252" y="655" type="line"/>
      <point x="339" y="372" type="line"/>
      <point x="592" y="655" type="line"/>
      <point x="695" y="655" type="line"/>
      <point x="393" y="333" type="line"/>
      <point x="559" y="333" type="line"/>
      <point x="543" y="277" type="line"/>
      <point x="359" y="277" type="line"/>
      <point x="334" y="192" type="line"/>
      <point x="519" y="192" type="line"/>
      <point x="503" y="135" type="line"/>
      <point x="318" y="135" type="line"/>
      <point x="279" y="0" type="line"/>
      <point x="200" y="0" type="line"/>
    </contour>
  </outline>
</glyph>
<glyph name="copyright" format="2">
  <advance width="614"/>
  <unicode hex="00A9"/>
  <outline>
    <contour>
      <point x="623" y="546" type="qcurve"/>
      <point x="623" y="501"/>
      <point x="602" y="384"/>
      <point x="581" y="310" type="qcurve"/>
      <point x="525" y="115"/>
      <point x="357" y="-70"/>
      <point x="232" y="-70" type="qcurve"/>
      <point x="137" y="-70"/>
      <point x="47" y="18"/>
      <point x="47" y="111" type="qcurve"/>
      <point x="47" y="157"/>
      <point x="68" y="275"/>
      <point x="88" y="346" type="qcurve"/>
      <point x="144" y="541"/>
      <point x="312" y="725"/>
      <point x="436" y="725" type="qcurve"/>
      <point x="533" y="725"/>
      <point x="623" y="638"/>
    </contour>
    <contour>
      <point x="433" y="680" type="qcurve"/>
      <point x="327" y="680"/>
      <point x="187" y="512"/>
      <point x="134" y="328" type="qcurve"/>
      <point x="114" y="260"/>
      <point x="95" y="153"/>
      <point x="95" y="111" type="qcurve"/>
      <point x="95" y="41"/>
      <point x="162" y="-25"/>
      <point x="235" y="-25" type="qcurve"/>
      <point x="341" y="-25"/>
      <point x="482" y="143"/>
      <point x="535" y="328" type="qcurve"/>
      <point x="555" y="397"/>
      <point x="574" y="505"/>
      <point x="574" y="547" type="qcurve"/>
      <point x="574" y="615"/>
      <point x="506" y="680"/>
    </contour>
    <contour>
      <point x="282" y="97" type="qcurve"/>
      <point x="235" y="97"/>
      <point x="188" y="156"/>
      <point x="188" y="214" type="qcurve"/>
      <point x="188" y="264"/>
      <point x="216" y="374"/>
      <point x="241" y="423" type="qcurve"/>
      <point x="273" y="487"/>
      <point x="356" y="558"/>
      <point x="398" y="558" type="qcurve"/>
      <point x="437" y="558"/>
      <point x="484" y="519"/>
      <point x="506" y="470" type="qcurve"/>
      <point x="457" y="444" type="line"/>
      <point x="438" y="480"/>
      <point x="413" y="504"/>
      <point x="393" y="504" type="qcurve"/>
      <point x="369" y="504"/>
      <point x="318" y="447"/>
      <point x="297" y="404" type="qcurve"/>
      <point x="276" y="362"/>
      <point x="250" y="262"/>
      <point x="250" y="218" type="qcurve"/>
      <point x="250" y="185"/>
      <point x="271" y="151"/>
      <point x="291" y="151" type="qcurve"/>
      <point x="312" y="151"/>
      <point x="354" y="179"/>
      <point x="385" y="212" type="qcurve"/>
      <point x="424" y="177" type="line"/>
      <point x="383" y="134"/>
      <point x="320" y="97"/>
    </contour>
  </outline>
</glyph>
<glyph name="ordfeminine" format="2">
  <advance width="614"/>
  <unicode hex="00AA"/>
  <outline>
    <contour>
      <point x="551" y="571" type="qcurve"/>
      <point x="503" y="426" type="line"/>
      <point x="500" y="417"/>
      <point x="498" y="405"/>
      <point x="498" y="400" type="qcurve"/>
      <point x="498" y="392"/>
      <point x="508" y="384"/>
      <point x="523" y="381" type="qcurve"/>
      <point x="554" y="376" type="line"/>
      <point x="539" y="326" type="line"/>
      <point x="499" y="330" type="line"/>
      <point x="469" y="333"/>
      <point x="435" y="356"/>
      <point x="429" y="379" type="qcurve"/>
      <point x="425" y="379" type="line"/>
      <point x="377" y="350"/>
      <point x="296" y="325"/>
      <point x="250" y="325" type="qcurve"/>
      <point x="206" y="325"/>
      <point x="160" y="363"/>
      <point x="160" y="398" type="qcurve"/>
      <point x="160" y="426"/>
      <point x="179" y="478"/>
      <point x="196" y="494" type="qcurve"/>
      <point x="216" y="514"/>
      <point x="289" y="534"/>
      <point x="363" y="540" type="qcurve"/>
      <point x="476" y="550" type="line"/>
      <point x="485" y="579"/>
      <point x="488" y="595"/>
      <point x="488" y="599" type="qcurve"/>
      <point x="488" y="617"/>
      <point x="445" y="634"/>
      <point x="399" y="634" type="qcurve"/>
      <point x="369" y="634"/>
      <point x="291" y="627"/>
      <point x="249" y="620" type="qcurve"/>
      <point x="265" y="680" type="line"/>
      <point x="312" y="686"/>
      <point x="384" y="692"/>
      <point x="418" y="692" type="qcurve"/>
      <point x="489" y="692"/>
      <point x="559" y="654"/>
      <point x="559" y="615" type="qcurve"/>
      <point x="559" y="604"/>
      <point x="555" y="583"/>
    </contour>
    <contour>
      <point x="231" y="413" type="qcurve"/>
      <point x="231" y="396"/>
      <point x="254" y="381"/>
      <point x="278" y="381" type="qcurve"/>
      <point x="317" y="381"/>
      <point x="401" y="407"/>
      <point x="439" y="432" type="qcurve"/>
      <point x="461" y="501" type="line"/>
      <point x="372" y="493" type="line"/>
      <point x="310" y="488"/>
      <point x="262" y="477"/>
      <point x="253" y="467" type="qcurve"/>
      <point x="243" y="457"/>
      <point x="231" y="427"/>
    </contour>
    <contour>
      <point x="108" y="179" type="line"/>
      <point x="125" y="236" type="line"/>
      <point x="506" y="236" type="line"/>
      <point x="490" y="179" type="line"/>
    </contour>
  </outline>
</glyph>
<glyph name="degree" format="2">
  <advance width="614"/>
  <unicode hex="00B0"/>
  <outline>
    <contour>
      <point x="595" y="530" type="qcurve"/>
      <point x="595" y="432"/>
      <point x="455" y="290"/>
      <point x="355" y="290" type="qcurve"/>
      <point x="270" y="290"/>
      <point x="168" y="379"/>
      <point x="168" y="453" type="qcurve"/>
      <point x="168" y="551"/>
      <point x="307" y="692"/>
      <point x="408" y="692" type="qcurve"/>
      <point x="493" y="692"/>
      <point x="595" y="603"/>
    </contour>
    <contour>
      <point x="523" y="528" type="qcurve"/>
      <point x="523" y="575"/>
      <point x="461" y="631"/>
      <point x="410" y="631" type="qcurve"/>
      <point x="341" y="631"/>
      <point x="240" y="525"/>
      <point x="240" y="454" type="qcurve"/>
      <point x="240" y="407"/>
      <point x="302" y="351"/>
      <point x="353" y="351" type="qcurve"/>
      <point x="422" y="351"/>
      <point x="523" y="457"/>
    </contour>
  </outline>
</glyph>
<glyph name="mu" format="2">
  <advance width="614"/>
  <unicode hex="00B5"/>
  <outline>
    <contour>
      <point x="181" y="-8" type="qcurve"/>
      <point x="156" y="-8"/>
      <point x="117" y="13"/>
      <point x="106" y="33" type="qcurve"/>
      <point x="52" y="-215" type="line"/>
      <point x="48" y="-230" type="line"/>
      <point x="-40" y="-230" type="line"/>
      <point x="159" y="465" type="line"/>
      <point x="245" y="465" type="line"/>
      <point x="156" y="156" type="line"/>
      <point x="153" y="145"/>
      <point x="150" y="127"/>
      <point x="150" y="118" type="qcurve"/>
      <point x="150" y="94"/>
      <point x="179" y="71"/>
      <point x="208" y="71" type="qcurve"/>
      <point x="243" y="71"/>
      <point x="329" y="136"/>
      <point x="435" y="237" type="qcurve"/>
      <point x="500" y="465" type="line"/>
      <point x="586" y="465" type="line"/>
      <point x="452" y="0" type="line"/>
      <point x="372" y="0" type="line"/>
      <point x="408" y="135" type="line"/>
      <point x="317" y="48"/>
      <point x="229" y="-8"/>
    </contour>
  </outline>
</glyph>
<glyph name="ordmasculine" format="2">
  <advance width="614"/>
  <unicode hex="00BA"/>
  <outline>
    <contour>
      <point x="189" y="471" type="qcurve"/>
      <point x="189" y="564"/>
      <point x="322" y="692"/>
      <point x="419" y="692" type="qcurve"/>
      <point x="492" y="692"/>
      <point x="583" y="611"/>
      <point x="583" y="544" type="qcurve"/>
      <point x="583" y="451"/>
      <point x="449" y="323"/>
      <point x="353" y="323" type="qcurve"/>
      <point x="280" y="323"/>
      <point x="189" y="404"/>
    </contour>
    <contour>
      <point x="259" y="474" type="qcurve"/>
      <point x="259" y="433"/>
      <point x="313" y="382"/>
      <point x="358" y="382" type="qcurve"/>
      <point x="421" y="382"/>
      <point x="513" y="475"/>
      <point x="513" y="541" type="qcurve"/>
      <point x="513" y="582"/>
      <point x="460" y="632"/>
      <point x="414" y="632" type="qcurve"/>
      <point x="351" y="632"/>
      <point x="259" y="539"/>
    </contour>
    <contour>
      <point x="111" y="179" type="line"/>
      <point x="127" y="236" type="line"/>
      <point x="495" y="236" type="line"/>
      <point x="479" y="179" type="line"/>
    </contour>
  </outline>
</glyph>
<glyph name="guillemetright" format="2">
  <advance width="614"/>
  <unicode hex="00BB"/>
  <outline>
    <contour>
      <point x="562" y="266" type="line"/>
      <point x="542" y="195" type="line"/>
      <point x="248" y="-15" type="line"/>
      <point x="275" y="78" type="line"/>
      <point x="477" y="239" type="line"/>
      <point x="369" y="406" type="line"/>
      <point x="390" y="478" type="line"/>
    </contour>
    <contour>
      <point x="321" y="286" type="line"/>
      <point x="301" y="215" type="line"/>
      <point x="6" y="-15" type="line"/>
      <point x="33" y="78" type="line"/>
      <point x="235" y="257" type="line"/>
      <point x="127" y="406" type="line"/>
      <point x="148" y="478" type="line"/>
    </contour>
  </outline>
</glyph>
<glyph name="AE" format="2">
  <advance width="614"/>
  <unicode hex="00C6"/>
  <outline>
    <contour>
      <point x="123" y="182" type="line"/>
      <point x="12" y="0" type="line"/>
      <point x="-73" y="0" type="line"/>
      <point x="338" y="655" type="line"/>
      <point x="707" y="655" type="line"/>
      <point x="687" y="585" type="line"/>
      <point x="483" y="585" type="line"/>
      <point x="420" y="365" type="line"/>
      <point x="600" y="365" type="line"/>
      <point x="581" y="297" type="line"/>
      <point x="400" y="297" type="line"/>
      <point x="335" y="70" type="line"/>
      <point x="539" y="70" type="line"/>
      <point x="519" y="0" type="line"/>
      <point x="231" y="0" type="line"/>
      <point x="283" y="182" type="line"/>
    </contour>
    <contour>
      <point x="370" y="585" type="line"/>
      <point x="164" y="249" type="line"/>
      <point x="302" y="249" type="line"/>
      <point x="399" y="585" type="line"/>
    </contour>
  </outline>
</glyph>
<glyph name="Eth" format="2">
  <advance width="614"/>
  <unicode hex="00D0"/>
  <outline>
    <contour>
      <point x="134" y="303" type="line"/>
      <point x="50" y="303" type="line"/>
      <point x="66" y="357" type="line"/>
      <point x="149" y="357" type="line"/>
      <point x="235" y="655" type="line"/>
      <point x="320" y="655" type="line"/>
      <point x="401" y="655"/>
      <point x="513" y="620"/>
      <point x="550" y="583" type="qcurve"/>
      <point x="579" y="554"/>
      <point x="608" y="473"/>
      <point x="608" y="422" type="qcurve"/>
      <point x="608" y="336"/>
      <point x="548" y="188"/>
      <point x="491" y="131" type="qcurve"/>
      <point x="426" y="66"/>
      <point x="243" y="0"/>
      <point x="126" y="0" type="qcurve"/>
      <point x="47" y="0" type="line"/>
    </contour>
    <contour>
      <point x="358" y="357" type="line"/>
      <point x="342" y="303" type="line"/>
      <point x="220" y="303" type="line"/>
      <point x="154" y="72" type="line"/>
      <point x="316" y="74"/>
      <point x="518" y="273"/>
      <point x="518" y="424" type="qcurve"/>
      <point x="518" y="504"/>
      <point x="427" y="583"/>
      <point x="335" y="583" type="qcurve"/>
      <point x="301" y="583" type="line"/>
      <point x="236" y="357" type="line"/>
    </contour>
  </outline>
</glyph>
<glyph name="Thorn" format="2">
  <advance width="614"/>
  <unicode hex="00DE"/>
  <outline>
    <contour>
      <point x="29" y="0" type="line"/>
      <point x="217" y="655" type="line"/>
      <point x="304" y="655" type="line"/>
      <point x="262" y="507" type="line"/>
      <point x="421" y="507" type="line"/>
      <point x="508" y="507"/>
      <point x="604" y="429"/>
      <point x="604" y="360" type="qcurve"/>
      <point x="604" y="318"/>
      <point x="575" y="245"/>
      <point x="548" y="219" type="qcurve"/>
      <point x="512" y="182"/>
      <point x="401" y="148"/>
      <point x="315" y="148" type="qcurve"/>
      <point x="158" y="148" type="line"/>
      <point x="116" y="0" type="line"/>
    </contour>
    <contour>
      <point x="514" y="357" type="qcurve"/>
      <point x="514" y="395"/>
      <point x="461" y="434"/>
      <point x="409" y="434" type="qcurve"/>
      <point x="241" y="434" type="line"/>
      <point x="179" y="219" type="line"/>
      <point x="336" y="219" type="line"/>
      <point x="419" y="219"/>
      <point x="514" y="295"/>
    </contour>
  </outline>
</glyph>
<glyph name="ae" format="2">
  <advance width="614"/>
  <unicode hex="00E6"/>
  <outline>
    <contour>
      <point x="334" y="210" type="qcurve"/>
      <point x="330" y="195"/>
      <point x="327" y="165"/>
      <point x="327" y="150" type="qcurve"/>
      <point x="327" y="98"/>
      <point x="390" y="59"/>
      <point x="476" y="59" type="qcurve"/>
      <point x="455" y="-5" type="line"/>
      <point x="372" y="-5"/>
      <point x="282" y="24"/>
      <point x="263" y="57" type="qcurve"/>
      <point x="257" y="57" type="line"/>
      <point x="203" y="22"/>
      <point x="137" y="-5"/>
      <point x="99" y="-5" type="qcurve"/>
      <point x="46" y="-5"/>
      <point x="-8" y="44"/>
      <point x="-8" y="92" type="qcurve"/>
      <point x="-8" y="127"/>
      <point x="14" y="187"/>
      <point x="35" y="208" type="qcurve"/>
      <point x="60" y="233"/>
      <point x="161" y="257"/>
      <point x="269" y="264" type="qcurve"/>
      <point x="283" y="316"/>
      <point x="293" y="356"/>
      <point x="293" y="365" type="qcurve"/>
      <point x="293" y="389"/>
      <point x="269" y="410"/>
      <point x="243" y="410" type="qcurve"/>
      <point x="217" y="410"/>
      <point x="158" y="403"/>
      <point x="108" y="394" type="qcurve"/>
      <point x="129" y="461" type="line"/>
      <point x="163" y="468"/>
      <point x="227" y="475"/>
      <point x="256" y="475" type="qcurve"/>
      <point x="311" y="475"/>
      <point x="360" y="443"/>
      <point x="365" y="404" type="qcurve"/>
      <point x="396" y="438"/>
      <point x="467" y="475"/>
      <point x="503" y="475" type="qcurve"/>
      <point x="553" y="475"/>
      <point x="609" y="423"/>
      <point x="609" y="376" type="qcurve"/>
      <point x="609" y="297"/>
      <point x="478" y="223"/>
    </contour>
    <contour>
      <point x="527" y="367" type="qcurve"/>
      <point x="527" y="388"/>
      <point x="505" y="409"/>
      <point x="483" y="409" type="qcurve"/>
      <point x="448" y="409"/>
      <point x="374" y="327"/>
      <point x="350" y="263" type="qcurve"/>
      <point x="439" y="273"/>
      <point x="527" y="324"/>
    </contour>
    <contour>
      <point x="73" y="104" type="qcurve"/>
      <point x="73" y="80"/>
      <point x="98" y="60"/>
      <point x="127" y="60" type="qcurve"/>
      <point x="149" y="60"/>
      <point x="204" y="83"/>
      <point x="246" y="110" type="qcurve"/>
      <point x="245" y="124"/>
      <point x="244" y="141"/>
      <point x="244" y="149" type="qcurve"/>
      <point x="244" y="162"/>
      <point x="248" y="190"/>
      <point x="253" y="209" type="qcurve"/>
      <point x="182" y="202"/>
      <point x="114" y="186"/>
      <point x="97" y="169" type="qcurve"/>
      <point x="85" y="158"/>
      <point x="73" y="125"/>
    </contour>
  </outline>
</glyph>
<glyph name="Hbar" format="2">
  <advance width="614"/>
  <unicode hex="0126"/>
  <outline>
    <contour>
      <point x="182" y="473" type="line"/>
      <point x="99" y="473" type="line"/>
      <point x="114" y="526" type="line"/>
      <point x="197" y="526" type="line"/>
      <point x="234" y="655" type="line"/>
      <point x="320" y="655" type="line"/>
      <point x="282" y="524" type="line"/>
      <point x="499" y="524" type="line"/>
      <point x="537" y="655" type="line"/>
      <point x="622" y="655" type="line"/>
      <point x="585" y="526" type="line"/>
      <point x="668" y="526" type="line"/>
      <point x="653" y="473" type="line"/>
      <point x="570" y="473" type="line"/>
      <point x="434" y="0" type="line"/>
      <point x="349" y="0" type="line"/>
      <point x="425" y="266" type="line"/>
      <point x="208" y="266" type="line"/>
      <point x="132" y="0" type="line"/>
      <point x="47" y="0" type="line"/>
    </contour>
    <contour>
      <point x="268" y="474" type="line"/>
      <point x="228" y="336" type="line"/>
      <point x="445" y="336" type="line"/>
      <point x="485" y="474" type="line"/>
    </contour>
  </outline>
</glyph>
<glyph name="Eng" format="2">
  <advance width="614"/>
  <unicode hex="014A"/>
  <outline>
    <contour>
      <point x="258" y="555" type="line"/>
      <point x="104" y="0" type="line"/>
      <point x="23" y="0" type="line"/>
      <point x="211" y="655" type="line"/>
      <point x="316" y="655" type="line"/>
      <point x="413" y="111" type="line"/>
      <point x="565" y="655" type="line"/>
      <point x="646" y="655" type="line"/>
      <point x="444" y="-49" type="line"/>
      <point x="417" y="-143"/>
      <point x="315" y="-223"/>
      <point x="213" y="-230" type="qcurve"/>
      <point x="89" y="-238" type="line"/>
      <point x="89" y="-169" type="line"/>
      <point x="222" y="-160" type="line"/>
      <point x="283" y="-155"/>
      <point x="349" y="-106"/>
      <point x="367" y="-53" type="qcurve"/>
    </contour>
  </outline>
</glyph>
<glyph name="eng" format="2">
  <advance width="614"/>
  <unicode hex="014B"/>
  <outline>
    <contour>
      <point x="541" y="297" type="qcurve"/>
      <point x="460" y="17" type="line"/>
      <point x="436" y="-65"/>
      <point x="393" y="-150"/>
      <point x="364" y="-175" type="qcurve"/>
      <point x="334" y="-201"/>
      <point x="239" y="-228"/>
      <point x="158" y="-233" type="qcurve"/>
      <point x="88" y="-238" type="line"/>
      <point x="88" y="-164" type="line"/>
      <point x="158" y="-160" type="line"/>
      <point x="209" y="-157"/>
      <point x="279" y="-140"/>
      <point x="304" y="-119" type="qcurve"/>
      <point x="328" y="-99"/>
      <point x="362" y="-29"/>
      <point x="377" y="26" type="qcurve"/>
      <point x="454" y="294" type="line"/>
      <point x="459" y="311"/>
      <point x="464" y="337"/>
      <point x="464" y="349" type="qcurve"/>
      <point x="464" y="371"/>
      <point x="437" y="394"/>
      <point x="413" y="394" type="qcurve"/>
      <point x="374" y="394"/>
      <point x="279" y="325"/>
      <point x="180" y="230" type="qcurve"/>
      <point x="114" y="0" type="line"/>
      <point x="29" y="0" type="line"/>
      <point x="162" y="465" type="line"/>
      <point x="242" y="465" type="line"/>
      <point x="205" y="328" type="line"/>
      <point x="293" y="412"/>
      <point x="392" y="472"/>
      <point x="448" y="472" type="qcurve"/>
      <point x="498" y="472"/>
      <point x="556" y="420"/>
      <point x="556" y="376" type="qcurve"/>
      <point x="556" y="361"/>
      <point x="549" y="322"/>
    </contour>
  </outline>
</glyph>
<glyph name="OE" format="2">
  <advance width="614"/>
  <unicode hex="0152"/>
  <outline>
    <contour>
      <point x="521" y="0" type="line"/>
      <point x="230" y="0" type="line"/>
      <point x="130" y="0"/>
      <point x="29" y="96"/>
      <point x="29" y="190" type="qcurve"/>
      <point x="29" y="282"/>
      <point x="107" y="502"/>
      <point x="163" y="558" type="qcurve"/>
      <point x="216" y="611"/>
      <point x="342" y="655"/>
      <point x="443" y="655" type="qcurve"/>
      <point x="709" y="655" type="line"/>
      <point x="688" y="585" type="line"/>
      <point x="485" y="585" type="line"/>
      <point x="422" y="365" type="line"/>
      <point x="601" y="365" type="line"/>
      <point x="582" y="297" type="line"/>
      <point x="402" y="297" type="line"/>
      <point x="337" y="70" type="line"/>
      <point x="541" y="70" type="line"/>
    </contour>
    <contour>
      <point x="234" y="517" type="qcurve"/>
      <point x="185" y="468"/>
      <point x="115" y="271"/>
      <point x="115" y="192" type="qcurve"/>
      <point x="115" y="126"/>
      <point x="175" y="67"/>
      <point x="242" y="67" type="qcurve"/>
      <point x="252" y="67" type="line"/>
      <point x="402" y="588" type="line"/>
      <point x="349" y="586"/>
      <point x="269" y="552"/>
    </contour>
  </outline>
</glyph>
<glyph name="tcedilla" format="2">
  <advance width="614"/>
  <unicode hex="0163"/>
  <outline>
    <contour>
      <point x="168" y="-97" type="line"/>
      <point x="242" y="20" type="line"/>
      <point x="213" y="35"/>
      <point x="183" y="87"/>
      <point x="183" y="123" type="qcurve"/>
      <point x="183" y="144"/>
      <point x="197" y="200"/>
      <point x="211" y="239" type="qcurve"/>
      <point x="269" y="393" type="line"/>
      <point x="104" y="393" type="line"/>
      <point x="125" y="465" type="line"/>
      <point x="297" y="465" type="line"/>
      <point x="363" y="638" type="line"/>
      <point x="446" y="638" type="line"/>
      <point x="382" y="465" type="line"/>
      <point x="572" y="465" type="line"/>
      <point x="552" y="393" type="line"/>
      <point x="355" y="393" type="line"/>
      <point x="294" y="229" type="line"/>
      <point x="283" y="199"/>
      <point x="272" y="155"/>
      <point x="272" y="138" type="qcurve"/>
      <point x="272" y="107"/>
      <point x="311" y="76"/>
      <point x="352" y="74" type="qcurve"/>
      <point x="474" y="67" type="line"/>
      <point x="454" y="-7" type="line"/>
      <point x="348" y="-3" type="line"/>
      <point x="331" y="-2"/>
      <point x="298" y="2"/>
      <point x="282" y="5" type="qcurve"/>
      <point x="243" y="-60" type="line"/>
      <point x="315" y="-71"/>
      <point x="373" y="-107"/>
      <point x="373" y="-143" type="qcurve"/>
      <point x="373" y="-186"/>
      <point x="318" y="-227"/>
      <point x="253" y="-242" type="qcurve"/>
      <point x="221" y="-249"/>
      <point x="136" y="-260"/>
      <point x="82" y="-265" type="qcurve"/>
      <point x="82" y="-211" type="line"/>
      <point x="120" y="-208"/>
      <point x="179" y="-201"/>
      <point x="201" y="-198" type="qcurve"/>
      <point x="256" y="-190"/>
      <point x="300" y="-170"/>
      <point x="300" y="-150" type="qcurve"/>
      <point x="300" y="-132"/>
      <point x="244" y="-114"/>
      <point x="171" y="-107" type="qcurve"/>
    </contour>
  </outline>
</glyph>
<glyph name="Tbar" format="2">
  <advance width="614"/>
  <unicode hex="0166"/>
  <outline>
    <contour>
      <point x="278" y="294" type="line"/>
      <point x="134" y="294" type="line"/>
      <point x="149" y="348" type="line"/>
      <point x="294" y="348" type="line"/>
      <point x="361" y="583" type="line"/>
      <point x="148" y="583" type="line"/>
      <point x="169" y="655" type="line"/>
      <point x="681" y="655" type="line"/>
      <point x="660" y="583" type="line"/>
      <point x="448" y="583" type="line"/>
      <point x="381" y="348" type="line"/>
      <point x="528" y="348" type="line"/>
      <point x="513" y="294" type="line"/>
      <point x="365" y="294" type="line"/>
      <point x="281" y="0" type="line"/>
      <point x="194" y="0" type="line"/>
    </contour>
  </outline>
</glyph>
<glyph name="tbar" format="2">
  <advance width="614"/>
  <unicode hex="0167"/>
  <outline>
    <contour>
      <point x="203" y="217" type="qcurve"/>
      <point x="99" y="217" type="line"/>
      <point x="115" y="274" type="line"/>
      <point x="224" y="274" type="line"/>
      <point x="270" y="396" type="line"/>
      <point x="105" y="396" type="line"/>
      <point x="125" y="465" type="line"/>
      <point x="297" y="465" type="line"/>
      <point x="363" y="638" type="line"/>
      <point x="446" y="638" type="line"/>
      <point x="382" y="465" type="line"/>
      <point x="572" y="465" type="line"/>
      <point x="553" y="396" type="line"/>
      <point x="356" y="396" type="line"/>
      <point x="311" y="274" type="line"/>
      <point x="471" y="274" type="line"/>
      <point x="455" y="217" type="line"/>
      <point x="290" y="217" type="line"/>
      <point x="280" y="189"/>
      <point x="271" y="150"/>
      <point x="271" y="137" type="qcurve"/>
      <point x="271" y="105"/>
      <point x="309" y="73"/>
      <point x="351" y="71" type="qcurve"/>
      <point x="474" y="63" type="line"/>
      <point x="454" y="-7" type="line"/>
      <point x="348" y="-3" type="line"/>
      <point x="265" y="0"/>
      <point x="183" y="63"/>
      <point x="183" y="123" type="qcurve"/>
      <point x="183" y="142"/>
      <point x="193" y="187"/>
    </contour>
  </outline>
</glyph>
<glyph name="Ohorn" format="2">
  <advance width="614"/>
  <unicode hex="01A0"/>
  <outline>
    <contour>
      <point x="82" y="358" type="qcurve"/>
      <point x="122" y="495"/>
      <point x="296" y="655"/>
      <point x="406" y="655" type="qcurve"/>
      <point x="524" y="655" type="line"/>
      <point x="595" y="655"/>
      <point x="654" y="697"/>
      <point x="677" y="768" type="qcurve"/>
      <point x="758" y="768" type="line"/>
      <point x="731" y="671"/>
      <point x="651" y="603"/>
      <point x="560" y="603" type="qcurve"/>
      <point x="556" y="603"/>
      <point x="546" y="604"/>
      <point x="535" y="605" type="qcurve"/>
      <point x="532" y="601" type="line"/>
      <point x="573" y="575"/>
      <point x="611" y="498"/>
      <point x="611" y="441" type="qcurve"/>
      <point x="611" y="400"/>
      <point x="600" y="326"/>
      <point x="588" y="283" type="qcurve"/>
      <point x="548" y="146"/>
      <point x="373" y="-15"/>
      <point x="263" y="-15" type="qcurve"/>
      <point x="164" y="-15"/>
      <point x="59" y="94"/>
      <point x="59" y="196" type="qcurve"/>
      <point x="59" y="238"/>
      <point x="70" y="316"/>
    </contour>
    <contour>
      <point x="148" y="195" type="qcurve"/>
      <point x="148" y="128"/>
      <point x="210" y="57"/>
      <point x="268" y="57" type="qcurve"/>
      <point x="344" y="57"/>
      <point x="467" y="181"/>
      <point x="498" y="289" type="qcurve"/>
      <point x="510" y="331"/>
      <point x="522" y="411"/>
      <point x="522" y="447" type="qcurve"/>
      <point x="522" y="513"/>
      <point x="460" y="583"/>
      <point x="401" y="583" type="qcurve"/>
      <point x="325" y="583"/>
      <point x="203" y="459"/>
      <point x="172" y="352" type="qcurve"/>
      <point x="160" y="311"/>
      <point x="148" y="231"/>
    </contour>
  </outline>
</glyph>
<glyph name="Uhorn" format="2">
  <advance width="614"/>
  <unicode hex="01AF"/>
  <outline>
    <contour>
      <point x="279" y="62" type="qcurve"/>
      <point x="342" y="62"/>
      <point x="422" y="136"/>
      <point x="445" y="213" type="qcurve"/>
      <point x="572" y="655" type="line"/>
      <point x="614" y="655" type="line"/>
      <point x="680" y="655"/>
      <point x="730" y="694"/>
      <point x="753" y="768" type="qcurve"/>
      <point x="834" y="768" type="line"/>
      <point x="807" y="672"/>
      <point x="727" y="599"/>
      <point x="642" y="599" type="qcurve"/>
      <point x="528" y="206" type="line"/>
      <point x="495" y="91"/>
      <point x="371" y="-15"/>
      <point x="267" y="-15" type="qcurve"/>
      <point x="172" y="-15"/>
      <point x="69" y="77"/>
      <point x="69" y="164" type="qcurve"/>
      <point x="69" y="187"/>
      <point x="80" y="244"/>
      <point x="92" y="286" type="qcurve"/>
      <point x="199" y="655" type="line"/>
      <point x="286" y="655" type="line"/>
      <point x="172" y="261" type="line"/>
      <point x="163" y="230"/>
      <point x="155" y="185"/>
      <point x="155" y="168" type="qcurve"/>
      <point x="155" y="116"/>
      <point x="218" y="62"/>
    </contour>
  </outline>
</glyph>
<glyph name="uhorn" format="2">
  <advance width="614"/>
  <unicode hex="01B0"/>
  <outline>
    <contour>
      <point x="452" y="0" type="line"/>
      <point x="372" y="0" type="line"/>
      <point x="408" y="135" type="line"/>
      <point x="323" y="54"/>
      <point x="223" y="-7"/>
      <point x="167" y="-7" type="qcurve"/>
      <point x="118" y="-7"/>
      <point x="59" y="45"/>
      <point x="59" y="89" type="qcurve"/>
      <point x="59" y="104"/>
      <point x="66" y="142"/>
      <point x="74" y="168" type="qcurve"/>
      <point x="159" y="465" type="line"/>
      <point x="245" y="465" type="line"/>
      <point x="160" y="171" type="line"/>
      <point x="155" y="151"/>
      <point x="150" y="126"/>
      <point x="150" y="116" type="qcurve"/>
      <point x="150" y="95"/>
      <point x="177" y="71"/>
      <point x="202" y="71" type="qcurve"/>
      <point x="240" y="71"/>
      <point x="334" y="140"/>
      <point x="435" y="237" type="qcurve"/>
      <point x="500" y="465" type="line"/>
      <point x="529" y="465" type="line"/>
      <point x="590" y="465"/>
      <point x="643" y="507"/>
      <point x="667" y="577" type="qcurve"/>
      <point x="747" y="577" type="line"/>
      <point x="720" y="488"/>
      <point x="643" y="414"/>
      <point x="571" y="412" type="qcurve"/>
    </contour>
  </outline>
</glyph>
<glyph name="Oogonek" format="2">
  <advance width="614"/>
  <unicode hex="01EA"/>
  <outline>
    <contour>
      <point x="92" y="-174" type="qcurve"/>
      <point x="92" y="-142"/>
      <point x="148" y="-71"/>
      <point x="217" y="-11" type="qcurve"/>
      <point x="140" y="1"/>
      <point x="59" y="110"/>
      <point x="59" y="202" type="qcurve"/>
      <point x="59" y="244"/>
      <point x="70" y="323"/>
      <point x="82" y="365" type="qcurve"/>
      <point x="123" y="505"/>
      <point x="297" y="670"/>
      <point x="407" y="670" type="qcurve"/>
      <point x="506" y="670"/>
      <point x="611" y="558"/>
      <point x="611" y="453" type="qcurve"/>
      <point x="611" y="411"/>
      <point x="600" y="332"/>
      <point x="588" y="290" type="qcurve"/>
      <point x="548" y="150"/>
      <point x="374" y="-15"/>
      <point x="265" y="-15" type="qcurve"/>
      <point x="216" y="-66"/>
      <point x="172" y="-128"/>
      <point x="172" y="-151" type="qcurve"/>
      <point x="172" y="-164"/>
      <point x="194" y="-176"/>
      <point x="221" y="-177" type="qcurve"/>
      <point x="283" y="-181" type="line"/>
      <point x="261" y="-240" type="line"/>
      <point x="186" y="-236" type="line"/>
      <point x="136" y="-233"/>
      <point x="92" y="-205"/>
    </contour>
    <contour>
      <point x="148" y="201" type="qcurve"/>
      <point x="148" y="131"/>
      <point x="210" y="57"/>
      <point x="268" y="57" type="qcurve"/>
      <point x="344" y="57"/>
      <point x="466" y="184"/>
      <point x="498" y="296" type="qcurve"/>
      <point x="510" y="337"/>
      <point x="522" y="418"/>
      <point x="522" y="454" type="qcurve"/>
      <point x="522" y="524"/>
      <point x="460" y="598"/>
      <point x="402" y="598" type="qcurve"/>
      <point x="326" y="598"/>
      <point x="204" y="471"/>
      <point x="172" y="359" type="qcurve"/>
      <point x="160" y="318"/>
      <point x="148" y="237"/>
    </contour>
  </outline>
</glyph>
<glyph name="schwa" format="2">
  <advance width="614"/>
  <unicode hex="0259"/>
  <outline>
    <contour>
      <point x="196" y="404" type="qcurve"/>
      <point x="217" y="473" type="line"/>
      <point x="288" y="473"/>
      <point x="392" y="464"/>
      <point x="428" y="454" type="qcurve"/>
      <point x="491" y="438"/>
      <point x="546" y="368"/>
      <point x="546" y="303" type="qcurve"/>
      <point x="546" y="242"/>
      <point x="491" y="124"/>
      <point x="442" y="78" type="qcurve"/>
      <point x="394" y="34"/>
      <point x="275" y="-14"/>
      <point x="210" y="-14" type="qcurve"/>
      <point x="131" y="-14"/>
      <point x="40" y="53"/>
      <point x="40" y="111" type="qcurve"/>
      <point x="40" y="184"/>
      <point x="161" y="257"/>
      <point x="293" y="269" type="qcurve"/>
      <point x="459" y="283" type="line"/>
      <point x="459" y="286"/>
      <point x="459" y="292"/>
      <point x="459" y="295" type="qcurve"/>
      <point x="459" y="364"/>
      <point x="350" y="402"/>
    </contour>
    <contour>
      <point x="127" y="116" type="qcurve"/>
      <point x="127" y="89"/>
      <point x="175" y="55"/>
      <point x="215" y="55" type="qcurve"/>
      <point x="292" y="55"/>
      <point x="423" y="152"/>
      <point x="447" y="225" type="qcurve"/>
      <point x="295" y="210" type="line"/>
      <point x="210" y="201"/>
      <point x="127" y="155"/>
    </contour>
  </outline>
</glyph>
<glyph name="ringhalfright" format="2">
  <advance width="614"/>
  <unicode hex="02BE"/>
  <outline>
    <contour>
      <point x="462" y="396" type="qcurve"/>
      <point x="419" y="353"/>
      <point x="290" y="315"/>
      <point x="190" y="315" type="qcurve"/>
      <point x="212" y="389" type="line"/>
      <point x="324" y="389"/>
      <point x="433" y="473"/>
      <point x="433" y="561" type="qcurve"/>
      <point x="433" y="606"/>
      <point x="360" y="651"/>
      <point x="287" y="651" type="qcurve"/>
      <point x="308" y="725" type="line"/>
      <point x="415" y="725"/>
      <point x="524" y="641"/>
      <point x="524" y="560" type="qcurve"/>
      <point x="524" y="510"/>
      <point x="493" y="427"/>
    </contour>
  </outline>
</glyph>
<glyph name="acutecmb" format="2">
  <unicode hex="0301"/>
  <outline>
    <contour>
      <point x="32" y="541" type="line"/>
      <point x="6" y="587" type="line"/>
      <point x="261" y="746" type="line"/>
      <point x="294" y="687" type="line"/>
    </contour>
  </outline>
</glyph>
<glyph name="brevecmb" format="2">
  <unicode hex="0306"/>
  <outline>
    <contour>
      <point x="103" y="605" type="qcurve"/>
      <point x="148" y="605"/>
      <point x="227" y="668"/>
      <point x="271" y="738" type="qcurve"/>
      <point x="327" y="717" type="line"/>
      <point x="275" y="624"/>
      <point x="168" y="541"/>
      <point x="98" y="541" type="qcurve"/>
      <point x="26" y="541"/>
      <point x="-43" y="630"/>
      <point x="-43" y="723" type="qcurve"/>
      <point x="11" y="738" type="line"/>
      <point x="15" y="668"/>
      <point x="58" y="605"/>
    </contour>
  </outline>
</glyph>
<glyph name="dotaccentcmb" format="2">
  <unicode hex="0307"/>
  <outline>
    <contour>
      <point x="176" y="638" type="qcurve"/>
      <point x="176" y="604"/>
      <point x="134" y="561"/>
      <point x="100" y="561" type="qcurve"/>
      <point x="74" y="561"/>
      <point x="46" y="583"/>
      <point x="46" y="603" type="qcurve"/>
      <point x="46" y="634"/>
      <point x="90" y="679"/>
      <point x="122" y="679" type="qcurve"/>
      <point x="149" y="679"/>
      <point x="176" y="658"/>
    </contour>
  </outline>
</glyph>
<glyph name="hookcmb" format="2">
  <unicode hex="0309"/>
  <outline>
    <contour>
      <point x="233" y="669" type="qcurve"/>
      <point x="233" y="615"/>
      <point x="114" y="551"/>
      <point x="-5" y="541" type="qcurve"/>
      <point x="-10" y="587" type="line"/>
      <point x="-9" y="588" type="line"/>
      <point x="73" y="600"/>
      <point x="153" y="636"/>
      <point x="153" y="664" type="qcurve"/>
      <point x="153" y="682"/>
      <point x="91" y="707"/>
      <point x="24" y="718" type="qcurve"/>
      <point x="24" y="721" type="line"/>
      <point x="72" y="762" type="line"/>
      <point x="154" y="750"/>
      <point x="233" y="705"/>
    </contour>
  </outline>
</glyph>
<glyph name="hungarumlautcmb" format="2">
  <unicode hex="030B"/>
  <outline>
    <contour>
      <point x="-40" y="541" type="line"/>
      <point x="-74" y="575" type="line"/>
      <point x="77" y="742" type="line"/>
      <point x="129" y="698" type="line"/>
    </contour>
    <contour>
      <point x="187" y="541" type="line"/>
      <point x="153" y="575" type="line"/>
      <point x="304" y="742" type="line"/>
      <point x="355" y="698" type="line"/>
    </contour>
  </outline>
</glyph>
<glyph name="commaturnedabovecmb" format="2">
  <unicode hex="0312"/>
  <outline>
    <contour>
      <point x="3" y="635" type="qcurve"/>
      <point x="3" y="688"/>
      <point x="122" y="752"/>
      <point x="241" y="762" type="qcurve"/>
      <point x="246" y="717" type="line"/>
      <point x="245" y="715" type="line"/>
      <point x="163" y="704"/>
      <point x="83" y="667"/>
      <point x="83" y="640" type="qcurve"/>
      <point x="83" y="622"/>
      <point x="145" y="596"/>
      <point x="212" y="585" type="qcurve"/>
      <point x="212" y="582" type="line"/>
      <point x="164" y="541" type="line"/>
      <point x="81" y="553"/>
      <point x="3" y="598"/>
    </contour>
  </outline>
</glyph>
<glyph name="commaaboverightcmb" format="2">
  <unicode hex="0315"/>
  <outline>
    <contour>
      <point x="129" y="486" type="line"/>
      <point x="73" y="486" type="line"/>
      <point x="137" y="710" type="line"/>
      <point x="222" y="710" type="line"/>
    </contour>
  </outline>
</glyph>
<glyph name="dotbelowcmb" format="2">
  <unicode hex="0323"/>
  <outline>
    <contour>
      <point x="-46" y="-137" type="qcurve"/>
      <point x="-46" y="-171"/>
      <point x="-88" y="-213"/>
      <point x="-122" y="-213" type="qcurve"/>
      <point x="-149" y="-213"/>
      <point x="-176" y="-192"/>
      <point x="-176" y="-172" type="qcurve"/>
      <point x="-176" y="-140"/>
      <point x="-132" y="-95"/>
      <point x="-100" y="-95" type="qcurve"/>
      <point x="-74" y="-95"/>
      <point x="-46" y="-117"/>
    </contour>
  </outline>
</glyph>
<glyph name="dieresisbelowcmb" format="2">
  <unicode hex="0324"/>
  <outline>
    <contour>
      <point x="-162" y="-135" type="qcurve"/>
      <point x="-162" y="-167"/>
      <point x="-202" y="-208"/>
      <point x="-234" y="-208" type="qcurve"/>
      <point x="-259" y="-208"/>
      <point x="-286" y="-187"/>
      <point x="-286" y="-168" type="qcurve"/>
      <point x="-286" y="-139"/>
      <point x="-244" y="-95"/>
      <point x="-213" y="-95" type="qcurve"/>
      <point x="-188" y="-95"/>
      <point x="-162" y="-116"/>
    </contour>
    <contour>
      <point x="73" y="-135" type="qcurve"/>
      <point x="73" y="-167"/>
      <point x="32" y="-208"/>
      <point x="0" y="-208" type="qcurve"/>
      <point x="-25" y="-208"/>
      <point x="-51" y="-187"/>
      <point x="-51" y="-168" type="qcurve"/>
      <point x="-51" y="-138"/>
      <point x="-8" y="-95"/>
      <point x="22" y="-95" type="qcurve"/>
      <point x="46" y="-95"/>
      <point x="73" y="-116"/>
    </contour>
  </outline>
</glyph>
<glyph name="brevebelowcmb" format="2">
  <unicode hex="032E"/>
  <outline>
    <contour>
      <point x="-132" y="-209" type="qcurve"/>
      <point x="-87" y="-209"/>
      <point x="-8" y="-146"/>
      <point x="35" y="-76" type="qcurve"/>
      <point x="92" y="-97" type="line"/>
      <point x="40" y="-190"/>
      <point x="-67" y="-272"/>
      <point x="-138" y="-272" type="qcurve"/>
      <point x="-210" y="-272"/>
      <point x="-278" y="-183"/>
      <point x="-278" y="-90" type="qcurve"/>
      <point x="-224" y="-76" type="line"/>
      <point x="-220" y="-146"/>
      <point x="-177" y="-209"/>
    </contour>
  </outline>
</glyph>
<glyph name="macronbelowcmb" format="2">
  <unicode hex="0331"/>
  <outline>
    <contour>
      <point x="46" y="-181" type="line"/>
      <point x="-287" y="-181" type="line"/>
      <point x="-268" y="-116" type="line"/>
      <point x="65" y="-116" type="line"/>
    </contour>
  </outline>
</glyph>
<glyph name="bahtthai" format="2">
  <advance width="614"/>
  <unicode hex="0E3F"/>
  <outline>
    <contour>
      <point x="280" y="0" type="qcurve"/>
      <point x="239" y="-142" type="line"/>
      <point x="172" y="-142" type="line"/>
      <point x="213" y="0" type="line"/>
      <point x="28" y="0" type="line"/>
      <point x="216" y="655" type="line"/>
      <point x="402" y="655" type="line"/>
      <point x="442" y="797" type="line"/>
      <point x="510" y="797" type="line"/>
      <point x="469" y="655" type="line"/>
      <point x="543" y="651"/>
      <point x="624" y="584"/>
      <point x="624" y="527" type="qcurve"/>
      <point x="624" y="455"/>
      <point x="521" y="357"/>
      <point x="422" y="336" type="qcurve"/>
      <point x="422" y="332" type="line"/>
      <point x="485" y="319"/>
      <point x="552" y="248"/>
      <point x="552" y="195" type="qcurve"/>
      <point x="552" y="104"/>
      <point x="409" y="0"/>
    </contour>
    <contour>
      <point x="218" y="366" type="line"/>
      <point x="325" y="372" type="line"/>
      <point x="328" y="372" type="line"/>
      <point x="390" y="587" type="line"/>
      <point x="281" y="587" type="line"/>
    </contour>
    <contour>
      <point x="530" y="510" type="qcurve"/>
      <point x="530" y="545"/>
      <point x="485" y="584"/>
      <point x="441" y="587" type="qcurve"/>
      <point x="381" y="378" type="line"/>
      <point x="451" y="391"/>
      <point x="530" y="462"/>
    </contour>
    <contour>
      <point x="241" y="68" type="line"/>
      <point x="308" y="300" type="line"/>
      <point x="201" y="305" type="line"/>
      <point x="133" y="68" type="line"/>
    </contour>
    <contour>
      <point x="464" y="200" type="qcurve"/>
      <point x="464" y="239"/>
      <point x="410" y="288"/>
      <point x="358" y="296" type="qcurve"/>
      <point x="292" y="68" type="line"/>
      <point x="293" y="68" type="line"/>
      <point x="371" y="68"/>
      <point x="464" y="142"/>
    </contour>
  </outline>
</glyph>
<glyph name="hcedilla" format="2">
  <advance width="614"/>
  <unicode hex="1E29"/>
  <outline>
    <contour>
      <point x="233" y="710" type="line"/>
      <point x="318" y="710" type="line"/>
      <point x="209" y="332" type="line"/>
      <point x="295" y="413"/>
      <point x="393" y="472"/>
      <point x="448" y="472" type="qcurve"/>
      <point x="498" y="472"/>
      <point x="556" y="420"/>
      <point x="556" y="376" type="qcurve"/>
      <point x="556" y="363"/>
      <point x="549" y="325"/>
      <point x="541" y="297" type="qcurve"/>
      <point x="455" y="0" type="line"/>
      <point x="369" y="0" type="line"/>
      <point x="454" y="294" type="line"/>
      <point x="459" y="311"/>
      <point x="464" y="337"/>
      <point x="464" y="349" type="qcurve"/>
      <point x="464" y="371"/>
      <point x="437" y="394"/>
      <point x="413" y="394" type="qcurve"/>
      <point x="374" y="394"/>
      <point x="279" y="325"/>
      <point x="180" y="230" type="qcurve"/>
      <point x="114" y="0" type="line"/>
      <point x="97" y="0" type="line"/>
      <point x="61" y="-60" type="line"/>
      <point x="133" y="-71"/>
      <point x="191" y="-107"/>
      <point x="191" y="-143" type="qcurve"/>
      <point x="191" y="-185"/>
      <point x="135" y="-227"/>
      <point x="71" y="-242" type="qcurve"/>
      <point x="39" y="-248"/>
      <point x="-47" y="-260"/>
      <point x="-101" y="-265" type="qcurve"/>
      <point x="-101" y="-211" type="line"/>
      <point x="-63" y="-208"/>
      <point x="-4" y="-201"/>
      <point x="18" y="-198" type="qcurve"/>
      <point x="73" y="-190"/>
      <point x="117" y="-170"/>
      <point x="117" y="-150" type="qcurve"/>
      <point x="117" y="-132"/>
      <point x="61" y="-114"/>
      <point x="-12" y="-107" type="qcurve"/>
      <point x="-15" y="-97" type="line"/>
      <point x="47" y="0" type="line"/>
      <point x="29" y="0" type="line"/>
    </contour>
  </outline>
</glyph>
<glyph name="emdash" format="2">
  <advance width="614"/>
  <unicode hex="2014"/>
  <outline>
    <contour>
      <point x="66" y="286" type="line"/>
      <point x="90" y="369" type="line"/>
      <point x="604" y="369" type="line"/>
      <point x="580" y="286" type="line"/>
    </contour>
  </outline>
</glyph>
<glyph name="quoteright" format="2">
  <advance width="614"/>
  <unicode hex="2019"/>
  <outline>
    <contour>
      <point x="309" y="433" type="qcurve"/>
      <point x="225" y="433" type="line"/>
      <point x="226" y="435" type="line"/>
      <point x="309" y="514"/>
      <point x="391" y="631"/>
      <point x="417" y="710" type="qcurve"/>
      <point x="549" y="710" type="line"/>
      <point x="517" y="620"/>
      <point x="413" y="499"/>
    </contour>
  </outline>
</glyph>
<glyph name="quotedblright" format="2">
  <advance width="614"/>
  <unicode hex="201D"/>
  <outline>
    <contour>
      <point x="440" y="425" type="qcurve"/>
      <point x="363" y="425" type="line"/>
      <point x="363" y="427" type="line"/>
      <point x="446" y="512"/>
      <point x="514" y="611"/>
      <point x="552" y="710" type="qcurve"/>
      <point x="674" y="710" type="line"/>
      <point x="627" y="600"/>
      <point x="537" y="493"/>
    </contour>
    <contour>
      <point x="189" y="425" type="qcurve"/>
      <point x="112" y="425" type="line"/>
      <point x="113" y="427" type="line"/>
      <point x="195" y="511"/>
      <point x="262" y="609"/>
      <point x="301" y="710" type="qcurve"/>
      <point x="424" y="710" type="line"/>
      <point x="378" y="601"/>
      <point x="287" y="494"/>
    </contour>
  </outline>
</glyph>
<glyph name="bullet" format="2">
  <advance width="614"/>
  <unicode hex="2022"/>
  <outline>
    <contour>
      <point x="194" y="298" type="qcurve"/>
      <point x="194" y="369"/>
      <point x="286" y="465"/>
      <point x="358" y="465" type="qcurve"/>
      <point x="417" y="465"/>
      <point x="479" y="417"/>
      <point x="479" y="370" type="qcurve"/>
      <point x="479" y="298"/>
      <point x="387" y="203"/>
      <point x="316" y="203" type="qcurve"/>
      <point x="257" y="203"/>
      <point x="194" y="251"/>
    </contour>
  </outline>
</glyph>
<glyph name="guilsinglleft" format="2">
  <advance width="614"/>
  <unicode hex="2039"/>
  <outline>
    <contour>
      <point x="247" y="225" type="line"/>
      <point x="395" y="62" type="line"/>
      <point x="371" y="-15" type="line"/>
      <point x="141" y="196" type="line"/>
      <point x="161" y="267" type="line"/>
      <point x="513" y="478" type="line"/>
      <point x="487" y="383" type="line"/>
    </contour>
  </outline>
</glyph>
<glyph name="naira" format="2">
  <advance width="614"/>
  <unicode hex="20A6"/>
  <outline>
    <contour>
      <point x="176" y="223" type="line"/>
      <point x="114" y="0" type="line"/>
      <point x="40" y="0" type="line"/>
      <point x="103" y="220" type="line"/>
      <point x="12" y="220" type="line"/>
      <point x="28" y="277" type="line"/>
      <point x="120" y="277" type="line"/>
      <point x="150" y="384" type="line"/>
      <point x="59" y="384" type="line"/>
      <point x="75" y="441" type="line"/>
      <point x="167" y="441" type="line"/>
      <point x="228" y="655" type="line"/>
      <point x="351" y="655" type="line"/>
      <point x="362" y="438" type="line"/>
      <point x="494" y="438" type="line"/>
      <point x="554" y="655" type="line"/>
      <point x="629" y="655" type="line"/>
      <point x="568" y="441" type="line"/>
      <point x="659" y="441" type="line"/>
      <point x="642" y="384" type="line"/>
      <point x="551" y="384" type="line"/>
      <point x="521" y="277" type="line"/>
      <point x="612" y="277" type="line"/>
      <point x="595" y="220" type="line"/>
      <point x="504" y="220" type="line"/>
      <point x="441" y="0" type="line"/>
      <point x="320" y="0" type="line"/>
      <point x="309" y="223" type="line"/>
    </contour>
    <contour>
      <point x="289" y="602" type="line"/>
      <point x="281" y="602" type="line"/>
      <point x="188" y="266" type="line"/>
      <point x="306" y="266" type="line"/>
    </contour>
    <contour>
      <point x="364" y="395" type="line"/>
      <point x="381" y="57" type="line"/>
      <point x="389" y="57" type="line"/>
      <point x="482" y="395" type="line"/>
    </contour>
  </outline>
</glyph>
<glyph name="won" format="2">
  <advance width="614"/>
  <unicode hex="20A9"/>
  <outline>
    <contour>
      <point x="368" y="430" type="line"/>
      <point x="357" y="430" type="line"/>
      <point x="160" y="0" type="line"/>
      <point x="55" y="0" type="line"/>
      <point x="120" y="308" type="line"/>
      <point x="36" y="308" type="line"/>
      <point x="52" y="367" type="line"/>
      <point x="133" y="367" type="line"/>
      <point x="194" y="655" type="line"/>
      <point x="248" y="655" type="line"/>
      <point x="184" y="362" type="line"/>
      <point x="276" y="362" type="line"/>
      <point x="339" y="497" type="line"/>
      <point x="423" y="497" type="line"/>
      <point x="408" y="362" type="line"/>
      <point x="501" y="362" type="line"/>
      <point x="606" y="655" type="line"/>
      <point x="662" y="655" type="line"/>
      <point x="558" y="367" type="line"/>
      <point x="638" y="367" type="line"/>
      <point x="622" y="308" type="line"/>
      <point x="536" y="308" type="line"/>
      <point x="425" y="0" type="line"/>
      <point x="321" y="0" type="line"/>
    </contour>
    <contour>
      <point x="376" y="69" type="line"/>
      <point x="396" y="69" type="line"/>
      <point x="484" y="315" type="line"/>
      <point x="403" y="315" type="line"/>
    </contour>
    <contour>
      <point x="174" y="315" type="line"/>
      <point x="120" y="69" type="line"/>
      <point x="140" y="69" type="line"/>
      <point x="254" y="315" type="line"/>
    </contour>
  </outline>
</glyph>
<glyph name="Euro" format="2">
  <advance width="614"/>
  <unicode hex="20AC"/>
  <outline>
    <contour>
      <point x="124" y="224" type="qcurve"/>
      <point x="35" y="224" type="line"/>
      <point x="51" y="282" type="line"/>
      <point x="138" y="282" type="line"/>
      <point x="164" y="373" type="line"/>
      <point x="77" y="373" type="line"/>
      <point x="93" y="431" type="line"/>
      <point x="181" y="431" type="line"/>
      <point x="217" y="547"/>
      <point x="362" y="669"/>
      <point x="463" y="669" type="qcurve"/>
      <point x="515" y="669"/>
      <point x="600" y="649"/>
      <point x="652" y="625" type="qcurve"/>
      <point x="624" y="554" type="line"/>
      <point x="574" y="577"/>
      <point x="502" y="597"/>
      <point x="465" y="597" type="qcurve"/>
      <point x="395" y="597"/>
      <point x="298" y="513"/>
      <point x="269" y="429" type="qcurve"/>
      <point x="482" y="429" type="line"/>
      <point x="466" y="373" type="line"/>
      <point x="252" y="373" type="line"/>
      <point x="226" y="282" type="line"/>
      <point x="440" y="282" type="line"/>
      <point x="424" y="226" type="line"/>
      <point x="211" y="226" type="line"/>
      <point x="207" y="208"/>
      <point x="204" y="178"/>
      <point x="204" y="165" type="qcurve"/>
      <point x="205" y="111"/>
      <point x="264" y="57"/>
      <point x="322" y="57" type="qcurve"/>
      <point x="361" y="57"/>
      <point x="444" y="79"/>
      <point x="499" y="103" type="qcurve"/>
      <point x="504" y="31" type="line"/>
      <point x="455" y="8"/>
      <point x="359" y="-15"/>
      <point x="308" y="-15" type="qcurve"/>
      <point x="216" y="-15"/>
      <point x="118" y="77"/>
      <point x="118" y="161" type="qcurve"/>
      <point x="118" y="179"/>
      <point x="121" y="209"/>
    </contour>
  </outline>
</glyph>
<glyph name="uni20B9" format="2">
  <advance width="614"/>
  <unicode hex="20B9"/>
  <outline>
    <contour>
      <point x="414" y="410" type="qcurve"/>
      <point x="118" y="410" type="line"/>
      <point x="135" y="469" type="line"/>
      <point x="431" y="469" type="line"/>
      <point x="469" y="598" type="line"/>
      <point x="172" y="598" type="line"/>
      <point x="188" y="655" type="line"/>
      <point x="674" y="655" type="line"/>
      <point x="657" y="598" type="line"/>
      <point x="557" y="598" type="line"/>
      <point x="519" y="469" type="line"/>
      <point x="620" y="469" type="line"/>
      <point x="603" y="410" type="line"/>
      <point x="502" y="410" type="line"/>
      <point x="467" y="295"/>
      <point x="348" y="213"/>
      <point x="223" y="213" type="qcurve"/>
      <point x="194" y="213" type="line"/>
      <point x="194" y="211" type="line"/>
      <point x="462" y="2" type="line"/>
      <point x="462" y="0" type="line"/>
      <point x="339" y="0" type="line"/>
      <point x="63" y="219" type="line"/>
      <point x="81" y="280" type="line"/>
      <point x="246" y="280" type="line"/>
      <point x="311" y="280"/>
      <point x="391" y="341"/>
    </contour>
  </outline>
</glyph>
<glyph name="uni20BA" format="2">
  <advance width="614"/>
  <unicode hex="20BA"/>
  <outline>
    <contour>
      <point x="107" y="187" type="line"/>
      <point x="-6" y="132" type="line"/>
      <point x="13" y="198" type="line"/>
      <point x="126" y="253" type="line"/>
      <point x="154" y="350" type="line"/>
      <point x="40" y="295" type="line"/>
      <point x="60" y="362" type="line"/>
      <point x="173" y="417" type="line"/>
      <point x="241" y="655" type="line"/>
      <point x="328" y="655" type="line"/>
      <point x="272" y="459" type="line"/>
      <point x="486" y="565" type="line"/>
      <point x="467" y="498" type="line"/>
      <point x="253" y="393" type="line"/>
      <point x="225" y="295" type="line"/>
      <point x="439" y="401" type="line"/>
      <point x="420" y="333" type="line"/>
      <point x="206" y="230" type="line"/>
      <point x="160" y="71" type="line"/>
      <point x="220" y="71" type="line"/>
      <point x="332" y="71"/>
      <point x="476" y="183"/>
      <point x="507" y="294" type="qcurve"/>
      <point x="584" y="280" type="line"/>
      <point x="544" y="136"/>
      <point x="364" y="0"/>
      <point x="216" y="0" type="qcurve"/>
      <point x="53" y="0" type="line"/>
    </contour>
  </outline>
</glyph>
<glyph name="uni20BD" format="2">
  <advance width="614"/>
  <unicode hex="20BD"/>
  <outline>
    <contour>
      <point x="91" y="129" type="line"/>
      <point x="-7" y="129" type="line"/>
      <point x="9" y="186" type="line"/>
      <point x="107" y="186" type="line"/>
      <point x="136" y="284" type="line"/>
      <point x="37" y="284" type="line"/>
      <point x="54" y="341" type="line"/>
      <point x="152" y="341" type="line"/>
      <point x="242" y="655" type="line"/>
      <point x="465" y="655" type="line"/>
      <point x="554" y="655"/>
      <point x="654" y="573"/>
      <point x="654" y="501" type="qcurve"/>
      <point x="654" y="458"/>
      <point x="626" y="387"/>
      <point x="598" y="359" type="qcurve"/>
      <point x="561" y="321"/>
      <point x="438" y="284"/>
      <point x="350" y="284" type="qcurve"/>
      <point x="222" y="284" type="line"/>
      <point x="193" y="186" type="line"/>
      <point x="419" y="186" type="line"/>
      <point x="403" y="129" type="line"/>
      <point x="177" y="129" type="line"/>
      <point x="140" y="0" type="line"/>
      <point x="54" y="0" type="line"/>
    </contour>
    <contour>
      <point x="561" y="491" type="qcurve"/>
      <point x="561" y="537"/>
      <point x="502" y="583"/>
      <point x="444" y="583" type="qcurve"/>
      <point x="307" y="583" type="line"/>
      <point x="238" y="341" type="line"/>
      <point x="356" y="341" type="line"/>
      <point x="451" y="341"/>
      <point x="561" y="422"/>
    </contour>
  </outline>
</glyph>
<glyph name="published" format="2">
  <advance width="614"/>
  <unicode hex="2117"/>
  <outline>
    <contour>
      <point x="623" y="546" type="qcurve"/>
      <point x="623" y="501"/>
      <point x="602" y="384"/>
      <point x="581" y="310" type="qcurve"/>
      <point x="525" y="115"/>
      <point x="357" y="-70"/>
      <point x="232" y="-70" type="qcurve"/>
      <point x="137" y="-70"/>
      <point x="47" y="18"/>
      <point x="47" y="111" type="qcurve"/>
      <point x="47" y="157"/>
      <point x="68" y="275"/>
      <point x="88" y="346" type="qcurve"/>
      <point x="144" y="541"/>
      <point x="312" y="725"/>
      <point x="436" y="725" type="qcurve"/>
      <point x="533" y="725"/>
      <point x="623" y="638"/>
    </contour>
    <contour>
      <point x="433" y="680" type="qcurve"/>
      <point x="327" y="680"/>
      <point x="187" y="512"/>
      <point x="134" y="328" type="qcurve"/>
      <point x="114" y="261"/>
      <point x="95" y="152"/>
      <point x="95" y="111" type="qcurve"/>
      <point x="95" y="41"/>
      <point x="162" y="-25"/>
      <point x="235" y="-25" type="qcurve"/>
      <point x="341" y="-25"/>
      <point x="482" y="143"/>
      <point x="535" y="328" type="qcurve"/>
      <point x="555" y="397"/>
      <point x="574" y="505"/>
      <point x="574" y="547" type="qcurve"/>
      <point x="574" y="615"/>
      <point x="506" y="680"/>
    </contour>
    <contour>
      <point x="172" y="105" type="line"/>
      <point x="300" y="550" type="line"/>
      <point x="399" y="550" type="line"/>
      <point x="450" y="550"/>
      <point x="498" y="507"/>
      <point x="498" y="462" type="qcurve"/>
      <point x="498" y="418"/>
      <point x="466" y="327"/>
      <point x="441" y="302" type="qcurve"/>
      <point x="418" y="279"/>
      <point x="354" y="257"/>
      <point x="311" y="257" type="qcurve"/>
      <point x="278" y="257" type="line"/>
      <point x="234" y="105" type="line"/>
    </contour>
    <contour>
      <point x="436" y="455" type="qcurve"/>
      <point x="436" y="476"/>
      <point x="412" y="495"/>
      <point x="382" y="495" type="qcurve"/>
      <point x="346" y="495" type="line"/>
      <point x="294" y="315" type="line"/>
      <point x="327" y="315" type="line"/>
      <point x="352" y="315"/>
      <point x="384" y="326"/>
      <point x="395" y="337" type="qcurve"/>
      <point x="410" y="352"/>
      <point x="436" y="429"/>
    </contour>
  </outline>
</glyph>
<glyph name="trademark" format="2">
  <advance width="614"/>
  <unicode hex="2122"/>
  <outline>
    <contour>
      <point x="245" y="661" type="line"/>
      <point x="156" y="661" type="line"/>
      <point x="170" y="709" type="line"/>
      <point x="398" y="709" type="line"/>
      <point x="384" y="661" type="line"/>
      <point x="299" y="661" type="line"/>
      <point x="225" y="403" type="line"/>
      <point x="171" y="403" type="line"/>
    </contour>
    <contour>
      <point x="616" y="710" type="line"/>
      <point x="688" y="710" type="line"/>
      <point x="612" y="403" type="line"/>
      <point x="564" y="403" type="line"/>
      <point x="637" y="675" type="line"/>
      <point x="514" y="493" type="line"/>
      <point x="501" y="493" type="line"/>
      <point x="481" y="668" type="line"/>
      <point x="399" y="403" type="line"/>
      <point x="351" y="403" type="line"/>
      <point x="451" y="710" type="line"/>
      <point x="516" y="710" type="line"/>
      <point x="531" y="586" type="line"/>
    </contour>
  </outline>
</glyph>
<glyph name="approxequal" format="2">
  <advance width="614"/>
  <unicode hex="2248"/>
  <outline>
    <contour>
      <point x="239" y="569" type="qcurve"/>
      <point x="263" y="569"/>
      <point x="310" y="542"/>
      <point x="356" y="502" type="qcurve"/>
      <point x="403" y="462"/>
      <point x="436" y="439"/>
      <point x="448" y="439" type="qcurve"/>
      <point x="464" y="439"/>
      <point x="500" y="484"/>
      <point x="560" y="580" type="qcurve"/>
      <point x="624" y="542" type="line"/>
      <point x="559" y="433"/>
      <point x="488" y="355"/>
      <point x="446" y="355" type="qcurve"/>
      <point x="423" y="355"/>
      <point x="379" y="381"/>
      <point x="329" y="423" type="qcurve"/>
      <point x="284" y="461"/>
      <point x="249" y="486"/>
      <point x="237" y="486" type="qcurve"/>
      <point x="221" y="486"/>
      <point x="184" y="440"/>
      <point x="131" y="354" type="qcurve"/>
      <point x="67" y="392" type="line"/>
      <point x="127" y="493"/>
      <point x="197" y="569"/>
    </contour>
    <contour>
      <point x="202" y="304" type="qcurve"/>
      <point x="225" y="304"/>
      <point x="271" y="277"/>
      <point x="319" y="236" type="qcurve"/>
      <point x="364" y="198"/>
      <point x="399" y="173"/>
      <point x="411" y="173" type="qcurve"/>
      <point x="427" y="173"/>
      <point x="464" y="219"/>
      <point x="517" y="305" type="qcurve"/>
      <point x="581" y="266" type="line"/>
      <point x="522" y="165"/>
      <point x="451" y="89"/>
      <point x="409" y="89" type="qcurve"/>
      <point x="386" y="89"/>
      <point x="340" y="116"/>
      <point x="292" y="157" type="qcurve"/>
      <point x="245" y="197"/>
      <point x="212" y="220"/>
      <point x="200" y="220" type="qcurve"/>
      <point x="185" y="220"/>
      <point x="151" y="179"/>
      <point x="88" y="78" type="qcurve"/>
      <point x="24" y="117" type="line"/>
      <point x="89" y="226"/>
      <point x="160" y="304"/>
    </contour>
  </outline>
</glyph>
<glyph name="greaterequal" format="2">
  <advance width="614"/>
  <unicode hex="2265"/>
  <outline>
    <contour>
      <point x="591" y="476" type="line"/>
      <point x="570" y="397" type="line"/>
      <point x="84" y="204" type="line"/>
      <point x="108" y="288" type="line"/>
      <point x="505" y="441" type="line"/>
      <point x="196" y="595" type="line"/>
      <point x="217" y="670" type="line"/>
    </contour>
    <contour>
      <point x="476" y="71" type="line"/>
      <point x="456" y="0" type="line"/>
      <point x="25" y="0" type="line"/>
      <point x="46" y="71" type="line"/>
    </contour>
  </outline>
</glyph>
<glyph name="lighthorzbxd" format="2">
  <advance width="614"/>
  <unicode hex="2500"/>
  <outline>
    <contour>
      <point x="634" y="287" type="line"/>
      <point x="-20" y="287" type="line"/>
      <point x="-20" y="374" type="line"/>
      <point x="634" y="374" type="line"/>
    </contour>
  </outline>
</glyph>
<glyph name="heavyvertbxd" format="2">
  <advance width="614"/>
  <unicode hex="2503"/>
  <outline>
    <contour>
      <point x="393" y="-420" type="line"/>
      <point x="221" y="-420" type="line"/>
      <point x="221" y="1080" type="line"/>
      <point x="393" y="1080" type="line"/>
    </contour>
  </outline>
</glyph>
<glyph name="lighttrpldashhorzbxd" format="2">
  <advance width="614"/>
  <unicode hex="2504"/>
  <outline>
    <contour>
      <point x="171" y="287" type="line"/>
      <point x="34" y="287" type="line"/>
      <point x="34" y="374" type="line"/>
      <point x="171" y="374" type="line"/>
    </contour>
    <contour>
      <point x="375" y="287" type="line"/>
      <point x="239" y="287" type="line"/>
      <point x="239" y="374" type="line"/>
      <point x="375" y="374" type="line"/>
    </contour>
    <contour>
      <point x="580" y="287" type="line"/>
      <point x="443" y="287" type="line"/>
      <point x="443" y="374" type="line"/>
      <point x="580" y="374" type="line"/>
    </contour>
  </outline>
</glyph>
<glyph name="heavyquaddashvertbxd" format="2">
  <advance width="614"/>
  <unicode hex="250B"/>
  <outline>
    <contour>
      <point x="393" y="611" type="line"/>
      <point x="221" y="611" type="line"/>
      <point x="221" y="799" type="line"/>
      <point x="393" y="799" type="line"/>
    </contour>
    <contour>
      <point x="393" y="361" type="line"/>
      <point x="221" y="361" type="line"/>
      <point x="221" y="549" type="line"/>
      <point x="393" y="549" type="line"/>
    </contour>
    <contour>
      <point x="393" y="111" type="line"/>
      <point x="221" y="111" type="line"/>
      <point x="221" y="299" type="line"/>
      <point x="393" y="299" type="line"/>
    </contour>
    <contour>
      <point x="393" y="-139" type="line"/>
      <point x="221" y="-139" type="line"/>
      <point x="221" y="49" type="line"/>
      <point x="393" y="49" type="line"/>
    </contour>
  </outline>
</glyph>
<glyph name="dnheavyrightlightbxd" format="2">
  <advance width="614"/>
  <unicode hex="250E"/>
  <outline>
    <contour>
      <point x="393" y="-420" type="line"/>
      <point x="221" y="-420" type="line"/>
      <point x="221" y="374" type="line"/>
      <point x="634" y="374" type="line"/>
      <point x="634" y="287" type="line"/>
      <point x="393" y="287" type="line"/>
    </contour>
  </outline>
</glyph>
<glyph name="uplightrightheavybxd" format="2">
  <advance width="614"/>
  <unicode hex="2515"/>
  <outline>
    <contour>
      <point x="634" y="244" type="line"/>
      <point x="264" y="244" type="line"/>
      <point x="264" y="1080" type="line"/>
      <point x="351" y="1080" type="line"/>
      <point x="351" y="416" type="line"/>
      <point x="634" y="416" type="line"/>
    </contour>
  </outline>
</glyph>
<glyph name="upheavyrightlightbxd" format="2">
  <advance width="614"/>
  <unicode hex="2516"/>
  <outline>
    <contour>
      <point x="634" y="287" type="line"/>
      <point x="221" y="287" type="line"/>
      <point x="221" y="1080" type="line"/>
      <point x="393" y="1080" type="line"/>
      <point x="393" y="374" type="line"/>
      <point x="634" y="374" type="line"/>
    </contour>
  </outline>
</glyph>
<glyph name="dnheavyrightuplightbxd" format="2">
  <advance width="614"/>
  <unicode hex="251F"/>
  <outline>
    <contour>
      <point x="393" y="-420" type="line"/>
      <point x="221" y="-420" type="line"/>
      <point x="221" y="374" type="line"/>
      <point x="264" y="374" type="line"/>
      <point x="264" y="1080" type="line"/>
      <point x="351" y="1080" type="line"/>
      <point x="351" y="374" type="line"/>
      <point x="634" y="374" type="line"/>
      <point x="634" y="287" type="line"/>
      <point x="393" y="287" type="line"/>
    </contour>
  </outline>
</glyph>
<glyph name="lightverthorzbxd" format="2">
  <advance width="614"/>
  <unicode hex="253C"/>
  <outline>
    <contour>
      <point x="264" y="287" type="line"/>
      <point x="-20" y="287" type="line"/>
      <point x="-20" y="374" type="line"/>
      <point x="264" y="374" type="line"/>
      <point x="264" y="1080" type="line"/>
      <point x="351" y="1080" type="line"/>
      <point x="351" y="374" type="line"/>
      <point x="634" y="374" type="line"/>
      <point x="634" y="287" type="line"/>
      <point x="351" y="287" type="line"/>
      <point x="351" y="-420" type="line"/>
      <point x="264" y="-420" type="line"/>
    </contour>
  </outline>
</glyph>
<glyph name="heavyverthorzbxd" format="2">
  <advance width="614"/>
  <unicode hex="254B"/>
  <outline>
    <contour>
      <point x="221" y="244" type="line"/>
      <point x="-20" y="244" type="line"/>
      <point x="-20" y="416" type="line"/>
      <point x="221" y="416" type="line"/>
      <point x="221" y="1080" type="line"/>
      <point x="393" y="1080" type="line"/>
      <point x="393" y="416" type="line"/>
      <point x="634" y="416" type="line"/>
      <point x="634" y="244" type="line"/>
      <point x="393" y="244" type="line"/>
      <point x="393" y="-420" type="line"/>
      <point x="221" y="-420" type="line"/>
    </contour>
  </outline>
</glyph>
<glyph name="heavydbldashhorzbxd" format="2">
  <advance width="614"/>
  <unicode hex="254D"/>
  <outline>
    <contour>
      <point x="230" y="244" type="line"/>
      <point x="77" y="244" type="line"/>
      <point x="77" y="416" type="line"/>
      <point x="230" y="416" type="line"/>
    </contour>
    <contour>
      <point x="537" y="244" type="line"/>
      <point x="384" y="244" type="line"/>
      <point x="384" y="416" type="line"/>
      <point x="537" y="416" type="line"/>
    </contour>
  </outline>
</glyph>
<glyph name="heavydbldashvertbxd" format="2">
  <advance width="614"/>
  <unicode hex="254F"/>
  <outline>
    <contour>
      <point x="393" y="455" type="line"/>
      <point x="221" y="455" type="line"/>
      <point x="221" y="705" type="line"/>
      <point x="393" y="705" type="line"/>
    </contour>
    <contour>
      <point x="393" y="-45" type="line"/>
      <point x="221" y="-45" type="line"/>
      <point x="221" y="205" type="line"/>
      <point x="393" y="205" type="line"/>
    </contour>
  </outline>
</glyph>
<glyph name="dbldnrightbxd" format="2">
  <advance width="614"/>
  <unicode hex="2554"/>
  <outline>
    <contour>
      <point x="264" y="-420" type="line"/>
      <point x="177" y="-420" type="line"/>
      <point x="177" y="460" type="line"/>
      <point x="634" y="460" type="line"/>
      <point x="634" y="374" type="line"/>
      <point x="264" y="374" type="line"/>
    </contour>
    <contour>
      <point x="437" y="-420" type="line"/>
      <point x="351" y="-420" type="line"/>
      <point x="351" y="287" type="line"/>
      <point x="634" y="287" type="line"/>
      <point x="634" y="200" type="line"/>
      <point x="437" y="200" type="line"/>
    </contour>
  </outline>
</glyph>
<glyph name="updblleftsngbxd" format="2">
  <advance width="614"/>
  <unicode hex="255C"/>
  <outline>
    <contour>
      <point x="437" y="287" type="line"/>
      <point x="-20" y="287" type="line"/>
      <point x="-20" y="374" type="line"/>
      <point x="177" y="374" type="line"/>
      <point x="177" y="1080" type="line"/>
      <point x="264" y="1080" type="line"/>
      <point x="264" y="374" type="line"/>
      <point x="351" y="374" type="line"/>
      <point x="351" y="1080" type="line"/>
      <point x="437" y="1080" type="line"/>
    </contour>
  </outline>
</glyph>
<glyph name="dndblhorzsngbxd" format="2">
  <advance width="614"/>
  <unicode hex="2565"/>
  <outline>
    <contour>
      <point x="177" y="287" type="line"/>
      <point x="-20" y="287" type="line"/>
      <point x="-20" y="374" type="line"/>
      <point x="634" y="374" type="line"/>
      <point x="634" y="287" type="line"/>
      <point x="437" y="287" type="line"/>
      <point x="437" y="-420" type="line"/>
      <point x="351" y="-420" type="line"/>
      <point x="351" y="287" type="line"/>
      <point x="264" y="287" type="line"/>
      <point x="264" y="-420" type="line"/>
      <point x="177" y="-420" type="line"/>
    </contour>
  </outline>
</glyph>
<glyph name="lightarcupleftbxd" format="2">
  <advance width="614"/>
  <unicode hex="256F"/>
  <outline>
    <contour>
      <point x="264" y="1080" type="line"/>
      <point x="351" y="1080" type="line"/>
      <point x="351" y="637" type="line" smooth="yes"/>
      <point x="351" y="456"/>
      <point x="182" y="287"/>
      <point x="0" y="287" type="qcurve" smooth="yes"/>
      <point x="-20" y="287" type="line"/>
      <point x="-20" y="374" type="line"/>
      <point x="0" y="374" type="line" smooth="yes"/>
      <point x="137" y="374"/>
      <point x="264" y="501"/>
      <point x="264" y="637" type="qcurve" smooth="yes"/>
    </contour>
  </outline>
</glyph>
<glyph name="lightarcuprightbxd" format="2">
  <advance width="614"/>
  <unicode hex="2570"/>
  <outline>
    <contour>
      <point x="264" y="637" type="qcurve" smooth="yes"/>
      <point x="264" y="1080" type="line"/>
      <point x="351" y="1080" type="line"/>
      <point x="351" y="637" type="line" smooth="yes"/>
      <point x="351" y="500"/>
      <point x="478" y="374"/>
      <point x="614" y="374" type="qcurve" smooth="yes"/>
      <point x="634" y="374" type="line"/>
      <point x="634" y="287" type="line"/>
      <point x="614" y="287" type="line" smooth="yes"/>
      <point x="432" y="287"/>
      <point x="264" y="456"/>
    </contour>
  </outline>
</glyph>
<glyph name="lightdiaguprightdnleftbxd" format="2">
  <advance width="614"/>
  <unicode hex="2571"/>
  <outline>
    <contour>
      <point x="0" y="-305" type="line"/>
      <point x="550" y="1020" type="line"/>
      <point x="614" y="1020" type="line"/>
      <point x="614" y="965" type="line"/>
      <point x="64" y="-360" type="line"/>
      <point x="0" y="-360" type="line"/>
    </contour>
  </outline>
</glyph>
<glyph name="lightleftbxd" format="2">
  <advance width="614"/>
  <unicode hex="2574"/>
  <outline>
    <contour>
      <point x="351" y="287" type="line"/>
      <point x="-20" y="287" type="line"/>
      <point x="-20" y="374" type="line"/>
      <point x="351" y="374" type="line"/>
    </contour>
  </outline>
</glyph>
<glyph name="heavyupbxd" format="2">
  <advance width="614"/>
  <unicode hex="2579"/>
  <outline>
    <contour>
      <point x="393" y="287" type="line"/>
      <point x="221" y="287" type="line"/>
      <point x="221" y="1080" type="line"/>
      <point x="393" y="1080" type="line"/>
    </contour>
  </outline>
</glyph>
<glyph name="heavyrightbxd" format="2">
  <advance width="614"/>
  <unicode hex="257A"/>
  <outline>
    <contour>
      <point x="634" y="244" type="line"/>
      <point x="264" y="244" type="line"/>
      <point x="264" y="416" type="line"/>
      <point x="634" y="416" type="line"/>
    </contour>
  </outline>
</glyph>
<glyph name="uni2612" format="2">
  <advance width="614"/>
  <unicode hex="2612"/>
  <outline>
    <contour>
      <point x="517" y="70" type="line"/>
      <point x="3" y="70" type="line"/>
      <point x="151" y="585" type="line"/>
      <point x="665" y="585" type="line"/>
    </contour>
    <contour>
      <point x="549" y="531" type="line"/>
      <point x="236" y="531" type="line"/>
      <point x="344" y="361" type="line"/>
    </contour>
    <contour>
      <point x="300" y="330" type="line"/>
      <point x="190" y="497" type="line"/>
      <point x="94" y="164" type="line"/>
    </contour>
    <contour>
      <point x="573" y="488" type="line"/>
      <point x="372" y="322" type="line"/>
      <point x="479" y="158" type="line"/>
    </contour>
    <contour>
      <point x="329" y="292" type="line"/>
      <point x="120" y="124" type="line"/>
      <point x="433" y="124" type="line"/>
    </contour>
  </outline>
</glyph>
<glyph name="uniE0A0" format="2">
  <advance width="614"/>
  <unicode hex="E0A0"/>
  <outline>
    <contour>
      <point x="46" y="234" type="line"/>
      <point x="272" y="1020" type="line"/>
      <point x="348" y="1020" type="line"/>
      <point x="140" y="295" type="line"/>
    </contour>
    <contour>
      <point x="-123" y="-360" type="line"/>
      <point x="-76" y="-198" type="line" smooth="yes"/>
      <point x="-26" y="-22"/>
      <point x="83" y="112"/>
      <point x="233" y="182" type="qcurve" smooth="yes"/>
      <point x="321" y="223"/>
      <point x="388" y="294"/>
      <point x="417" y="396" type="qcurve" smooth="yes"/>
      <point x="453" y="522" type="line"/>
      <point x="297" y="522" type="line"/>
      <point x="298" y="526" type="line"/>
      <point x="552" y="737" type="line"/>
      <point x="556" y="737" type="line"/>
      <point x="688" y="526" type="line"/>
      <point x="686" y="522" type="line"/>
      <point x="530" y="522" type="line"/>
      <point x="492" y="389" type="line" smooth="yes"/>
      <point x="457" y="267"/>
      <point x="364" y="172"/>
      <point x="244" y="114" type="qcurve" smooth="yes"/>
      <point x="130" y="60"/>
      <point x="46" y="-39"/>
      <point x="-3" y="-209" type="qcurve" smooth="yes"/>
      <point x="-46" y="-360" type="line"/>
    </contour>
  </outline>
</glyph>
<glyph name="uniE0B1" format="2">
  <advance width="614"/>
  <unicode hex="E0B1"/>
  <outline>
    <contour>
      <point x="289" y="655" type="line"/>
      <point x="580" y="329" type="line"/>
      <point x="579" y="326" type="line"/>
      <point x="579" y="325" type="line"/>
      <point x="127" y="0" type="line"/>
      <point x="3" y="0" type="line"/>
      <point x="4" y="4" type="line"/>
      <point x="465" y="338" type="line"/>
      <point x="190" y="651" type="line"/>
      <point x="191" y="655" type="line"/>
    </contour>
  </outline>
</glyph>
<glyph name="ampersand_ampersand.liga" format="2">
  <advance width="614"/>
  <outline>
    <contour>
      <point x="-555" y="128" type="qcurve" smooth="yes"/>
      <point x="-555" y="180"/>
      <point x="-529" y="253"/>
      <point x="-501" y="282" type="qcurve" smooth="yes"/>
      <point x="-477" y="306"/>
      <point x="-386" y="344"/>
      <point x="-300" y="368" type="qcurve"/>
      <point x="-327" y="438"/>
      <point x="-340" y="488"/>
      <point x="-340" y="508" type="qcurve" smooth="yes"/>
      <point x="-340" y="578"/>
      <point x="-235" y="669"/>
      <point x="-152" y="669" type="qcurve" smooth="yes"/>
      <point x="-117" y="669"/>
      <point x="-41" y="659"/>
      <point x="9" y="649" type="qcurve"/>
      <point x="-9" y="581" type="line"/>
      <point x="-58" y="591"/>
      <point x="-122" y="600"/>
      <point x="-148" y="600" type="qcurve" smooth="yes"/>
      <point x="-196" y="600"/>
      <point x="-255" y="547"/>
      <point x="-255" y="505" type="qcurve" smooth="yes"/>
      <point x="-255" y="493"/>
      <point x="-248" y="462"/>
      <point x="-237" y="432" type="qcurve" smooth="yes"/>
      <point x="-170" y="255" type="line"/>
      <point x="-65" y="434" type="line"/>
      <point x="0" y="401" type="line"/>
      <point x="-139" y="183" type="line"/>
      <point x="-67" y="0" type="line"/>
      <point x="-157" y="0" type="line"/>
      <point x="-197" y="112" type="line"/>
      <point x="-252" y="45"/>
      <point x="-346" y="-8"/>
      <point x="-412" y="-8" type="qcurve" smooth="yes"/>
      <point x="-480" y="-8"/>
      <point x="-555" y="63"/>
    </contour>
    <contour>
      <point x="-436" y="241" type="qcurve" smooth="yes"/>
      <point x="-453" y="224"/>
      <point x="-469" y="175"/>
      <point x="-469" y="140" type="qcurve" smooth="yes"/>
      <point x="-469" y="103"/>
      <point x="-431" y="65"/>
      <point x="-394" y="65" type="qcurve" smooth="yes"/>
      <point x="-347" y="65"/>
      <point x="-275" y="115"/>
      <point x="-228" y="179" type="qcurve"/>
      <point x="-278" y="310" type="line"/>
      <point x="-350" y="288"/>
      <point x="-417" y="260"/>
    </contour>
    <contour>
      <point x="-3" y="128" type="qcurve" smooth="yes"/>
      <point x="-3" y="180"/>
      <point x="23" y="253"/>
      <point x="52" y="282" type="qcurve" smooth="yes"/>
      <point x="76" y="306"/>
      <point x="167" y="345"/>
      <point x="252" y="367" type="qcurve"/>
      <point x="227" y="430"/>
      <point x="212" y="486"/>
      <point x="212" y="508" type="qcurve" smooth="yes"/>
      <point x="212" y="578"/>
      <point x="318" y="669"/>
      <point x="401" y="669" type="qcurve" smooth="yes"/>
      <point x="436" y="669"/>
      <point x="512" y="659"/>
      <point x="561" y="649" type="qcurve"/>
      <point x="543" y="581" type="line"/>
      <point x="495" y="591"/>
      <point x="431" y="600"/>
      <point x="404" y="600" type="qcurve" smooth="yes"/>
      <point x="356" y="600"/>
      <point x="297" y="547"/>
      <point x="297" y="505" type="qcurve" smooth="yes"/>
      <point x="297" y="489"/>
      <point x="306" y="454"/>
      <point x="315" y="432" type="qcurve" smooth="yes"/>
      <point x="387" y="257" type="line"/>
      <point x="507" y="434" type="line"/>
      <point x="570" y="396" type="line"/>
      <point x="420" y="188" type="line"/>
      <point x="499" y="0" type="line"/>
      <point x="409" y="0" type="line"/>
      <point x="360" y="119" type="line"/>
      <point x="303" y="48"/>
      <point x="207" y="-8"/>
      <point x="140" y="-8" type="qcurve" smooth="yes"/>
      <point x="72" y="-8"/>
      <point x="-3" y="63"/>
    </contour>
    <contour>
      <point x="116" y="241" type="qcurve" smooth="yes"/>
      <point x="99" y="224"/>
      <point x="83" y="175"/>
      <point x="83" y="140" type="qcurve" smooth="yes"/>
      <point x="83" y="103"/>
      <point x="121" y="65"/>
      <point x="158" y="65" type="qcurve" smooth="yes"/>
      <point x="206" y="65"/>
      <point x="279" y="117"/>
      <point x="328" y="185" type="qcurve"/>
      <point x="276" y="310" type="line"/>
      <point x="201" y="288"/>
      <point x="135" y="260"/>
    </contour>
  </outline>
</glyph>
<glyph name="asciitilde_asciitilde.liga" format="2">
  <advance width="614"/>
  <outline>
    <contour>
      <point x="236" y="294" type="qcurve" smooth="yes"/>
      <point x="195" y="329"/>
      <point x="153" y="357"/>
      <point x="137" y="357" type="qcurve" smooth="yes"/>
      <point x="119" y="357"/>
      <point x="77" y="330"/>
      <point x="40" y="298" type="qcurve" smooth="yes"/>
      <point x="-4" y="259"/>
      <point x="-60" y="226"/>
      <point x="-87" y="226" type="qcurve" smooth="yes"/>
      <point x="-114" y="226"/>
      <point x="-165" y="255"/>
      <point x="-211" y="294" type="qcurve" smooth="yes"/>
      <point x="-259" y="334"/>
      <point x="-292" y="357"/>
      <point x="-304" y="357" type="qcurve" smooth="yes"/>
      <point x="-322" y="357"/>
      <point x="-366" y="302"/>
      <point x="-420" y="215" type="qcurve"/>
      <point x="-484" y="254" type="line"/>
      <point x="-420" y="361"/>
      <point x="-346" y="441"/>
      <point x="-301" y="441" type="qcurve" smooth="yes"/>
      <point x="-278" y="441"/>
      <point x="-234" y="415"/>
      <point x="-184" y="373" type="qcurve" smooth="yes"/>
      <point x="-143" y="338"/>
      <point x="-101" y="310"/>
      <point x="-85" y="310" type="qcurve" smooth="yes"/>
      <point x="-67" y="310"/>
      <point x="-25" y="337"/>
      <point x="12" y="369" type="qcurve" smooth="yes"/>
      <point x="57" y="408"/>
      <point x="113" y="441"/>
      <point x="139" y="441" type="qcurve" smooth="yes"/>
      <point x="166" y="441"/>
      <point x="217" y="412"/>
      <point x="263" y="373" type="qcurve" smooth="yes"/>
      <point x="308" y="335"/>
      <point x="343" y="310"/>
      <point x="355" y="310" type="qcurve" smooth="yes"/>
      <point x="373" y="310"/>
      <point x="416" y="362"/>
      <point x="472" y="452" type="qcurve"/>
      <point x="536" y="413" type="line"/>
      <point x="473" y="307"/>
      <point x="398" y="226"/>
      <point x="353" y="226" type="qcurve" smooth="yes"/>
      <point x="330" y="226"/>
      <point x="284" y="253"/>
    </contour>
  </outline>
</glyph>
<glyph name="asciitilde_asciitilde_greater" format="2">
  <advance width="614"/>
  <outline>
    <contour>
      <point x="57" y="443" type="qcurve" smooth="yes"/>
      <point x="81" y="443"/>
      <point x="127" y="417"/>
      <point x="166" y="382" type="qcurve" smooth="yes"/>
      <point x="201" y="350"/>
      <point x="227" y="334"/>
      <point x="241" y="334" type="qcurve" smooth="yes"/>
      <point x="255" y="334"/>
      <point x="326" y="346"/>
      <point x="420" y="364" type="qcurve"/>
      <point x="204" y="624" type="line"/>
      <point x="260" y="665" type="line"/>
      <point x="551" y="315" type="line"/>
      <point x="550" y="311" type="line"/>
      <point x="116" y="-11" type="line"/>
      <point x="72" y="44" type="line"/>
      <point x="428" y="306" type="line"/>
      <point x="313" y="277"/>
      <point x="242" y="262"/>
      <point x="226" y="262" type="qcurve" smooth="yes"/>
      <point x="202" y="262"/>
      <point x="163" y="284"/>
      <point x="129" y="315" type="qcurve" smooth="yes"/>
      <point x="101" y="340"/>
      <point x="71" y="359"/>
      <point x="55" y="359" type="qcurve" smooth="yes"/>
      <point x="38" y="359"/>
      <point x="-4" y="332"/>
      <point x="-42" y="300" type="qcurve" smooth="yes"/>
      <point x="-86" y="261"/>
      <point x="-142" y="228"/>
      <point x="-169" y="228" type="qcurve" smooth="yes"/>
      <point x="-196" y="228"/>
      <point x="-247" y="257"/>
      <point x="-293" y="296" type="qcurve" smooth="yes"/>
      <point x="-338" y="334"/>
      <point x="-373" y="359"/>
      <point x="-385" y="359" type="qcurve" smooth="yes"/>
      <point x="-403" y="359"/>
      <point x="-445" y="332"/>
      <point x="-482" y="300" type="qcurve" smooth="yes"/>
      <point x="-526" y="261"/>
      <point x="-582" y="228"/>
      <point x="-609" y="228" type="qcurve" smooth="yes"/>
      <point x="-636" y="228"/>
      <point x="-687" y="257"/>
      <point x="-733" y="296" type="qcurve" smooth="yes"/>
      <point x="-778" y="334"/>
      <point x="-813" y="359"/>
      <point x="-825" y="359" type="qcurve" smooth="yes"/>
      <point x="-843" y="359"/>
      <point x="-886" y="307"/>
      <point x="-942" y="217" type="qcurve"/>
      <point x="-1006" y="255" type="line"/>
      <point x="-942" y="362"/>
      <point x="-868" y="443"/>
      <point x="-823" y="443" type="qcurve" smooth="yes"/>
      <point x="-800" y="443"/>
      <point x="-754" y="416"/>
      <point x="-706" y="375" type="qcurve" smooth="yes"/>
      <point x="-665" y="340"/>
      <point x="-623" y="312"/>
      <point x="-607" y="312" type="qcurve" smooth="yes"/>
      <point x="-588" y="312"/>
      <point x="-546" y="339"/>
      <point x="-510" y="371" type="qcurve" smooth="yes"/>
      <point x="-465" y="410"/>
      <point x="-409" y="443"/>
      <point x="-383" y="443" type="qcurve" smooth="yes"/>
      <point x="-360" y="443"/>
      <point x="-314" y="416"/>
      <point x="-265" y="375" type="qcurve" smooth="yes"/>
      <point x="-225" y="340"/>
      <point x="-183" y="312"/>
      <point x="-167" y="312" type="qcurve" smooth="yes"/>
      <point x="-148" y="312"/>
      <point x="-106" y="339"/>
      <point x="-70" y="371" type="qcurve" smooth="yes"/>
      <point x="-25" y="410"/>
      <point x="31" y="443"/>
    </contour>
  </outline>
</glyph>
<glyph name="asciitilde_at.liga" format="2">
  <advance width="614"/>
  <outline>
    <contour>
      <point x="533" y="567" type="qcurve" smooth="yes"/>
      <point x="533" y="626"/>
      <point x="475" y="677"/>
      <point x="405" y="677" type="qcurve" smooth="yes"/>
      <point x="293" y="677"/>
      <point x="172" y="596"/>
      <point x="58" y="424" type="qcurve" smooth="yes"/>
      <point x="-21" y="306"/>
      <point x="-103" y="222"/>
      <point x="-144" y="222" type="qcurve" smooth="yes"/>
      <point x="-165" y="222"/>
      <point x="-209" y="248"/>
      <point x="-262" y="294" type="qcurve" smooth="yes"/>
      <point x="-309" y="334"/>
      <point x="-342" y="357"/>
      <point x="-354" y="357" type="qcurve" smooth="yes"/>
      <point x="-369" y="357"/>
      <point x="-403" y="316"/>
      <point x="-466" y="215" type="qcurve"/>
      <point x="-530" y="254" type="line"/>
      <point x="-465" y="363"/>
      <point x="-394" y="441"/>
      <point x="-352" y="441" type="qcurve" smooth="yes"/>
      <point x="-329" y="441"/>
      <point x="-285" y="415"/>
      <point x="-235" y="373" type="qcurve" smooth="yes"/>
      <point x="-186" y="331"/>
      <point x="-143" y="302"/>
      <point x="-125" y="302" type="qcurve" smooth="yes"/>
      <point x="-101" y="302"/>
      <point x="-42" y="365"/>
      <point x="13" y="447" type="qcurve" smooth="yes"/>
      <point x="128" y="618"/>
      <point x="282" y="725"/>
      <point x="406" y="725" type="qcurve" smooth="yes"/>
      <point x="505" y="725"/>
      <point x="586" y="655"/>
      <point x="586" y="574" type="qcurve" smooth="yes"/>
      <point x="586" y="485"/>
      <point x="512" y="228"/>
      <point x="466" y="181" type="qcurve" smooth="yes"/>
      <point x="439" y="154"/>
      <point x="366" y="129"/>
      <point x="315" y="129" type="qcurve" smooth="yes"/>
      <point x="233" y="129"/>
      <point x="154" y="187"/>
      <point x="154" y="246" type="qcurve" smooth="yes"/>
      <point x="154" y="300"/>
      <point x="198" y="422"/>
      <point x="232" y="456" type="qcurve" smooth="yes"/>
      <point x="263" y="486"/>
      <point x="352" y="515"/>
      <point x="416" y="515" type="qcurve" smooth="yes"/>
      <point x="529" y="515" type="line"/>
      <point x="532" y="544"/>
      <point x="533" y="561"/>
    </contour>
    <contour>
      <point x="222" y="254" type="qcurve" smooth="yes"/>
      <point x="222" y="219"/>
      <point x="266" y="187"/>
      <point x="315" y="187" type="qcurve" smooth="yes"/>
      <point x="356" y="187"/>
      <point x="410" y="205"/>
      <point x="429" y="225" type="qcurve" smooth="yes"/>
      <point x="453" y="249"/>
      <point x="502" y="378"/>
      <point x="518" y="457" type="qcurve"/>
      <point x="395" y="457" type="line" smooth="yes"/>
      <point x="358" y="457"/>
      <point x="303" y="438"/>
      <point x="284" y="419" type="qcurve" smooth="yes"/>
      <point x="258" y="394"/>
      <point x="222" y="296"/>
    </contour>
  </outline>
</glyph>
<glyph name="asciitilde_greater.liga" format="2">
  <advance width="614"/>
  <outline>
    <contour>
      <point x="-26" y="371" type="qcurve" smooth="yes"/>
      <point x="18" y="410"/>
      <point x="73" y="443"/>
      <point x="99" y="443" type="qcurve" smooth="yes"/>
      <point x="123" y="443"/>
      <point x="166" y="420"/>
      <point x="195" y="392" type="qcurve"/>
      <point x="240" y="353"/>
      <point x="261" y="341"/>
      <point x="274" y="341" type="qcurve" smooth="yes"/>
      <point x="290" y="341"/>
      <point x="361" y="352"/>
      <point x="421" y="363" type="qcurve"/>
      <point x="204" y="624" type="line"/>
      <point x="260" y="665" type="line"/>
      <point x="551" y="315" type="line"/>
      <point x="550" y="311" type="line"/>
      <point x="116" y="-11" type="line"/>
      <point x="72" y="44" type="line"/>
      <point x="424" y="303" type="line"/>
      <point x="352" y="284"/>
      <point x="272" y="268"/>
      <point x="251" y="268" type="qcurve" smooth="yes"/>
      <point x="234" y="268"/>
      <point x="205" y="284"/>
      <point x="158" y="326" type="qcurve" smooth="yes"/>
      <point x="137" y="344"/>
      <point x="112" y="359"/>
      <point x="97" y="359" type="qcurve" smooth="yes"/>
      <point x="80" y="359"/>
      <point x="40" y="332"/>
      <point x="2" y="300" type="qcurve" smooth="yes"/>
      <point x="-42" y="261"/>
      <point x="-98" y="228"/>
      <point x="-125" y="228" type="qcurve" smooth="yes"/>
      <point x="-152" y="228"/>
      <point x="-203" y="257"/>
      <point x="-250" y="296" type="qcurve" smooth="yes"/>
      <point x="-297" y="336"/>
      <point x="-330" y="359"/>
      <point x="-342" y="359" type="qcurve" smooth="yes"/>
      <point x="-360" y="359"/>
      <point x="-403" y="307"/>
      <point x="-459" y="217" type="qcurve"/>
      <point x="-523" y="255" type="line"/>
      <point x="-458" y="363"/>
      <point x="-384" y="443"/>
      <point x="-340" y="443" type="qcurve" smooth="yes"/>
      <point x="-317" y="443"/>
      <point x="-271" y="416"/>
      <point x="-222" y="375" type="qcurve" smooth="yes"/>
      <point x="-181" y="340"/>
      <point x="-139" y="312"/>
      <point x="-123" y="312" type="qcurve" smooth="yes"/>
      <point x="-105" y="312"/>
      <point x="-63" y="339"/>
    </contour>
  </outline>
</glyph>
<glyph name="asciitilde_hyphen.liga" format="2">
  <advance width="614"/>
  <outline>
    <contour>
      <point x="-93" y="241" type="qcurve" smooth="yes"/>
      <point x="-121" y="241"/>
      <point x="-169" y="266"/>
      <point x="-202" y="294" type="qcurve" smooth="yes"/>
      <point x="-247" y="332"/>
      <point x="-282" y="357"/>
      <point x="-294" y="357" type="qcurve" smooth="yes"/>
      <point x="-309" y="357"/>
      <point x="-343" y="315"/>
      <point x="-405" y="215" type="qcurve"/>
      <point x="-469" y="254" type="line"/>
      <point x="-406" y="362"/>
      <point x="-334" y="441"/>
      <point x="-292" y="441" type="qcurve" smooth="yes"/>
      <point x="-269" y="441"/>
      <point x="-223" y="414"/>
      <point x="-174" y="373" type="qcurve" smooth="yes"/>
      <point x="-135" y="340"/>
      <point x="-97" y="317"/>
      <point x="-78" y="317" type="qcurve" smooth="yes"/>
      <point x="-71" y="317"/>
      <point x="-54" y="323"/>
      <point x="-34" y="333" type="qcurve" smooth="yes"/>
      <point x="1" y="351"/>
      <point x="47" y="363"/>
      <point x="70" y="363" type="qcurve" smooth="yes"/>
      <point x="505" y="363" type="line"/>
      <point x="484" y="292" type="line"/>
      <point x="61" y="292" type="line" smooth="yes"/>
      <point x="42" y="292"/>
      <point x="4" y="281"/>
      <point x="-27" y="264" type="qcurve" smooth="yes"/>
      <point x="-53" y="250"/>
      <point x="-80" y="241"/>
    </contour>
  </outline>
</glyph>
<glyph name="backslash_slash.liga" format="2">
  <advance width="614"/>
  <outline>
    <contour>
      <point x="-116" y="0" type="line"/>
      <point x="-297" y="655" type="line"/>
      <point x="-217" y="655" type="line"/>
      <point x="-54" y="68" type="line"/>
      <point x="446" y="655" type="line"/>
      <point x="539" y="655" type="line"/>
      <point x="-17" y="0" type="line"/>
    </contour>
  </outline>
</glyph>
<glyph name="bar_bar_equal.start" format="2">
  <advance width="614"/>
  <outline>
    <contour>
      <point x="634" y="266" type="line"/>
      <point x="613" y="194" type="line"/>
      <point x="-575" y="194" type="line"/>
      <point x="-659" y="-100" type="line"/>
      <point x="-739" y="-100" type="line"/>
      <point x="-494" y="755" type="line"/>
      <point x="-414" y="755" type="line"/>
      <point x="-498" y="461" type="line"/>
      <point x="689" y="461" type="line"/>
      <point x="669" y="390" type="line"/>
      <point x="-519" y="390" type="line"/>
      <point x="-554" y="266" type="line"/>
    </contour>
    <contour>
      <point x="-1056" y="-100" type="line"/>
      <point x="-811" y="755" type="line"/>
      <point x="-731" y="755" type="line"/>
      <point x="-976" y="-100" type="line"/>
    </contour>
  </outline>
</glyph>
<glyph name="bar_bar_hyphen.start" format="2">
  <advance width="614"/>
  <outline>
    <contour>
      <point x="-811" y="755" type="line"/>
      <point x="-731" y="755" type="line"/>
      <point x="-976" y="-100" type="line"/>
      <point x="-1056" y="-100" type="line"/>
    </contour>
    <contour>
      <point x="662" y="363" type="line"/>
      <point x="641" y="292" type="line"/>
      <point x="-545" y="292" type="line"/>
      <point x="-657" y="-100" type="line"/>
      <point x="-737" y="-100" type="line"/>
      <point x="-492" y="755" type="line"/>
      <point x="-412" y="755" type="line"/>
      <point x="-524" y="363" type="line"/>
    </contour>
  </outline>
</glyph>
<glyph name="bar_braceright.liga" format="2">
  <advance width="614"/>
  <outline>
    <contour>
      <point x="277" y="-1" type="qcurve" smooth="yes"/>
      <point x="277" y="-47"/>
      <point x="211" y="-99"/>
      <point x="147" y="-105" type="qcurve" smooth="yes"/>
      <point x="-171" y="-132" type="line"/>
      <point x="-151" y="-60" type="line"/>
      <point x="136" y="-36" type="line" smooth="yes"/>
      <point x="162" y="-34"/>
      <point x="188" y="-16"/>
      <point x="188" y="0" type="qcurve" smooth="yes"/>
      <point x="188" y="9"/>
      <point x="179" y="30"/>
      <point x="170" y="44" type="qcurve" smooth="yes"/>
      <point x="137" y="100" type="line" smooth="yes"/>
      <point x="117" y="132"/>
      <point x="103" y="166"/>
      <point x="103" y="182" type="qcurve" smooth="yes"/>
      <point x="103" y="229"/>
      <point x="245" y="293"/>
      <point x="407" y="330" type="qcurve"/>
      <point x="411" y="343" type="line"/>
      <point x="282" y="379"/>
      <point x="188" y="425"/>
      <point x="188" y="461" type="qcurve" smooth="yes"/>
      <point x="188" y="483"/>
      <point x="223" y="527"/>
      <point x="270" y="567" type="qcurve" smooth="yes"/>
      <point x="332" y="620" type="line" smooth="yes"/>
      <point x="360" y="644"/>
      <point x="378" y="666"/>
      <point x="378" y="676" type="qcurve" smooth="yes"/>
      <point x="378" y="686"/>
      <point x="363" y="698"/>
      <point x="348" y="699" type="qcurve" smooth="yes"/>
      <point x="73" y="718" type="line"/>
      <point x="94" y="789" type="line"/>
      <point x="375" y="770" type="line" smooth="yes"/>
      <point x="423" y="767"/>
      <point x="472" y="729"/>
      <point x="472" y="696" type="qcurve" smooth="yes"/>
      <point x="472" y="669"/>
      <point x="439" y="621"/>
      <point x="394" y="583" type="qcurve" smooth="yes"/>
      <point x="331" y="529" type="line" smooth="yes"/>
      <point x="298" y="500"/>
      <point x="281" y="478"/>
      <point x="281" y="466" type="qcurve" smooth="yes"/>
      <point x="281" y="447"/>
      <point x="386" y="404"/>
      <point x="506" y="370" type="qcurve"/>
      <point x="483" y="292" type="line"/>
      <point x="317" y="250"/>
      <point x="197" y="205"/>
      <point x="197" y="177" type="qcurve" smooth="yes"/>
      <point x="197" y="169"/>
      <point x="206" y="146"/>
      <point x="216" y="130" type="qcurve" smooth="yes"/>
      <point x="249" y="75" type="line" smooth="yes"/>
      <point x="264" y="48"/>
      <point x="277" y="14"/>
    </contour>
    <contour>
      <point x="-370" y="-129" type="line"/>
      <point x="-450" y="-129" type="line"/>
      <point x="-188" y="783" type="line"/>
      <point x="-108" y="783" type="line"/>
    </contour>
  </outline>
</glyph>
<glyph name="bar_bracketright.liga" format="2">
  <advance width="614"/>
  <outline>
    <contour>
      <point x="-370" y="-129" type="line"/>
      <point x="-451" y="-129" type="line"/>
      <point x="-189" y="783" type="line"/>
      <point x="-109" y="783" type="line"/>
    </contour>
    <contour>
      <point x="195" y="-129" type="line"/>
      <point x="-175" y="-129" type="line"/>
      <point x="-155" y="-57" type="line"/>
      <point x="129" y="-57" type="line"/>
      <point x="348" y="711" type="line"/>
      <point x="66" y="711" type="line"/>
      <point x="86" y="783" type="line"/>
      <point x="456" y="783" type="line"/>
    </contour>
  </outline>
</glyph>
<glyph name="braceleft_bar.liga" format="2">
  <advance width="614"/>
  <outline>
    <contour>
      <point x="-414" y="-34" type="qcurve" smooth="yes"/>
      <point x="-414" y="-7"/>
      <point x="-381" y="41"/>
      <point x="-336" y="79" type="qcurve" smooth="yes"/>
      <point x="-273" y="134" type="line" smooth="yes"/>
      <point x="-241" y="162"/>
      <point x="-223" y="184"/>
      <point x="-223" y="196" type="qcurve" smooth="yes"/>
      <point x="-223" y="215"/>
      <point x="-329" y="259"/>
      <point x="-448" y="292" type="qcurve"/>
      <point x="-425" y="370" type="line"/>
      <point x="-260" y="412"/>
      <point x="-139" y="457"/>
      <point x="-139" y="485" type="qcurve" smooth="yes"/>
      <point x="-139" y="493"/>
      <point x="-148" y="516"/>
      <point x="-158" y="532" type="qcurve" smooth="yes"/>
      <point x="-190" y="587" type="line" smooth="yes"/>
      <point x="-206" y="615"/>
      <point x="-219" y="649"/>
      <point x="-219" y="663" type="qcurve" smooth="yes"/>
      <point x="-219" y="709"/>
      <point x="-153" y="762"/>
      <point x="-89" y="767" type="qcurve" smooth="yes"/>
      <point x="231" y="789" type="line"/>
      <point x="210" y="717" type="line"/>
      <point x="-78" y="698" type="line" smooth="yes"/>
      <point x="-104" y="696"/>
      <point x="-130" y="678"/>
      <point x="-130" y="662" type="qcurve" smooth="yes"/>
      <point x="-130" y="653"/>
      <point x="-121" y="632"/>
      <point x="-112" y="618" type="qcurve" smooth="yes"/>
      <point x="-79" y="562" type="line" smooth="yes"/>
      <point x="-59" y="530"/>
      <point x="-45" y="496"/>
      <point x="-45" y="480" type="qcurve" smooth="yes"/>
      <point x="-45" y="433"/>
      <point x="-188" y="369"/>
      <point x="-351" y="331" type="qcurve"/>
      <point x="-355" y="320" type="line"/>
      <point x="-222" y="283"/>
      <point x="-129" y="237"/>
      <point x="-129" y="201" type="qcurve" smooth="yes"/>
      <point x="-129" y="179"/>
      <point x="-165" y="135"/>
      <point x="-212" y="95" type="qcurve" smooth="yes"/>
      <point x="-274" y="42" type="line" smooth="yes"/>
      <point x="-302" y="18"/>
      <point x="-320" y="-4"/>
      <point x="-320" y="-14" type="qcurve" smooth="yes"/>
      <point x="-320" y="-24"/>
      <point x="-305" y="-36"/>
      <point x="-290" y="-37" type="qcurve" smooth="yes"/>
      <point x="-16" y="-59" type="line"/>
      <point x="-36" y="-130" type="line"/>
      <point x="-317" y="-108" type="line" smooth="yes"/>
      <point x="-365" y="-104"/>
      <point x="-414" y="-67"/>
    </contour>
    <contour>
      <point x="425" y="783" type="line"/>
      <point x="506" y="783" type="line"/>
      <point x="244" y="-129" type="line"/>
      <point x="163" y="-129" type="line"/>
    </contour>
  </outline>
</glyph>
<glyph name="bracketleft_bar.liga" format="2">
  <advance width="614"/>
  <outline>
    <contour>
      <point x="425" y="783" type="line"/>
      <point x="505" y="783" type="line"/>
      <point x="244" y="-129" type="line"/>
      <point x="163" y="-129" type="line"/>
    </contour>
    <contour>
      <point x="-32" y="-129" type="line"/>
      <point x="-402" y="-129" type="line"/>
      <point x="-141" y="783" type="line"/>
      <point x="230" y="783" type="line"/>
      <point x="209" y="711" type="line"/>
      <point x="-75" y="711" type="line"/>
      <point x="-294" y="-57" type="line"/>
      <point x="-11" y="-57" type="line"/>
    </contour>
  </outline>
</glyph>
<glyph name="breveacute" format="2">
  <outline>
    <contour>
      <point x="97" y="733" type="line"/>
      <point x="73" y="779" type="line"/>
      <point x="337" y="912" type="line"/>
      <point x="363" y="851" type="line"/>
    </contour>
    <contour>
      <point x="103" y="605" type="qcurve"/>
      <point x="149" y="605"/>
      <point x="228" y="664"/>
      <point x="268" y="728" type="qcurve"/>
      <point x="323" y="705" type="line"/>
      <point x="277" y="621"/>
      <point x="166" y="541"/>
      <point x="96" y="541" type="qcurve"/>
      <point x="22" y="541"/>
      <point x="-44" y="625"/>
      <point x="-44" y="716" type="qcurve"/>
      <point x="8" y="728" type="line"/>
      <point x="12" y="664"/>
      <point x="57" y="605"/>
    </contour>
  </outline>
</glyph>
<glyph name="brevecmb.cap" format="2">
  <outline>
    <contour>
      <point x="158" y="795" type="qcurve"/>
      <point x="204" y="795"/>
      <point x="282" y="851"/>
      <point x="322" y="913" type="qcurve"/>
      <point x="376" y="891" type="line"/>
      <point x="330" y="809"/>
      <point x="222" y="731"/>
      <point x="153" y="731" type="qcurve"/>
      <point x="78" y="731"/>
      <point x="9" y="812"/>
      <point x="9" y="899" type="qcurve"/>
      <point x="62" y="913" type="line"/>
      <point x="66" y="852"/>
      <point x="111" y="795"/>
    </contour>
  </outline>
</glyph>
<glyph name="brevegrave" format="2">
  <outline>
    <contour>
      <point x="27" y="909" type="line"/>
      <point x="215" y="775" type="line"/>
      <point x="185" y="734" type="line"/>
      <point x="-15" y="854" type="line"/>
    </contour>
    <contour>
      <point x="103" y="605" type="qcurve"/>
      <point x="149" y="605"/>
      <point x="228" y="664"/>
      <point x="268" y="728" type="qcurve"/>
      <point x="323" y="705" type="line"/>
      <point x="277" y="621"/>
      <point x="166" y="541"/>
      <point x="96" y="541" type="qcurve"/>
      <point x="22" y="541"/>
      <point x="-44" y="625"/>
      <point x="-44" y="716" type="qcurve"/>
      <point x="8" y="728" type="line"/>
      <point x="12" y="664"/>
      <point x="58" y="605"/>
    </contour>
  </outline>
</glyph>
<glyph name="circumflexacute.cap" format="2">
  <outline>
    <contour>
      <point x="313" y="893" type="line"/>
      <point x="288" y="939" type="line"/>
      <point x="464" y="1037" type="line"/>
      <point x="494" y="977" type="line"/>
    </contour>
    <contour>
      <point x="-12" y="732" type="line"/>
      <point x="-33" y="776" type="line"/>
      <point x="164" y="904" type="line"/>
      <point x="202" y="904" type="line"/>
      <point x="339" y="769" type="line"/>
      <point x="298" y="732" type="line"/>
      <point x="172" y="833" type="line"/>
    </contour>
  </outline>
</glyph>
<glyph name="circumflexgrave.cap" format="2">
  <outline>
    <contour>
      <point x="301" y="1042" type="line"/>
      <point x="429" y="939" type="line"/>
      <point x="395" y="894" type="line"/>
      <point x="253" y="984" type="line"/>
    </contour>
    <contour>
      <point x="-11" y="732" type="line"/>
      <point x="-34" y="776" type="line"/>
      <point x="164" y="904" type="line"/>
      <point x="202" y="904" type="line"/>
      <point x="339" y="769" type="line"/>
      <point x="298" y="732" type="line"/>
      <point x="172" y="833" type="line"/>
    </contour>
  </outline>
</glyph>
<glyph name="colon_colon_equal.liga" format="2">
  <advance width="614"/>
  <outline>
    <contour>
      <point x="-695" y="516" type="qcurve" smooth="yes"/>
      <point x="-695" y="473"/>
      <point x="-753" y="418"/>
      <point x="-800" y="418" type="qcurve" smooth="yes"/>
      <point x="-838" y="418"/>
      <point x="-879" y="448"/>
      <point x="-879" y="477" type="qcurve" smooth="yes"/>
      <point x="-879" y="518"/>
      <point x="-821" y="574"/>
      <point x="-774" y="574" type="qcurve" smooth="yes"/>
      <point x="-735" y="574"/>
      <point x="-695" y="544"/>
    </contour>
    <contour>
      <point x="-242" y="516" type="qcurve" smooth="yes"/>
      <point x="-242" y="473"/>
      <point x="-300" y="418"/>
      <point x="-347" y="418" type="qcurve" smooth="yes"/>
      <point x="-385" y="418"/>
      <point x="-426" y="448"/>
      <point x="-426" y="477" type="qcurve" smooth="yes"/>
      <point x="-426" y="518"/>
      <point x="-368" y="574"/>
      <point x="-321" y="574" type="qcurve" smooth="yes"/>
      <point x="-282" y="574"/>
      <point x="-242" y="544"/>
    </contour>
    <contour>
      <point x="436" y="390" type="line"/>
      <point x="7" y="390" type="line"/>
      <point x="28" y="461" type="line"/>
      <point x="456" y="461" type="line"/>
    </contour>
    <contour>
      <point x="380" y="194" type="line"/>
      <point x="-49" y="194" type="line"/>
      <point x="-28" y="266" type="line"/>
      <point x="400" y="266" type="line"/>
    </contour>
    <contour>
      <point x="-791" y="179" type="qcurve" smooth="yes"/>
      <point x="-791" y="137"/>
      <point x="-849" y="81"/>
      <point x="-896" y="81" type="qcurve" smooth="yes"/>
      <point x="-934" y="81"/>
      <point x="-975" y="111"/>
      <point x="-975" y="140" type="qcurve" smooth="yes"/>
      <point x="-975" y="181"/>
      <point x="-916" y="237"/>
      <point x="-870" y="237" type="qcurve" smooth="yes"/>
      <point x="-831" y="237"/>
      <point x="-791" y="208"/>
    </contour>
    <contour>
      <point x="-338" y="179" type="qcurve" smooth="yes"/>
      <point x="-338" y="137"/>
      <point x="-396" y="81"/>
      <point x="-443" y="81" type="qcurve" smooth="yes"/>
      <point x="-481" y="81"/>
      <point x="-522" y="111"/>
      <point x="-522" y="140" type="qcurve" smooth="yes"/>
      <point x="-522" y="181"/>
      <point x="-463" y="237"/>
      <point x="-417" y="237" type="qcurve" smooth="yes"/>
      <point x="-378" y="237"/>
      <point x="-338" y="208"/>
    </contour>
  </outline>
</glyph>
<glyph name="colon_equal.liga" format="2">
  <advance width="614"/>
  <outline>
    <contour>
      <point x="-192" y="516" type="qcurve" smooth="yes"/>
      <point x="-192" y="473"/>
      <point x="-250" y="418"/>
      <point x="-297" y="418" type="qcurve" smooth="yes"/>
      <point x="-335" y="418"/>
      <point x="-376" y="448"/>
      <point x="-376" y="477" type="qcurve" smooth="yes"/>
      <point x="-376" y="518"/>
      <point x="-318" y="574"/>
      <point x="-271" y="574" type="qcurve" smooth="yes"/>
      <point x="-232" y="574"/>
      <point x="-192" y="544"/>
    </contour>
    <contour>
      <point x="446" y="390" type="line"/>
      <point x="-26" y="390" type="line"/>
      <point x="-5" y="461" type="line"/>
      <point x="466" y="461" type="line"/>
    </contour>
    <contour>
      <point x="390" y="194" type="line"/>
      <point x="-82" y="194" type="line"/>
      <point x="-61" y="266" type="line"/>
      <point x="410" y="266" type="line"/>
    </contour>
    <contour>
      <point x="-288" y="179" type="qcurve" smooth="yes"/>
      <point x="-288" y="137"/>
      <point x="-346" y="81"/>
      <point x="-393" y="81" type="qcurve" smooth="yes"/>
      <point x="-431" y="81"/>
      <point x="-472" y="111"/>
      <point x="-472" y="140" type="qcurve" smooth="yes"/>
      <point x="-472" y="181"/>
      <point x="-413" y="237"/>
      <point x="-367" y="237" type="qcurve" smooth="yes"/>
      <point x="-328" y="237"/>
      <point x="-288" y="208"/>
    </contour>
  </outline>
</glyph>
<glyph name="colon_greater.liga" format="2">
  <advance width="614"/>
  <outline>
    <contour>
      <point x="506" y="360" type="line"/>
      <point x="484" y="282" type="line"/>
      <point x="-44" y="79" type="line"/>
      <point x="-20" y="164" type="line"/>
      <point x="420" y="327" type="line"/>
      <point x="73" y="489" type="line"/>
      <point x="95" y="563" type="line"/>
    </contour>
    <contour>
      <point x="-129" y="516" type="qcurve" smooth="yes"/>
      <point x="-129" y="473"/>
      <point x="-187" y="418"/>
      <point x="-234" y="418" type="qcurve" smooth="yes"/>
      <point x="-272" y="418"/>
      <point x="-313" y="448"/>
      <point x="-313" y="477" type="qcurve" smooth="yes"/>
      <point x="-313" y="518"/>
      <point x="-255" y="574"/>
      <point x="-208" y="574" type="qcurve" smooth="yes"/>
      <point x="-169" y="574"/>
      <point x="-129" y="544"/>
    </contour>
    <contour>
      <point x="-225" y="179" type="qcurve" smooth="yes"/>
      <point x="-225" y="137"/>
      <point x="-283" y="81"/>
      <point x="-330" y="81" type="qcurve" smooth="yes"/>
      <point x="-368" y="81"/>
      <point x="-409" y="111"/>
      <point x="-409" y="140" type="qcurve" smooth="yes"/>
      <point x="-409" y="181"/>
      <point x="-350" y="237"/>
      <point x="-304" y="237" type="qcurve" smooth="yes"/>
      <point x="-265" y="237"/>
      <point x="-225" y="208"/>
    </contour>
  </outline>
</glyph>
<glyph name="colon_less.liga" format="2">
  <advance width="614"/>
  <outline>
    <contour>
      <point x="-48" y="282" type="line"/>
      <point x="-26" y="361" type="line"/>
      <point x="502" y="563" type="line"/>
      <point x="478" y="478" type="line"/>
      <point x="37" y="316" type="line"/>
      <point x="385" y="153" type="line"/>
      <point x="363" y="79" type="line"/>
    </contour>
    <contour>
      <point x="-131" y="516" type="qcurve" smooth="yes"/>
      <point x="-131" y="473"/>
      <point x="-189" y="418"/>
      <point x="-236" y="418" type="qcurve" smooth="yes"/>
      <point x="-274" y="418"/>
      <point x="-315" y="448"/>
      <point x="-315" y="477" type="qcurve" smooth="yes"/>
      <point x="-315" y="518"/>
      <point x="-257" y="574"/>
      <point x="-210" y="574" type="qcurve" smooth="yes"/>
      <point x="-171" y="574"/>
      <point x="-131" y="544"/>
    </contour>
    <contour>
      <point x="-227" y="179" type="qcurve" smooth="yes"/>
      <point x="-227" y="137"/>
      <point x="-285" y="81"/>
      <point x="-332" y="81" type="qcurve" smooth="yes"/>
      <point x="-370" y="81"/>
      <point x="-411" y="111"/>
      <point x="-411" y="140" type="qcurve" smooth="yes"/>
      <point x="-411" y="181"/>
      <point x="-352" y="237"/>
      <point x="-306" y="237" type="qcurve" smooth="yes"/>
      <point x="-267" y="237"/>
      <point x="-227" y="208"/>
    </contour>
  </outline>
</glyph>
<glyph name="dieresiscaron.cap" format="2">
  <outline>
    <contour>
      <point x="174" y="893" type="line"/>
      <point x="44" y="1039" type="line"/>
      <point x="81" y="1074" type="line"/>
      <point x="203" y="962" type="line"/>
      <point x="390" y="1074" type="line"/>
      <point x="415" y="1032" type="line"/>
      <point x="212" y="893" type="line"/>
    </contour>
    <contour>
      <point x="97" y="822" type="qcurve"/>
      <point x="97" y="791"/>
      <point x="56" y="751"/>
      <point x="24" y="751" type="qcurve"/>
      <point x="-1" y="751"/>
      <point x="-28" y="771"/>
      <point x="-28" y="790" type="qcurve"/>
      <point x="-28" y="819"/>
      <point x="13" y="861"/>
      <point x="45" y="861" type="qcurve"/>
      <point x="71" y="861"/>
      <point x="97" y="842"/>
    </contour>
    <contour>
      <point x="359" y="822" type="qcurve"/>
      <point x="359" y="791"/>
      <point x="318" y="751"/>
      <point x="286" y="751" type="qcurve"/>
      <point x="261" y="751"/>
      <point x="233" y="771"/>
      <point x="233" y="790" type="qcurve"/>
      <point x="233" y="819"/>
      <point x="275" y="861"/>
      <point x="307" y="861" type="qcurve"/>
      <point x="333" y="861"/>
      <point x="359" y="841"/>
    </contour>
  </outline>
</glyph>
<glyph name="dieresiscmb.cap" format="2">
  <outline>
    <contour>
      <point x="99" y="826" type="qcurve"/>
      <point x="99" y="793"/>
      <point x="57" y="751"/>
      <point x="24" y="751" type="qcurve"/>
      <point x="-1" y="751"/>
      <point x="-29" y="773"/>
      <point x="-29" y="792" type="qcurve"/>
      <point x="-29" y="823"/>
      <point x="14" y="868"/>
      <point x="46" y="868" type="qcurve"/>
      <point x="73" y="868"/>
      <point x="99" y="847"/>
    </contour>
    <contour>
      <point x="361" y="826" type="qcurve"/>
      <point x="361" y="793"/>
      <point x="319" y="751"/>
      <point x="286" y="751" type="qcurve"/>
      <point x="260" y="751"/>
      <point x="232" y="773"/>
      <point x="232" y="792" type="qcurve"/>
      <point x="232" y="823"/>
      <point x="276" y="868"/>
      <point x="308" y="868" type="qcurve"/>
      <point x="335" y="868"/>
      <point x="361" y="847"/>
    </contour>
  </outline>
</glyph>
<glyph name="dieresisgrave.cap" format="2">
  <outline>
    <contour>
      <point x="69" y="1070" type="line"/>
      <point x="266" y="942" type="line"/>
      <point x="236" y="896" type="line"/>
      <point x="30" y="1009" type="line"/>
    </contour>
    <contour>
      <point x="97" y="822" type="qcurve"/>
      <point x="97" y="791"/>
      <point x="56" y="751"/>
      <point x="24" y="751" type="qcurve"/>
      <point x="-1" y="751"/>
      <point x="-28" y="771"/>
      <point x="-28" y="790" type="qcurve"/>
      <point x="-28" y="819"/>
      <point x="13" y="861"/>
      <point x="45" y="861" type="qcurve"/>
      <point x="71" y="861"/>
      <point x="97" y="842"/>
    </contour>
    <contour>
      <point x="359" y="822" type="qcurve"/>
      <point x="359" y="791"/>
      <point x="318" y="751"/>
      <point x="286" y="751" type="qcurve"/>
      <point x="261" y="751"/>
      <point x="233" y="771"/>
      <point x="233" y="790" type="qcurve"/>
      <point x="233" y="819"/>
      <point x="275" y="861"/>
      <point x="307" y="861" type="qcurve"/>
      <point x="333" y="861"/>
      <point x="359" y="841"/>
    </contour>
  </outline>
</glyph>
<glyph name="dieresisgrave" format="2">
  <outline>
    <contour>
      <point x="36" y="878" type="line"/>
      <point x="224" y="744" type="line"/>
      <point x="194" y="702" type="line"/>
      <point x="-6" y="822" type="line"/>
    </contour>
    <contour>
      <point x="53" y="627" type="qcurve"/>
      <point x="53" y="599"/>
      <point x="14" y="561"/>
      <point x="-18" y="561" type="qcurve"/>
      <point x="-42" y="561"/>
      <point x="-67" y="580"/>
      <point x="-67" y="597" type="qcurve"/>
      <point x="-67" y="624"/>
      <point x="-26" y="663"/>
      <point x="4" y="663" type="qcurve"/>
      <point x="28" y="663"/>
      <point x="53" y="645"/>
    </contour>
    <contour>
      <point x="287" y="627" type="qcurve"/>
      <point x="287" y="598"/>
      <point x="248" y="561"/>
      <point x="217" y="561" type="qcurve"/>
      <point x="193" y="561"/>
      <point x="168" y="580"/>
      <point x="168" y="597" type="qcurve"/>
      <point x="168" y="625"/>
      <point x="209" y="663"/>
      <point x="239" y="663" type="qcurve"/>
      <point x="262" y="663"/>
      <point x="287" y="644"/>
    </contour>
  </outline>
</glyph>
<glyph name="equal.middle" format="2">
  <advance width="614"/>
  <outline>
    <contour>
      <point x="669" y="390" type="line"/>
      <point x="35" y="390" type="line"/>
      <point x="55" y="461" type="line"/>
      <point x="689" y="461" type="line"/>
    </contour>
    <contour>
      <point x="613" y="194" type="line"/>
      <point x="-21" y="194" type="line"/>
      <point x="0" y="266" type="line"/>
      <point x="634" y="266" type="line"/>
    </contour>
  </outline>
</glyph>
<glyph name="equal_asciitilde.liga" format="2">
  <advance width="614"/>
  <outline>
    <contour>
      <point x="-84" y="569" type="qcurve" smooth="yes"/>
      <point x="-58" y="569"/>
      <point x="-1" y="542"/>
      <point x="60" y="502" type="qcurve" smooth="yes"/>
      <point x="116" y="465"/>
      <point x="164" y="439"/>
      <point x="180" y="439" type="qcurve" smooth="yes"/>
      <point x="200" y="439"/>
      <point x="247" y="494"/>
      <point x="303" y="580" type="qcurve"/>
      <point x="370" y="542" type="line"/>
      <point x="304" y="436"/>
      <point x="224" y="355"/>
      <point x="174" y="355" type="qcurve" smooth="yes"/>
      <point x="146" y="355"/>
      <point x="90" y="382"/>
      <point x="30" y="423" type="qcurve" smooth="yes"/>
      <point x="-23" y="459"/>
      <point x="-72" y="486"/>
      <point x="-90" y="486" type="qcurve" smooth="yes"/>
      <point x="-109" y="486"/>
      <point x="-158" y="430"/>
      <point x="-207" y="354" type="qcurve"/>
      <point x="-273" y="392" type="line"/>
      <point x="-212" y="491"/>
      <point x="-133" y="569"/>
    </contour>
    <contour>
      <point x="-124" y="304" type="qcurve" smooth="yes"/>
      <point x="-99" y="304"/>
      <point x="-43" y="277"/>
      <point x="20" y="236" type="qcurve" smooth="yes"/>
      <point x="76" y="199"/>
      <point x="124" y="173"/>
      <point x="140" y="173" type="qcurve" smooth="yes"/>
      <point x="160" y="173"/>
      <point x="207" y="227"/>
      <point x="257" y="305" type="qcurve"/>
      <point x="323" y="266" type="line"/>
      <point x="262" y="167"/>
      <point x="184" y="89"/>
      <point x="134" y="89" type="qcurve" smooth="yes"/>
      <point x="106" y="89"/>
      <point x="50" y="116"/>
      <point x="-10" y="157" type="qcurve" smooth="yes"/>
      <point x="-63" y="193"/>
      <point x="-112" y="220"/>
      <point x="-130" y="220" type="qcurve" smooth="yes"/>
      <point x="-150" y="220"/>
      <point x="-197" y="164"/>
      <point x="-253" y="78" type="qcurve"/>
      <point x="-319" y="117" type="line"/>
      <point x="-253" y="223"/>
      <point x="-173" y="304"/>
    </contour>
  </outline>
</glyph>
<glyph name="equal_bar.end" format="2">
  <advance width="614"/>
  <outline>
    <contour>
      <point x="256" y="194" type="line"/>
      <point x="-635" y="194" type="line"/>
      <point x="-614" y="266" type="line"/>
      <point x="277" y="266" type="line"/>
      <point x="312" y="390" type="line"/>
      <point x="-579" y="390" type="line"/>
      <point x="-559" y="461" type="line"/>
      <point x="333" y="461" type="line"/>
      <point x="417" y="755" type="line"/>
      <point x="497" y="755" type="line"/>
      <point x="252" y="-100" type="line"/>
      <point x="172" y="-100" type="line"/>
    </contour>
  </outline>
</glyph>
<glyph name="equal_bar.liga" format="2">
  <advance width="614"/>
  <outline>
    <contour>
      <point x="256" y="194" type="line"/>
      <point x="-532" y="194" type="line"/>
      <point x="-512" y="266" type="line"/>
      <point x="277" y="266" type="line"/>
      <point x="312" y="390" type="line"/>
      <point x="-476" y="390" type="line"/>
      <point x="-456" y="461" type="line"/>
      <point x="333" y="461" type="line"/>
      <point x="417" y="755" type="line"/>
      <point x="497" y="755" type="line"/>
      <point x="252" y="-100" type="line"/>
      <point x="172" y="-100" type="line"/>
    </contour>
  </outline>
</glyph>
<glyph name="equal_bar_bar.liga" format="2">
  <advance width="614"/>
  <outline>
    <contour>
      <point x="97" y="755" type="line"/>
      <point x="178" y="755" type="line"/>
      <point x="-67" y="-100" type="line"/>
      <point x="-148" y="-100" type="line"/>
      <point x="-64" y="194" type="line"/>
      <point x="-1146" y="194" type="line"/>
      <point x="-1126" y="266" type="line"/>
      <point x="-43" y="266" type="line"/>
      <point x="-8" y="390" type="line"/>
      <point x="-1090" y="390" type="line"/>
      <point x="-1070" y="461" type="line"/>
      <point x="13" y="461" type="line"/>
    </contour>
    <contour>
      <point x="417" y="755" type="line"/>
      <point x="497" y="755" type="line"/>
      <point x="252" y="-100" type="line"/>
      <point x="172" y="-100" type="line"/>
    </contour>
  </outline>
</glyph>
<glyph name="equal_bar_equal.middle" format="2">
  <advance width="614"/>
  <outline>
    <contour>
      <point x="256" y="194" type="line"/>
      <point x="-21" y="194" type="line"/>
      <point x="0" y="266" type="line"/>
      <point x="277" y="266" type="line"/>
      <point x="312" y="390" type="line"/>
      <point x="35" y="390" type="line"/>
      <point x="55" y="461" type="line"/>
      <point x="333" y="461" type="line"/>
      <point x="417" y="755" type="line"/>
      <point x="497" y="755" type="line"/>
      <point x="413" y="461" type="line"/>
      <point x="689" y="461" type="line"/>
      <point x="669" y="390" type="line"/>
      <point x="392" y="390" type="line"/>
      <point x="357" y="266" type="line"/>
      <point x="634" y="266" type="line"/>
      <point x="613" y="194" type="line"/>
      <point x="336" y="194" type="line"/>
      <point x="252" y="-100" type="line"/>
      <point x="172" y="-100" type="line"/>
    </contour>
  </outline>
</glyph>
<glyph name="equal_colon_equal.middle" format="2">
  <advance width="614"/>
  <outline>
    <contour>
      <point x="475" y="516" type="qcurve" smooth="yes"/>
      <point x="475" y="473"/>
      <point x="417" y="418"/>
      <point x="370" y="418" type="qcurve" smooth="yes"/>
      <point x="332" y="418"/>
      <point x="291" y="448"/>
      <point x="291" y="477" type="qcurve" smooth="yes"/>
      <point x="291" y="518"/>
      <point x="349" y="574"/>
      <point x="396" y="574" type="qcurve" smooth="yes"/>
      <point x="435" y="574"/>
      <point x="475" y="544"/>
    </contour>
    <contour>
      <point x="63" y="390" type="line"/>
      <point x="38" y="390" type="line"/>
      <point x="59" y="461" type="line"/>
      <point x="83" y="461" type="line"/>
    </contour>
    <contour>
      <point x="666" y="390" type="line"/>
      <point x="642" y="390" type="line"/>
      <point x="662" y="461" type="line"/>
      <point x="686" y="461" type="line"/>
    </contour>
    <contour>
      <point x="6" y="194" type="line"/>
      <point x="-18" y="194" type="line"/>
      <point x="3" y="266" type="line"/>
      <point x="27" y="266" type="line"/>
    </contour>
    <contour>
      <point x="610" y="194" type="line"/>
      <point x="586" y="194" type="line"/>
      <point x="606" y="266" type="line"/>
      <point x="630" y="266" type="line"/>
    </contour>
    <contour>
      <point x="379" y="179" type="qcurve" smooth="yes"/>
      <point x="379" y="137"/>
      <point x="321" y="81"/>
      <point x="274" y="81" type="qcurve" smooth="yes"/>
      <point x="236" y="81"/>
      <point x="195" y="111"/>
      <point x="195" y="140" type="qcurve" smooth="yes"/>
      <point x="195" y="181"/>
      <point x="254" y="237"/>
      <point x="300" y="237" type="qcurve" smooth="yes"/>
      <point x="339" y="237"/>
      <point x="379" y="208"/>
    </contour>
  </outline>
</glyph>
<glyph name="equal_exclam_equal.middle" format="2">
  <advance width="614"/>
  <outline>
    <contour>
      <point x="337" y="242" type="line"/>
      <point x="283" y="242" type="line"/>
      <point x="363" y="710" type="line"/>
      <point x="527" y="710" type="line"/>
    </contour>
    <contour>
      <point x="79" y="390" type="line"/>
      <point x="38" y="390" type="line"/>
      <point x="59" y="461" type="line"/>
      <point x="100" y="461" type="line"/>
    </contour>
    <contour>
      <point x="666" y="390" type="line"/>
      <point x="625" y="390" type="line"/>
      <point x="645" y="461" type="line"/>
      <point x="686" y="461" type="line"/>
    </contour>
    <contour>
      <point x="23" y="194" type="line"/>
      <point x="-18" y="194" type="line"/>
      <point x="3" y="266" type="line"/>
      <point x="44" y="266" type="line"/>
    </contour>
    <contour>
      <point x="610" y="194" type="line"/>
      <point x="569" y="194" type="line"/>
      <point x="589" y="266" type="line"/>
      <point x="630" y="266" type="line"/>
    </contour>
    <contour>
      <point x="170" y="35" type="qcurve" smooth="yes"/>
      <point x="170" y="71"/>
      <point x="220" y="114"/>
      <point x="264" y="114" type="qcurve" smooth="yes"/>
      <point x="299" y="114"/>
      <point x="337" y="88"/>
      <point x="337" y="64" type="qcurve" smooth="yes"/>
      <point x="337" y="28"/>
      <point x="286" y="-15"/>
      <point x="242" y="-15" type="qcurve" smooth="yes"/>
      <point x="207" y="-15"/>
      <point x="170" y="11"/>
    </contour>
  </outline>
</glyph>
<glyph name="equal_greater.liga" format="2">
  <advance width="614"/>
  <outline>
    <contour>
      <point x="551" y="315" type="line"/>
      <point x="550" y="311" type="line"/>
      <point x="116" y="-11" type="line"/>
      <point x="72" y="44" type="line"/>
      <point x="276" y="194" type="line"/>
      <point x="-532" y="194" type="line"/>
      <point x="-512" y="266" type="line"/>
      <point x="374" y="266" type="line"/>
      <point x="453" y="324" type="line"/>
      <point x="399" y="390" type="line"/>
      <point x="-476" y="390" type="line"/>
      <point x="-456" y="461" type="line"/>
      <point x="340" y="461" type="line"/>
      <point x="204" y="624" type="line"/>
      <point x="260" y="665" type="line"/>
    </contour>
  </outline>
</glyph>
<glyph name="equal_less.end" format="2">
  <advance width="614"/>
  <outline>
    <contour>
      <point x="594" y="610" type="line"/>
      <point x="293" y="390" type="line"/>
      <point x="-579" y="390" type="line"/>
      <point x="-559" y="461" type="line"/>
      <point x="276" y="461" type="line"/>
      <point x="551" y="665" type="line"/>
    </contour>
    <contour>
      <point x="236" y="194" type="line"/>
      <point x="-635" y="194" type="line"/>
      <point x="-614" y="266" type="line"/>
      <point x="265" y="266" type="line"/>
      <point x="462" y="30" type="line"/>
      <point x="407" y="-11" type="line"/>
    </contour>
  </outline>
</glyph>
<glyph name="equal_less_equal.middle" format="2">
  <advance width="614"/>
  <outline>
    <contour>
      <point x="236" y="194" type="line"/>
      <point x="-21" y="194" type="line"/>
      <point x="0" y="266" type="line"/>
      <point x="176" y="266" type="line"/>
      <point x="115" y="339" type="line"/>
      <point x="116" y="343" type="line"/>
      <point x="179" y="390" type="line"/>
      <point x="35" y="390" type="line"/>
      <point x="55" y="461" type="line"/>
      <point x="275" y="461" type="line"/>
      <point x="551" y="665" type="line"/>
      <point x="594" y="610" type="line"/>
      <point x="392" y="461" type="line"/>
      <point x="689" y="461" type="line"/>
      <point x="669" y="390" type="line"/>
      <point x="295" y="390" type="line"/>
      <point x="213" y="330" type="line"/>
      <point x="266" y="266" type="line"/>
      <point x="634" y="266" type="line"/>
      <point x="613" y="194" type="line"/>
      <point x="326" y="194" type="line"/>
      <point x="462" y="30" type="line"/>
      <point x="407" y="-11" type="line"/>
    </contour>
  </outline>
</glyph>
<glyph name="equal_less_less.end" format="2">
  <advance width="614"/>
  <outline>
    <contour>
      <point x="248" y="610" type="line"/>
      <point x="-40" y="390" type="line"/>
      <point x="-1193" y="390" type="line"/>
      <point x="-1173" y="461" type="line"/>
      <point x="-62" y="461" type="line"/>
      <point x="204" y="665" type="line"/>
    </contour>
    <contour>
      <point x="407" y="-11" type="line"/>
      <point x="115" y="339" type="line"/>
      <point x="116" y="343" type="line"/>
      <point x="551" y="665" type="line"/>
      <point x="594" y="610" type="line"/>
      <point x="213" y="330" type="line"/>
      <point x="462" y="30" type="line"/>
    </contour>
    <contour>
      <point x="-101" y="194" type="line"/>
      <point x="-1249" y="194" type="line"/>
      <point x="-1228" y="266" type="line"/>
      <point x="-67" y="266" type="line"/>
      <point x="116" y="30" type="line"/>
      <point x="60" y="-11" type="line"/>
    </contour>
  </outline>
</glyph>
<glyph name="equal_less_less.liga" format="2">
  <advance width="614"/>
  <outline>
    <contour>
      <point x="248" y="610" type="line"/>
      <point x="-40" y="390" type="line"/>
      <point x="-1090" y="390" type="line"/>
      <point x="-1070" y="461" type="line"/>
      <point x="-61" y="461" type="line"/>
      <point x="204" y="665" type="line"/>
    </contour>
    <contour>
      <point x="407" y="-11" type="line"/>
      <point x="115" y="339" type="line"/>
      <point x="116" y="343" type="line"/>
      <point x="551" y="665" type="line"/>
      <point x="594" y="610" type="line"/>
      <point x="213" y="330" type="line"/>
      <point x="462" y="30" type="line"/>
    </contour>
    <contour>
      <point x="-101" y="194" type="line"/>
      <point x="-1146" y="194" type="line"/>
      <point x="-1126" y="266" type="line"/>
      <point x="-68" y="266" type="line"/>
      <point x="116" y="30" type="line"/>
      <point x="60" y="-11" type="line"/>
    </contour>
  </outline>
</glyph>
<glyph name="equal_slash_slash_equal.middle" format="2">
  <advance width="614"/>
  <outline>
    <contour>
      <point x="155" y="755" type="line"/>
      <point x="246" y="755" type="line"/>
      <point x="-441" y="-100" type="line"/>
      <point x="-535" y="-100" type="line"/>
      <point x="-298" y="194" type="line"/>
      <point x="-635" y="194" type="line"/>
      <point x="-614" y="266" type="line"/>
      <point x="-240" y="266" type="line"/>
      <point x="-140" y="390" type="line"/>
      <point x="-579" y="390" type="line"/>
      <point x="-559" y="461" type="line"/>
      <point x="-82" y="461" type="line"/>
    </contour>
    <contour>
      <point x="497" y="755" type="line"/>
      <point x="589" y="755" type="line"/>
      <point x="352" y="461" type="line"/>
      <point x="689" y="461" type="line"/>
      <point x="669" y="390" type="line"/>
      <point x="295" y="390" type="line"/>
      <point x="196" y="266" type="line"/>
      <point x="634" y="266" type="line"/>
      <point x="613" y="194" type="line"/>
      <point x="138" y="194" type="line"/>
      <point x="-99" y="-100" type="line"/>
      <point x="-193" y="-100" type="line"/>
    </contour>
  </outline>
</glyph>
<glyph name="exclam_asciitilde.liga" format="2">
  <advance width="614"/>
  <outline>
    <contour>
      <point x="137" y="173" type="qcurve" smooth="yes"/>
      <point x="158" y="173"/>
      <point x="207" y="229"/>
      <point x="254" y="302" type="qcurve"/>
      <point x="320" y="263" type="line"/>
      <point x="259" y="165"/>
      <point x="182" y="89"/>
      <point x="134" y="89" type="qcurve" smooth="yes"/>
      <point x="106" y="89"/>
      <point x="50" y="116"/>
      <point x="-37" y="175" type="qcurve"/>
      <point x="-204" y="-100" type="line"/>
      <point x="-290" y="-100" type="line"/>
      <point x="-85" y="204" type="line"/>
      <point x="-100" y="213"/>
      <point x="-123" y="220"/>
      <point x="-137" y="220" type="qcurve" smooth="yes"/>
      <point x="-158" y="220"/>
      <point x="-210" y="161"/>
      <point x="-263" y="78" type="qcurve"/>
      <point x="-329" y="117" type="line"/>
      <point x="-263" y="223"/>
      <point x="-183" y="304"/>
      <point x="-134" y="304" type="qcurve" smooth="yes"/>
      <point x="-110" y="304"/>
      <point x="-68" y="290"/>
      <point x="-39" y="273" type="qcurve"/>
      <point x="6" y="339" type="line"/>
      <point x="49" y="410" type="line"/>
      <point x="-25" y="461"/>
      <point x="-71" y="486"/>
      <point x="-87" y="486" type="qcurve" smooth="yes"/>
      <point x="-107" y="486"/>
      <point x="-157" y="430"/>
      <point x="-204" y="357" type="qcurve"/>
      <point x="-270" y="395" type="line"/>
      <point x="-210" y="492"/>
      <point x="-133" y="569"/>
      <point x="-84" y="569" type="qcurve" smooth="yes"/>
      <point x="-58" y="569"/>
      <point x="-1" y="542"/>
      <point x="92" y="481" type="qcurve"/>
      <point x="259" y="755" type="line"/>
      <point x="343" y="755" type="line"/>
      <point x="141" y="453" type="line"/>
      <point x="156" y="445"/>
      <point x="176" y="439"/>
      <point x="187" y="439" type="qcurve" smooth="yes"/>
      <point x="207" y="439"/>
      <point x="255" y="495"/>
      <point x="310" y="580" type="qcurve"/>
      <point x="380" y="542" type="line"/>
      <point x="314" y="436"/>
      <point x="234" y="355"/>
      <point x="184" y="355" type="qcurve" smooth="yes"/>
      <point x="160" y="355"/>
      <point x="121" y="367"/>
      <point x="94" y="382" type="qcurve"/>
      <point x="50" y="317" type="line"/>
      <point x="6" y="245" type="line"/>
      <point x="83" y="195"/>
      <point x="123" y="173"/>
    </contour>
  </outline>
</glyph>
<glyph name="exclam_equal_equal.liga" format="2">
  <advance width="614"/>
  <outline>
    <contour>
      <point x="19" y="755" type="line"/>
      <point x="111" y="755" type="line"/>
      <point x="-56" y="550" type="line"/>
      <point x="577" y="550" type="line"/>
      <point x="557" y="479" type="line"/>
      <point x="-114" y="479" type="line"/>
      <point x="-209" y="363" type="line"/>
      <point x="524" y="363" type="line"/>
      <point x="503" y="292" type="line"/>
      <point x="-266" y="292" type="line"/>
      <point x="-358" y="176" type="line"/>
      <point x="470" y="176" type="line"/>
      <point x="449" y="105" type="line"/>
      <point x="-414" y="105" type="line"/>
      <point x="-577" y="-100" type="line"/>
      <point x="-671" y="-100" type="line"/>
      <point x="-503" y="105" type="line"/>
      <point x="-1137" y="105" type="line"/>
      <point x="-1116" y="176" type="line"/>
      <point x="-445" y="176" type="line"/>
      <point x="-350" y="292" type="line"/>
      <point x="-1083" y="292" type="line"/>
      <point x="-1062" y="363" type="line"/>
      <point x="-292" y="363" type="line"/>
      <point x="-200" y="479" type="line"/>
      <point x="-1029" y="479" type="line"/>
      <point x="-1009" y="550" type="line"/>
      <point x="-144" y="550" type="line"/>
    </contour>
  </outline>
</glyph>
<glyph name="five.den" format="2">
  <advance width="614"/>
  <outline>
    <contour>
      <point x="163" y="177" type="line"/>
      <point x="235" y="380" type="line"/>
      <point x="473" y="380" type="line"/>
      <point x="457" y="328" type="line"/>
      <point x="273" y="328" type="line"/>
      <point x="235" y="223" type="line"/>
      <point x="257" y="234"/>
      <point x="302" y="244"/>
      <point x="327" y="244" type="qcurve"/>
      <point x="375" y="244"/>
      <point x="431" y="199"/>
      <point x="431" y="159" type="qcurve"/>
      <point x="431" y="87"/>
      <point x="312" y="6"/>
      <point x="193" y="-3" type="qcurve"/>
      <point x="105" y="-10" type="line"/>
      <point x="115" y="45" type="line"/>
      <point x="197" y="52" type="line"/>
      <point x="280" y="59"/>
      <point x="366" y="109"/>
      <point x="366" y="150" type="qcurve"/>
      <point x="366" y="171"/>
      <point x="334" y="194"/>
      <point x="305" y="194" type="qcurve"/>
      <point x="281" y="194"/>
      <point x="231" y="180"/>
      <point x="204" y="165" type="qcurve"/>
      <point x="164" y="174" type="line"/>
    </contour>
  </outline>
</glyph>
<glyph name="four.den" format="2">
  <advance width="614"/>
  <outline>
    <contour>
      <point x="303" y="98" type="line"/>
      <point x="115" y="98" type="line"/>
      <point x="127" y="142" type="line"/>
      <point x="377" y="380" type="line"/>
      <point x="460" y="380" type="line"/>
      <point x="382" y="149" type="line"/>
      <point x="461" y="149" type="line"/>
      <point x="447" y="98" type="line"/>
      <point x="365" y="98" type="line"/>
      <point x="332" y="0" type="line"/>
      <point x="271" y="0" type="line"/>
    </contour>
    <contour>
      <point x="322" y="143" type="line"/>
      <point x="390" y="339" type="line"/>
      <point x="187" y="146" type="line"/>
      <point x="187" y="143" type="line"/>
    </contour>
  </outline>
</glyph>
<glyph name="fracbar" format="2">
  <advance width="614"/>
  <outline>
    <contour>
      <point x="614" y="414" type="line"/>
      <point x="317" y="189" type="line"/>
      <point x="50" y="-74" type="line"/>
      <point x="0" y="-14" type="line"/>
      <point x="299" y="211" type="line"/>
      <point x="564" y="474" type="line"/>
    </contour>
  </outline>
</glyph>
<glyph name="gravecmb.cap" format="2">
  <outline>
    <contour>
      <point x="47" y="916" type="line"/>
      <point x="232" y="773" type="line"/>
      <point x="199" y="731" type="line"/>
      <point x="4" y="859" type="line"/>
    </contour>
  </outline>
</glyph>
<glyph name="greater_colon.liga" format="2">
  <advance width="614"/>
  <outline>
    <contour>
      <point x="101" y="360" type="line"/>
      <point x="79" y="282" type="line"/>
      <point x="-449" y="79" type="line"/>
      <point x="-425" y="164" type="line"/>
      <point x="15" y="327" type="line"/>
      <point x="-332" y="489" type="line"/>
      <point x="-310" y="563" type="line"/>
    </contour>
    <contour>
      <point x="470" y="516" type="qcurve" smooth="yes"/>
      <point x="470" y="473"/>
      <point x="412" y="418"/>
      <point x="365" y="418" type="qcurve" smooth="yes"/>
      <point x="327" y="418"/>
      <point x="286" y="448"/>
      <point x="286" y="477" type="qcurve" smooth="yes"/>
      <point x="286" y="518"/>
      <point x="344" y="574"/>
      <point x="391" y="574" type="qcurve" smooth="yes"/>
      <point x="430" y="574"/>
      <point x="470" y="544"/>
    </contour>
    <contour>
      <point x="374" y="179" type="qcurve" smooth="yes"/>
      <point x="374" y="137"/>
      <point x="316" y="81"/>
      <point x="269" y="81" type="qcurve" smooth="yes"/>
      <point x="231" y="81"/>
      <point x="190" y="111"/>
      <point x="190" y="140" type="qcurve" smooth="yes"/>
      <point x="190" y="181"/>
      <point x="249" y="237"/>
      <point x="295" y="237" type="qcurve" smooth="yes"/>
      <point x="334" y="237"/>
      <point x="374" y="208"/>
    </contour>
  </outline>
</glyph>
<glyph name="greater_equal" format="2">
  <advance width="614"/>
  <outline>
    <contour>
      <point x="338" y="476" type="line"/>
      <point x="316" y="397" type="line"/>
      <point x="-263" y="204" type="line"/>
      <point x="-239" y="288" type="line"/>
      <point x="240" y="441" type="line"/>
      <point x="-151" y="595" type="line"/>
      <point x="-129" y="670" type="line"/>
    </contour>
    <contour>
      <point x="223" y="71" type="line"/>
      <point x="202" y="0" type="line"/>
      <point x="-321" y="0" type="line"/>
      <point x="-301" y="71" type="line"/>
    </contour>
  </outline>
</glyph>
<glyph name="greater_equal.start" format="2">
  <advance width="614"/>
  <outline>
    <contour>
      <point x="-185" y="461" type="line"/>
      <point x="689" y="461" type="line"/>
      <point x="669" y="390" type="line"/>
      <point x="-214" y="390" type="line"/>
      <point x="-410" y="624" type="line"/>
      <point x="-354" y="665" type="line"/>
    </contour>
    <contour>
      <point x="-542" y="44" type="line"/>
      <point x="-241" y="266" type="line"/>
      <point x="634" y="266" type="line"/>
      <point x="613" y="194" type="line"/>
      <point x="-224" y="194" type="line"/>
      <point x="-498" y="-11" type="line"/>
    </contour>
  </outline>
</glyph>
<glyph name="greater_greater_equal.liga" format="2">
  <advance width="614"/>
  <outline>
    <contour>
      <point x="-461" y="461" type="line"/>
      <point x="587" y="461" type="line"/>
      <point x="566" y="390" type="line"/>
      <point x="-494" y="390" type="line"/>
      <point x="-677" y="624" type="line"/>
      <point x="-622" y="665" type="line"/>
    </contour>
    <contour>
      <point x="-677" y="315" type="line"/>
      <point x="-678" y="311" type="line"/>
      <point x="-1112" y="-11" type="line"/>
      <point x="-1156" y="44" type="line"/>
      <point x="-775" y="324" type="line"/>
      <point x="-1024" y="624" type="line"/>
      <point x="-968" y="665" type="line"/>
    </contour>
    <contour>
      <point x="-809" y="44" type="line"/>
      <point x="-521" y="266" type="line"/>
      <point x="531" y="266" type="line"/>
      <point x="510" y="194" type="line"/>
      <point x="-501" y="194" type="line"/>
      <point x="-766" y="-11" type="line"/>
    </contour>
  </outline>
</glyph>
<glyph name="greater_greater_hyphen.liga" format="2">
  <advance width="614"/>
  <outline>
    <contour>
      <point x="-677" y="315" type="line"/>
      <point x="-678" y="311" type="line"/>
      <point x="-1112" y="-11" type="line"/>
      <point x="-1156" y="44" type="line"/>
      <point x="-775" y="324" type="line"/>
      <point x="-1024" y="624" type="line"/>
      <point x="-968" y="665" type="line"/>
    </contour>
    <contour>
      <point x="-391" y="363" type="line"/>
      <point x="582" y="363" type="line"/>
      <point x="561" y="292" type="line"/>
      <point x="-379" y="292" type="line"/>
      <point x="-771" y="-11" type="line"/>
      <point x="-815" y="44" type="line"/>
      <point x="-449" y="324" type="line"/>
      <point x="-683" y="624" type="line"/>
      <point x="-627" y="665" type="line"/>
    </contour>
  </outline>
</glyph>
<glyph name="greater_greater_hyphen.start" format="2">
  <advance width="614"/>
  <outline>
    <contour>
      <point x="-677" y="315" type="line"/>
      <point x="-678" y="311" type="line"/>
      <point x="-1112" y="-11" type="line"/>
      <point x="-1156" y="44" type="line"/>
      <point x="-775" y="324" type="line"/>
      <point x="-1024" y="624" type="line"/>
      <point x="-968" y="665" type="line"/>
    </contour>
    <contour>
      <point x="-389" y="363" type="line"/>
      <point x="662" y="363" type="line"/>
      <point x="641" y="292" type="line"/>
      <point x="-377" y="292" type="line"/>
      <point x="-769" y="-11" type="line"/>
      <point x="-813" y="44" type="line"/>
      <point x="-447" y="324" type="line"/>
      <point x="-681" y="624" type="line"/>
      <point x="-625" y="665" type="line"/>
    </contour>
  </outline>
</glyph>
<glyph name="greater_hyphen.liga" format="2">
  <advance width="614"/>
  <outline>
    <contour>
      <point x="-103" y="363" type="line"/>
      <point x="582" y="363" type="line"/>
      <point x="561" y="292" type="line"/>
      <point x="-90" y="292" type="line"/>
      <point x="-498" y="-11" type="line"/>
      <point x="-542" y="44" type="line"/>
      <point x="-161" y="324" type="line"/>
      <point x="-410" y="624" type="line"/>
      <point x="-354" y="665" type="line"/>
    </contour>
  </outline>
</glyph>
<glyph name="hungarumlautcmb.cap" format="2">
  <outline>
    <contour>
      <point x="22" y="731" type="line"/>
      <point x="-10" y="769" type="line"/>
      <point x="149" y="922" type="line"/>
      <point x="198" y="870" type="line"/>
    </contour>
    <contour>
      <point x="264" y="731" type="line"/>
      <point x="232" y="769" type="line"/>
      <point x="391" y="922" type="line"/>
      <point x="440" y="870" type="line"/>
    </contour>
  </outline>
</glyph>
<glyph name="hyphen.middle" format="2">
  <advance width="614"/>
  <outline>
    <contour>
      <point x="641" y="292" type="line"/>
      <point x="7" y="292" type="line"/>
      <point x="28" y="363" type="line"/>
      <point x="662" y="363" type="line"/>
    </contour>
  </outline>
</glyph>
